<mxfile host="app.diagrams.net" agent="Mozilla/5.0 (Windows NT 10.0; Win64; x64) AppleWebKit/537.36 (KHTML, like Gecko) Chrome/130.0.0.0 Safari/537.36" version="26.0.2">
  <diagram name="Page-1" id="80d4a630-b321-0f5e-ff81-c5a36ef4752d">
    <mxGraphModel dx="1741" dy="970" grid="1" gridSize="10" guides="1" tooltips="1" connect="1" arrows="1" fold="1" page="1" pageScale="1" pageWidth="1100" pageHeight="850" background="none" math="0" shadow="0">
      <root>
        <mxCell id="0" />
        <mxCell id="1" parent="0" />
        <mxCell id="W7hZznwjPLtyRQ2mr3Gq-155" value="" style="rounded=1;whiteSpace=wrap;html=1;dashed=1;fillColor=#d5e8d4;strokeColor=#82b366;" vertex="1" parent="1">
          <mxGeometry x="81" y="385" width="210" height="180" as="geometry" />
        </mxCell>
        <mxCell id="W7hZznwjPLtyRQ2mr3Gq-128" value="" style="group" vertex="1" connectable="0" parent="1">
          <mxGeometry x="713.5" y="660" width="285" height="165" as="geometry" />
        </mxCell>
        <mxCell id="W7hZznwjPLtyRQ2mr3Gq-129" value="" style="rounded=1;whiteSpace=wrap;html=1;dashed=1;fillColor=#dae8fc;strokeColor=#6c8ebf;" vertex="1" parent="W7hZznwjPLtyRQ2mr3Gq-128">
          <mxGeometry y="-10" width="285" height="165" as="geometry" />
        </mxCell>
        <mxCell id="W7hZznwjPLtyRQ2mr3Gq-133" value="&lt;font style=&quot;font-size: 11px;&quot; face=&quot;Comic Sans MS&quot;&gt;Mail Servers&lt;/font&gt;" style="text;html=1;align=center;verticalAlign=middle;whiteSpace=wrap;rounded=0;" vertex="1" parent="W7hZznwjPLtyRQ2mr3Gq-128">
          <mxGeometry x="143" y="14" width="88" height="14.5" as="geometry" />
        </mxCell>
        <mxCell id="W7hZznwjPLtyRQ2mr3Gq-137" value="&lt;font face=&quot;Comic Sans MS&quot; style=&quot;font-size: 10px;&quot;&gt;Bucatini&lt;/font&gt;" style="text;html=1;align=center;verticalAlign=middle;whiteSpace=wrap;rounded=0;" vertex="1" parent="W7hZznwjPLtyRQ2mr3Gq-128">
          <mxGeometry x="110" y="102.5" width="50" height="14.5" as="geometry" />
        </mxCell>
        <mxCell id="W7hZznwjPLtyRQ2mr3Gq-138" value="&lt;font face=&quot;Comic Sans MS&quot; style=&quot;font-size: 10px;&quot;&gt;10.100.136.121&lt;/font&gt;" style="text;html=1;align=center;verticalAlign=middle;whiteSpace=wrap;rounded=0;" vertex="1" parent="W7hZznwjPLtyRQ2mr3Gq-128">
          <mxGeometry x="112.5" y="117" width="55" height="14.5" as="geometry" />
        </mxCell>
        <mxCell id="W7hZznwjPLtyRQ2mr3Gq-58" value="" style="shape=image;html=1;verticalAlign=top;verticalLabelPosition=bottom;labelBackgroundColor=#ffffff;imageAspect=0;aspect=fixed;image=https://cdn3.iconfinder.com/data/icons/colorstroked/Ubuntu.png" vertex="1" parent="W7hZznwjPLtyRQ2mr3Gq-128">
          <mxGeometry x="180" y="116.5" width="15" height="15" as="geometry" />
        </mxCell>
        <mxCell id="W7hZznwjPLtyRQ2mr3Gq-147" value="" style="endArrow=none;html=1;rounded=0;" edge="1" parent="W7hZznwjPLtyRQ2mr3Gq-128">
          <mxGeometry width="50" height="50" relative="1" as="geometry">
            <mxPoint x="139.75" y="42.5" as="sourcePoint" />
            <mxPoint x="140" y="-40" as="targetPoint" />
          </mxGeometry>
        </mxCell>
        <mxCell id="W7hZznwjPLtyRQ2mr3Gq-77" value="" style="rounded=1;whiteSpace=wrap;html=1;dashed=1;fillColor=#e1d5e7;strokeColor=#9673a6;" vertex="1" parent="1">
          <mxGeometry x="80" y="650" width="285" height="165" as="geometry" />
        </mxCell>
        <mxCell id="W7hZznwjPLtyRQ2mr3Gq-17" value="" style="rounded=1;whiteSpace=wrap;html=1;dashed=1;fillColor=#fff2cc;strokeColor=#d6b656;" vertex="1" parent="1">
          <mxGeometry x="705" y="265.5" width="370" height="320" as="geometry" />
        </mxCell>
        <mxCell id="W7hZznwjPLtyRQ2mr3Gq-1" value="" style="html=1;outlineConnect=0;fillColor=#CCCCCC;strokeColor=#6881B3;gradientColor=none;gradientDirection=north;strokeWidth=2;shape=mxgraph.networks.cloud;fontColor=#ffffff;" vertex="1" parent="1">
          <mxGeometry x="495" y="90" width="90" height="50" as="geometry" />
        </mxCell>
        <mxCell id="W7hZznwjPLtyRQ2mr3Gq-4" value="" style="fontColor=#0066CC;verticalAlign=top;verticalLabelPosition=bottom;labelPosition=center;align=center;html=1;outlineConnect=0;fillColor=#CCCCCC;strokeColor=#6881B3;gradientColor=none;gradientDirection=north;strokeWidth=2;shape=mxgraph.networks.router;" vertex="1" parent="1">
          <mxGeometry x="490" y="250" width="100" height="30" as="geometry" />
        </mxCell>
        <mxCell id="W7hZznwjPLtyRQ2mr3Gq-9" value="" style="fontColor=#0066CC;verticalAlign=top;verticalLabelPosition=bottom;labelPosition=center;align=center;html=1;outlineConnect=0;fillColor=#CCCCCC;strokeColor=#6881B3;gradientColor=none;gradientDirection=north;strokeWidth=2;shape=mxgraph.networks.web_server;" vertex="1" parent="1">
          <mxGeometry x="970" y="295" width="70" height="65" as="geometry" />
        </mxCell>
        <mxCell id="W7hZznwjPLtyRQ2mr3Gq-14" value="" style="fontColor=#0066CC;verticalAlign=top;verticalLabelPosition=bottom;labelPosition=center;align=center;html=1;outlineConnect=0;fillColor=#CCCCCC;strokeColor=#6881B3;gradientColor=none;gradientDirection=north;strokeWidth=2;shape=mxgraph.networks.web_server;" vertex="1" parent="1">
          <mxGeometry x="970" y="393" width="70" height="65" as="geometry" />
        </mxCell>
        <mxCell id="W7hZznwjPLtyRQ2mr3Gq-15" value="" style="fontColor=#0066CC;verticalAlign=top;verticalLabelPosition=bottom;labelPosition=center;align=center;html=1;outlineConnect=0;fillColor=#CCCCCC;strokeColor=#6881B3;gradientColor=none;gradientDirection=north;strokeWidth=2;shape=mxgraph.networks.web_server;" vertex="1" parent="1">
          <mxGeometry x="970" y="495" width="70" height="65" as="geometry" />
        </mxCell>
        <mxCell id="W7hZznwjPLtyRQ2mr3Gq-19" value="" style="fontColor=#0066CC;verticalAlign=top;verticalLabelPosition=bottom;labelPosition=center;align=center;html=1;outlineConnect=0;fillColor=#CCCCCC;strokeColor=#6881B3;gradientColor=none;gradientDirection=north;strokeWidth=2;shape=mxgraph.networks.web_server;" vertex="1" parent="1">
          <mxGeometry x="855" y="495" width="70" height="65" as="geometry" />
        </mxCell>
        <mxCell id="W7hZznwjPLtyRQ2mr3Gq-20" value="" style="fontColor=#0066CC;verticalAlign=top;verticalLabelPosition=bottom;labelPosition=center;align=center;html=1;outlineConnect=0;fillColor=#CCCCCC;strokeColor=#6881B3;gradientColor=none;gradientDirection=north;strokeWidth=2;shape=mxgraph.networks.web_server;" vertex="1" parent="1">
          <mxGeometry x="750" y="495" width="70" height="65" as="geometry" />
        </mxCell>
        <mxCell id="W7hZznwjPLtyRQ2mr3Gq-22" value="" style="endArrow=none;html=1;rounded=0;" edge="1" parent="1">
          <mxGeometry width="50" height="50" relative="1" as="geometry">
            <mxPoint x="780" y="480" as="sourcePoint" />
            <mxPoint x="940" y="480" as="targetPoint" />
          </mxGeometry>
        </mxCell>
        <mxCell id="W7hZznwjPLtyRQ2mr3Gq-23" value="" style="endArrow=none;html=1;rounded=0;" edge="1" parent="1">
          <mxGeometry width="50" height="50" relative="1" as="geometry">
            <mxPoint x="940" y="330" as="sourcePoint" />
            <mxPoint x="940" y="480" as="targetPoint" />
          </mxGeometry>
        </mxCell>
        <mxCell id="W7hZznwjPLtyRQ2mr3Gq-24" value="" style="endArrow=none;html=1;rounded=0;" edge="1" parent="1">
          <mxGeometry width="50" height="50" relative="1" as="geometry">
            <mxPoint x="780" y="495" as="sourcePoint" />
            <mxPoint x="780" y="480" as="targetPoint" />
          </mxGeometry>
        </mxCell>
        <mxCell id="W7hZznwjPLtyRQ2mr3Gq-25" value="" style="endArrow=none;html=1;rounded=0;" edge="1" parent="1">
          <mxGeometry width="50" height="50" relative="1" as="geometry">
            <mxPoint x="889.78" y="495" as="sourcePoint" />
            <mxPoint x="889.78" y="480" as="targetPoint" />
          </mxGeometry>
        </mxCell>
        <mxCell id="W7hZznwjPLtyRQ2mr3Gq-26" value="" style="endArrow=none;html=1;rounded=0;" edge="1" parent="1">
          <mxGeometry width="50" height="50" relative="1" as="geometry">
            <mxPoint x="1000" y="495" as="sourcePoint" />
            <mxPoint x="1000" y="480" as="targetPoint" />
          </mxGeometry>
        </mxCell>
        <mxCell id="W7hZznwjPLtyRQ2mr3Gq-27" value="" style="endArrow=none;html=1;rounded=0;" edge="1" parent="1">
          <mxGeometry width="50" height="50" relative="1" as="geometry">
            <mxPoint x="940" y="480" as="sourcePoint" />
            <mxPoint x="1000" y="480" as="targetPoint" />
          </mxGeometry>
        </mxCell>
        <mxCell id="W7hZznwjPLtyRQ2mr3Gq-29" value="" style="endArrow=none;html=1;rounded=0;" edge="1" parent="1">
          <mxGeometry width="50" height="50" relative="1" as="geometry">
            <mxPoint x="940" y="430" as="sourcePoint" />
            <mxPoint x="970" y="430" as="targetPoint" />
          </mxGeometry>
        </mxCell>
        <mxCell id="W7hZznwjPLtyRQ2mr3Gq-30" value="" style="endArrow=none;html=1;rounded=0;" edge="1" parent="1">
          <mxGeometry width="50" height="50" relative="1" as="geometry">
            <mxPoint x="940" y="330" as="sourcePoint" />
            <mxPoint x="970" y="330" as="targetPoint" />
          </mxGeometry>
        </mxCell>
        <mxCell id="W7hZznwjPLtyRQ2mr3Gq-31" value="&lt;font face=&quot;Comic Sans MS&quot; style=&quot;font-size: 10px;&quot;&gt;Mozzare&lt;/font&gt;" style="text;html=1;align=center;verticalAlign=middle;whiteSpace=wrap;rounded=0;" vertex="1" parent="1">
          <mxGeometry x="750" y="555.5" width="50" height="14.5" as="geometry" />
        </mxCell>
        <mxCell id="W7hZznwjPLtyRQ2mr3Gq-32" value="&lt;font face=&quot;Comic Sans MS&quot; style=&quot;font-size: 10px;&quot;&gt;10.100.136.66&lt;/font&gt;" style="text;html=1;align=center;verticalAlign=middle;whiteSpace=wrap;rounded=0;" vertex="1" parent="1">
          <mxGeometry x="747.5" y="570" width="55" height="14.5" as="geometry" />
        </mxCell>
        <mxCell id="W7hZznwjPLtyRQ2mr3Gq-33" value="&lt;font face=&quot;Comic Sans MS&quot; style=&quot;font-size: 10px;&quot;&gt;Spaghetti&lt;/font&gt;" style="text;html=1;align=center;verticalAlign=middle;whiteSpace=wrap;rounded=0;" vertex="1" parent="1">
          <mxGeometry x="855" y="555.5" width="50" height="14.5" as="geometry" />
        </mxCell>
        <mxCell id="W7hZznwjPLtyRQ2mr3Gq-34" value="&lt;font face=&quot;Comic Sans MS&quot; style=&quot;font-size: 10px;&quot;&gt;10.100.136.53&lt;/font&gt;" style="text;html=1;align=center;verticalAlign=middle;whiteSpace=wrap;rounded=0;" vertex="1" parent="1">
          <mxGeometry x="855" y="570" width="55" height="14.5" as="geometry" />
        </mxCell>
        <mxCell id="W7hZznwjPLtyRQ2mr3Gq-35" value="&lt;font face=&quot;Comic Sans MS&quot; style=&quot;font-size: 10px;&quot;&gt;Gnocchi&lt;/font&gt;" style="text;html=1;align=center;verticalAlign=middle;whiteSpace=wrap;rounded=0;" vertex="1" parent="1">
          <mxGeometry x="970" y="555.5" width="50" height="14.5" as="geometry" />
        </mxCell>
        <mxCell id="W7hZznwjPLtyRQ2mr3Gq-36" value="&lt;font face=&quot;Comic Sans MS&quot; style=&quot;font-size: 10px;&quot;&gt;10.100.136.111&lt;/font&gt;" style="text;html=1;align=center;verticalAlign=middle;whiteSpace=wrap;rounded=0;" vertex="1" parent="1">
          <mxGeometry x="970" y="570" width="55" height="14.5" as="geometry" />
        </mxCell>
        <mxCell id="W7hZznwjPLtyRQ2mr3Gq-37" value="&lt;font face=&quot;Comic Sans MS&quot; style=&quot;font-size: 10px;&quot;&gt;Orzo&lt;/font&gt;" style="text;html=1;align=center;verticalAlign=middle;whiteSpace=wrap;rounded=0;" vertex="1" parent="1">
          <mxGeometry x="970" y="453" width="50" height="14.5" as="geometry" />
        </mxCell>
        <mxCell id="W7hZznwjPLtyRQ2mr3Gq-38" value="&lt;font face=&quot;Comic Sans MS&quot; style=&quot;font-size: 10px;&quot;&gt;10.100.136.30&lt;/font&gt;" style="text;html=1;align=center;verticalAlign=middle;whiteSpace=wrap;rounded=0;" vertex="1" parent="1">
          <mxGeometry x="970" y="465" width="55" height="14.5" as="geometry" />
        </mxCell>
        <mxCell id="W7hZznwjPLtyRQ2mr3Gq-39" value="&lt;font face=&quot;Comic Sans MS&quot; style=&quot;font-size: 10px;&quot;&gt;Macaroni&lt;/font&gt;" style="text;html=1;align=center;verticalAlign=middle;whiteSpace=wrap;rounded=0;" vertex="1" parent="1">
          <mxGeometry x="970" y="356" width="50" height="14.5" as="geometry" />
        </mxCell>
        <mxCell id="W7hZznwjPLtyRQ2mr3Gq-40" value="&lt;font face=&quot;Comic Sans MS&quot; style=&quot;font-size: 10px;&quot;&gt;10.100.136.84&lt;/font&gt;" style="text;html=1;align=center;verticalAlign=middle;whiteSpace=wrap;rounded=0;" vertex="1" parent="1">
          <mxGeometry x="970" y="370.5" width="55" height="14.5" as="geometry" />
        </mxCell>
        <mxCell id="W7hZznwjPLtyRQ2mr3Gq-41" value="" style="shape=image;verticalLabelPosition=bottom;labelBackgroundColor=default;verticalAlign=top;aspect=fixed;imageAspect=0;image=data:image/png,iVBORw0KGgoAAAANSUhEUgAAAfQAAAH0CAMAAAD8CC+4AAADAFBMVEUAAAAAAAAAAAAAAAAAAAAAAAAAAAAAAAAAAAAAAAAAAAAAAAAAAAAAAAAAAAAAAAAAAAAAAAAAAAAAAQEAAQEAAAEAAAAAAAAAAAAAAQEAAAAAAAAAAAAAAAAAAAAAAQEAAAAAAAAAAAAAAAAAAAAAAQEAAAAAAAAAAAAAAAAAAAAAAAAAAAAAAAAAAgIAAAAAAAAAAAAAAAAAAAAAAAAAAAEAAAAAAAEAAAEAAAAAAAAAAQEAAAAAAAAAAAAAAAAAAAAAAAAAAAAAAAAAAAAAAAAAAQEAAAAAAAEBBggAAgMAAQEPY4sAAAAAAAAAAAAAAAAMUnQCDBEMTm4JO1MIL0IFIS4BCxAKRWEILkAEFyALQlwJNUsCEBYNVngGJzcDDxYGJzcHLkENPVUIKDgBCQ0DExsOSWYMNkoFHioHHCcEFh4EGSQOMUMGFx8GFBsLSWcGHysaZYsSRV4RQVkPOE0VT2wHIS0XTGcUQ1sIIzAINkwCDxYMNkoCDBEQOU4JJTIaapMXYIUCCxAMMkUMLj8KKDYHGyYEEhkqcJMmaYsiYH8PPFMCDBEHGiUGGCApdZsgcZkJQVwMS2oEHCcPU3QNMEEdU24OQ14WbpoWV3ckY4IVXIASTGkXR18NLT0IIS0GFh4PVnogW3kRW4AdVHAEGyYJJjUFJTUJKDcEERgHFh4SdqUXktBAptk7pNg9pdk1odcUgrgwn9YXk9FCp9k5o9gsndU3otclmtQXkc4yoNcZlNIWjsoSd6c/ptkbldIUgbgViMIuntYcltIfl9MUgbYVhLohmNMpnNUWkMwnm9QVisQWjcgTe64Vhr8Vh8AVhb0TeKkeltIUgLQUf7IVhbsTeaoUfrEUfa8WjMYWjMcWi8YimdQUgroTeqwTeqsRcJ4Sc6ESdaQOX4YQZpARbpsQbJgQaZQOXIEUgLYNWX0rntc0jbkrlsw5mMcwg6wokMQ8oNI6nc4glM0edaEue6EpibkjgrEdj8k0k8IgjMIxm9AkfKgehrobe6xL2WCVAAAArHRSTlMABAkMBxEdFCQaDzQhRCgXMbc4SkdbQDtkUl6yr4h6TS4srCqcUKmlmWGiPZ+AVY13FrptlrxvWbV+ZleCdYpxfGyFlHORao/D1s7I/r+naIT+xP768Ou9/Onl9/PL/vHe5fbz69zU+eveidzWsnNj/eT79NjL+bDdzKH65trVwZH9+s68qZyYav358eWxgXr+/v3v7uzP9eb9/Pv65eHAu47z+u7nzKr23oWi+RZwZAAAQr5JREFUeNrs3UlPU1EYxnEKpS2USQTEERTFAQFnnCecFk4hUWOiC8Uo4EAcQDRxntEobkTBOMQYoyal2NwCssCkNIF0Y0JMdMHKhTERWoqCIqjvhUrp3CqLnsPz+wr/HLjvOT33BgAAAAAAAAAAAAAAAAAAAAAAAAAAAACAn5LKJAEwxOTfmRQAQ0twQckjaQDBeh86Yq53FykDJH0QfkgIvGzSltySSAOJVIrqQ0LU3e7q1hNhgUGhoaFBgYGoPhQ8PlddWVl8NUgunykPDg1C9SEg8XkXRe+8qAiRyWQh8uCgQETn3sgn1LyytnRUWERERJgsMjhIiuqckz4yaSuJ6aRSqYwar5DNDMVS511SUXt1Jel+MCouLiU6URFCSz0AuHarREvRye2XCQnDw6MTwyKx1Dk380yXJXpXzrzYjEnh0UmyYETnW8L16mqKLirfuDA+NiEuKmwmHuW4Jn3Wqf0bvTN38byFGcOjI0Kw1LmWWNTev9I1hcnjlsWPjEsMk2Op80x8jOuv3rNz7PLZscOVihA8ynEspKDLGr22O3v6yhnxI1PGy+RBiM6t+HLtgOi1t7PSF8zOCFcqIkPx951X8kcmm+ht26ePXTI1YQSmNo7FHTVrtVpr9Nonw9IXrFgUTlMbduV4lVeito3emTtl5apRmNo4Fllg1NpG7y4cnT5uYe/UhqXOp4ziCpvo5NveOYvnxcZgauNV4OUWtX301h3JYzG1cSzqqdlupZMjF1an9k5tOGvjUl5HRV900h+9bc9kTG38UhQYKxxWukZTNit9wZpF4Thr41J+eYWT6LXfMbXxK+hSi9rZSq86OqFvasOjHH/i6DHOWXTNt52ZmNr4JLnSoXaMriGtOZNpapuUkiSTIzpfEm8YK0T20cmRbWtTV2SERyki8SjHl/xitavonc8nYmrjUejDFpfRdWXD0pevSQuPwgY8X9JKK/rYbs5oen0/MGXzMkxtvJHkmdQuo+taj45ZiqmNO2HH2t1E19zem5lKUxs24LmSf03t8s+7Tqdry5kmTm0jMLVxJPhgl5vo5PyF1b0/m1JE4lGOFzFPKtxH79w6ceyqqQl4lOOH5Kypzml0jSV6VVXhrPTlmzC1cSSiqF3tPrqu58CcxeLUpsBS58Sha3W20S3NrdFpaku2TG1Y6lygu0yeold9uX1hNaY2jkylxzhP0assUxs24PkgPW6q8xSdnN+2tm9qw8+mOKB8YFZ7jv6lc9fElZjaePGipM5D9CqRoXCYOLXhsgsPIk8Z3UbXWaJ/6dlPl11GxUTjZ1PsS7tOzUUeoje2ZtNZGy678EB6ssXL6I3nTmemzo6NwSsKmBdVZPYU3dK8sW27dWrDf3WW3eyo8y46ub+BpjZcdmEeXUn3Pvqvw5jaeJBWXEfcRNcNiG4oHJM+DlMb6+guk8pJ9EqR/XMc6dlLZ22Y2hiXUmqu8yF6a3Zy/9SGj3yw6kqHyvvoBkPjuSx6RQHO2pgmO2F0Gt1xTG/sjW74iRfLMS+/WOVLdHJ/7lq8WI5pdJdJ8Bjd+tedNH7PnYhXFDAt+qna3UrX2EcnX/fNp6kNL5ZjV55J8DF6jeHbfrxYjmWyE+0qJ9Ftfgurs4leU1PzNTsZZ20My78mOETXeopuOLdTfLEcztrYFHyxS1AR59FrXUX/uWUapjZmjbyuIt5Fb7REF51fh7M2VknPmgRfohv+Rv+1C1Mbq8YXmVX/FL2hcDTO2hh1s0PwIrrDX3fy+4A4tQ1XRmBqY0xYgdGn6AZr9K9HLb+QxL02xlwtVxHfo4vu7c3EWRuDgu+0CNbobjfkHKP/yKHXgcdjamNNfKmKeIxOzR2jNzcfycK9NvZIHpuE/4j+a9d0mtroF5JY6gxJutHuNLrWXfSa/ugNZXPFd0jGReHTuwy5Stvu7qO7ntioefP7w3iHJGvkF43uotv//llsbhO9oWnfrKX4Xhtb0mhe8zl6zYDozeL32vA2EpbQB9gEN9ErvYhOx+q999qwQcMK5VOz6+h211sc/6VTdKp+b+faVHxlmx2Ssx2CF9FdP8eJfuTgWJ0lScfaHaJbqnt+eG/ui65vOJJFU5t4rI6PfLDg1jXB1+gGYrPQ9c04VmeJ7I5RcPPn3dVxS41tdH1T2bC+H0Njg4YBa54IgxFd/y53Cl1hxbE6C+h2sofojhObwT66ntC9BxyrMyKlVOU6uvU0XdMX3eVCJx/307E67j2w4KRJGKToP7LH9G7Q4N6Dv1OcMHsbXefyX7pe1KT/dDpzAT6ozwA6X3OMbjuxuY3eMCD6z90bV2KDxv/JC4yDFL2pqUm/Pisd9x78X3y54EP0KufR9Zbo9W+3T8cGjd+LfNhiH72OuJrYqkQ2zW2j6z/PxZuh/V5MqcpJdLW76I3uor96PmUxfkHj36SXTYLH6A47744b75bm9fVvyuZbvueDvVh/FV1kHrzo9aIPuXNS8WIKfybJ6xC8jG7dmnGIbl3o5PW+3g0a7MX+Ye/Mg6Is4zguN4IgC8u9XCssh1xyg8qlKIeYWemQ1thAZpo4gmk2lWlmpeYxZeXZoU3TIbvlIilbOCGJWZnSqVHTYccMgigoima/Z3dhWZ73eN59l9394/n8xQzw12e+z+95n+P32Cyem6+YVzrwxyNTEugCje1i9+YL9YNwLshxzuNahko/dn2eHJ2goQ8u2yju+64QSsf2VfG5u975seN/LYQHlzM9vOhhOZsEKjqB9A9JpLcZpJ+bH104la7F2igRKy4zS1ch2CbvrGuwOudg/cIz6IoTXYu1Sd7bVs8hHd9Y5Vh4bxuUDnwJa7F0gcY2cX2yS7R0fHRH3CWhV5xslPc21guS3kwm/fj1P5fLiybRp7tsEc9Xutik4/O4RrJ5HHL++byS4Oi0kKmxdHy3PZJ315NJx7db8K90fdAh5hfmlElk0TG0G4ktMvbdi3zS8fU4gHN0h5gvKE7J0kqnT6vbHlGb6gRL5xndW47OmFOaniIJVsRPgQ4FNOm2hts7EHQjOM7NYKM7s/Tv5j1YjJzL42Jy8wtgIkdrum0hfRULOqH0U8zSW67veRnFPEumiItJSsiLjfLzonsuNoXjqkv1nNKVwqS39Pwxv6Q4BcV8ZnxaUnZeQKKHuyc9SGFTSF+7LFw6x1Gpjx5aUIZGdoh5ZFFIfkZsotQ7YgwNui1h//7VeiLpH/NKR8qv/zmntBxG9mB5NMR8UnJBUKCHd4TraCcadBvCczO0GzGT9PaenfeUFKdLYGSHal5UmJ8XkBnm5z5uDDi3p09x2g7VqMs3+doMh/T2nrOVC4oHRvYpuQmTpwUFSv29PJ3HUuc2BXqVySzS29tu195bpp2za0f2WaEZARMh5jC0u7jZO1LnNgS8yiRQOvOF1Z7b8wzKY6aH5Ofl+EZ5DMSc1nNbwmVNF6l0rj22nt5B5TOhmMPIXhCU6IOqOcTcgcbctpgIr+iySydamzl1pH/tfPhKk+iVT8mdlJwKEzgP73BXGnMbxGnpjXpR0k+e6rm9sqqkGH2koYEdKYdinqkd2ccMreYOoyi2gc+mOuFJbwTrHQ0NHR0nT3Xf2gMhL4dvNJixDyjP8Q2UjncfBxO4IZN2u/zRoyi2AOorJFR6Y2fftW7EtVvraquWlJZDxoPRuB6ZVqRXDsU8YvjI7lNRPYpiC0jfvkyYdEMv4Jsrn7i3qqKi4oElJSA8WCaTyRUz4yDkSSHZyRkBWuXhns4wsqOYG7qPXnjFeRTF+jjAPVWB0sH5g+Xp5eXabVO5QqGIjo6Lj4xJm547K39yqla5d7i2mBtP4FwePX9n2Cg7BJ3KWxU/LOj80q89AcLR0roCbMdHgu8pRUkhsyDkd8RmRkn1ytHIbiTXf4fmp3cc7Bzt7e0d6RecFbGHBmKCpXdWFafrV2DSiqYn5YYUTkoInZwxLcA3MczD392gfFgnyp2aozt8HB0c3Bzgl/QjzmqM3wtB55auwof32rKULO3aelLhpOzQ5Ml5GQU5sWAcQu4V4YqnXN/w4FuN+ofHJzi5uLg4udFPd6vh+NzVeuHSG2tKoZpHx0wvhBo+LSA2yDczMRCMo5DDjJ1JOTBm9XmN+ouXfFxGO49Gf0P31q2E974rdSZIv7VEIpsZWTQruQBG9KgwH6mHn7+3e/g41zGg041JOTD+LY1arf50lSswxnks3Vy3Eo5vbmMOOsAqHT7Tu6sk8ri0kFA4HeHjAbrdvcLHeSKTKMBs43b1X0j6Jy8FRXh5oU94ekjSOrhv7iKVbrwgV5kuR8eaY2Gr3D3CEyVXO2QbQo5jt/Q0OD+o/n3V+PH+3l70wJy1eA72VPml46uwjXvKFPHTs1N9ffy9XEH3WO3UTGuc1eOYFV8g6Qe/qs2QSj3g/+h5aKsAQa8zTfqtEkUkeqEFHXGdAL6RcC7jgM8BNQBR/+2NzETYiwmn19WtAbSYqTNR+rXlcpAOb3V4wRFXnW8+f1t/1+ikn6+cFOQb6EEf37UK457sMlV656JgGN6nBfpFwJ1zosU1t6Xf66QfVP89OzUnKMqPdqawAhOyIOimST/UuDI9viihYKK20QCRuDH7Dqp10g+e3xySd4cvvblsDaDzhOnS1z4TlzYrw1f3LP4oAsLWafTSIepz86cG0He2rcEyCDqHdO6DM31L0PVjaDQA7T+JpC/+VTNgXf3lorT8DNqExgpMWNMlQnpnFczkQtGdczJxTus/0xii/s/cEGhCQ6NucZZtrBMh/WatBM3koJM7WSPI8L1Hh0j/bFE8bQhueSDoN0yXDqwrjpsyKQMaQZLN5AJnHNMMWAcuzNb2m6Lf6pYFgi5GemPvM6h7UJCuZRTBO82/GklHUadV3dK4rL8hTvq1hxWRucmxYWTeHB79RDNUulobdfoOq2WZuLtOhHSg8x4ZrMnloEc1CaS779AYpCNOo6jTjiQWxen1i+KkNzfXpmiXZzyIlmee33l8qHRgxmzaRdLC+G5qEiu9pgyWZ/J8Ufd+Xm2OG77TSTdY/6YiMoFG3ZK4rIegC5GOtyQ4dOsp8uWZ0avPDZeunjGbvuhjURL3q5pESm/uXo6WZ8j6QPrvgI6hhvHdKOp0X90yuL1+sUm09M5FWfHT89FGGy4dL+kgHY96SDK8rk6jbhkm7leKl94AG23wJM9EguUZu8dPDJcOnKFRtyBo6i5e+iE0kyvMA2u8Mznn1dePgXSj8R34E0U9anw4fbzLAiS+qmwSL725d+FM3UzOk28mJz1wjEn69xD1VBp1i+C06lKTOaRfW66AmRxJc+fq31ow6YNRD6RRtwBRKy83IcTW9Jv3yMg22uyf/QhK+vCiDpxAUadPcloA+zcu1ZlFekNtCmy0pfJvtDmvOMokHfh3Ln2S0yIE1kLQzSG9eR3hTC7swHFm6RD1GFrVLYDbqqtNpkv/cKj03tJoopnclrOYdBp1i+IDQTeT9L4lCpIjUw5LT+ulI4yln3gghlb1EcfxRQi6maR3PyBDa3J8u6vj9vawSYeop9OojzjSyssqIdKbOKR3VmbFEazJRa1rYZcOUc+mUR9htlwFieaR3tD8ULp+Jsd5+H3xp8Olg3Va1S2H574rhNLr2KQ3GqTvKYOZ3NQgH85zcg7rzx3nkH6iglb1EWYxBN1E6Ydx6dufmgnn5AK05+RYpXs9NvjoqrF0POpU+kgQAUFnlA7wzeNw6R3a6Xt+DvdCrO/aFmSdVfpHKOqZUnf6lNMIsRUF3WBdrPTu5bL4ouwCzoVYu8W3jaXTqFsW19VXVITS6wikN8A5Ct4bDy5r+nmkwwp8dmomreojRDUEnUU6IFz6zdr0aL6FWK+XwDmTdDzq9AgNwvxBN6d0YFcxWojlnL4vQyWdZfpumMDTqGOYcepuVukdNWUwfQ8N4Lrm8viJljYe6bCvTr/VR4iIFVdUA4iSfmhQ+vZn0Oo71/R99OrrbbzSz1TQZbkRonob6COJOrn0W0vk8UXa1jNs0/fxB9p4pUPU6bLcyOC0pktlAJcOsPWAVrJJv7ZchlbfOe42Pb+znUD6GXqEZmQI3KQylg6Ikg50VwXrW8+wSHd89r8WfulHj2qjHkijbmacll7klc730Com/dQ9wYO31BltjV3RA9K512ER39OojwRhm5Q80gFi6c0gHVGZMlP3zcZyoc3jQAuBdIg6ncCPAM6vX1QRS68jll5bPtCagFn61g/IpNOojwQB+1XG4NIRmHTszU1j6bvKOM++O0BJJ5AO1ukE3vy4Lb0I+viiDmBB55au7QaN+lEwS3d9rIdU+hl63cXcREFF55COgx+hYJReU6r9UE9kuboq3dOOSWeN+mw6gQfMPHXHpQMCpH+MS+/YXiKPm6LvEcsgfctZcumnaVU3L1G7lUrTpKuwqw6YdPbNVfv1/S2E0sH6DDqBN3fQQboxIqU3IDp6S2SwuapdnZmAS/d8rIdYOuotR6u6GUncpARMlq5kl973oGxgR51BemJNqwDp6gvaqk731c2CCwq6UlDU8e0WwFDSjaTHsC3JwUmpdq30NiLpqI0kjbq5SIaKzi2dfPKOS2c/RuG0pr9ViHTURpIeoTEPrq/cAG+A+aWjmq5tR8G4Duu5F5xzSsejTrvQmIfq3aDNROn4Hpux9O0lMkVMbjJzN7lla9uFSAcuLISo046x4nF+EoJu2vgOznmkry0JRtKZrys/9y2zdHbrP89XJKTSNpLiCd0I2kZI+sk9pezSJ0BJFyhd/c/CJBp18Yxe06WXLnh9polVOjjXSX+ojF26945WYdKBc3fH0aounudfAGumSldxf6afPDm/nF06lPRB6QCRdPVf9+Um0z7wInFeDUHnts4ZdI5zM0D/nPRgttm73YY+Fulc1s9XQtTpm22ij8AqOaUDBNIPM0rv6F0gYV2ccXq0pxWTzh/13+6jr7uIxHVFF6t0QJR0YFcpSGfpS+B3oBWkI8ilA+fnKRLo6y6iWLwNjImTrmRfm+mcXyyRxaUx77JV97Zj0vmLOkR9YRJ93UXcpZYuAdJx5zzS++9Nl8jj4FGPRPzNVfsN/xFKx6NO32wTwxZDRRdc1HHp+BGKBSlZ6LjUHQwNppxX9DBJJ7D++yM06uIaTygx6YTWcen4EYqVpZJghe55ByyXfm+Bc4N0rKizW/9knpy+2WYydouvqkyW3sQnXV/S2VoNbe01Vbr6j0emh+bQR5dNIxyCjknntY47B3TOjaXDTbZ0iUx7Wgo/OOO4tL8Vkw7wS4eoPySnVd1Unr4EykiiDrAN7oag49K3l6RkyVm6f8NJqVaEKdLVZyHqd0DU6be6YNwfuwy+CK2zBp198n5yZWlKMNtdh7Cadg7pPNa/GIi6M426MByxoJNHvQmv6Lj0zqpytDQD52Z0u+l2xiX9iOnS1V9ro+5Boy4U77evKImlA1jQeaR39N2rL+m+Hth6nMP6/nadc+HSgaMrZTTqJuD0+CUlIype7fAjJt3Iub7hDEdJd93byiod4JOu/vXhovxpNOomvNSiJLWOYXDOLh320tFXei7jI4yJNe0ipEPU75LNmhoU5k+jLgSHNyDoIqRjzjHp3VXar/TCga90IzeLb4uTrv7xXYg6NBWnzUMFMPHVj5WE1gHcOaP0RqOSviA9S446zuBf6ahNJCb9GCadM+r3SwqnxsIYQqMu4O01uN9gunWVHp1zAJwPl76uVLfwPi0QL+nhe1sN0ttMka7+dk4ajbowpPsPKzlQ4WDKOUb3BsS8shRU0pOZFt4Ta44g57h0DaF0sH5/+UDU6X1GIpyevajkRsWIVjjmHF+OA7p1X+lQ0qX4wvvTfe1c0tUE0jW/VMWgqNOW4AKeTeZDxYvSEHSGNdhbQ0v6sMvFbo/2GJwbTsMKkq5W/ztXF3V6dZn02WSVaOtKgG0aB6xDa7DxSYx76d5vtxpJFz66A+rTFTH5BTTqpCzbfVhJAGHO8e814FRlmQQdhNV3lgIrxm0isZV34dI1M+YWTo6N8qfd/8nuN9xQEkGScyzo+pI+J113JpLhIKz9hr4j5pB+elFMdgF96IMw6BuVxBA6xw7N9MJJKTgex/gqG3R+HuLcZOlqNTQkmUyvLhPh9SQEnRgO54apO35HeZduWzU/h6mk7zjSis/dhUvXwNVl2v2fCLs3IeiCYDDOU9FPdlYWS4IHn9d1Ms5hdS82d8eCzi8dRf0Cjfr/7J1VyFVBFIXt7sLATmzFxEYUC1HsbuxWjAcTFRUMxMIARREUES9iX9Ef23vVa1wbu7s79hnnd3tcZ8YzHt/OWY96375/7T1zZs0edyo6gGPPJrLxRua2+MST951pl654vyXphm+q6o7M9Va/OqBsMGbMjWbN3uJByByLO0F/249auvU8Vy1MvGeY8AaMzqlIA+hE/UG3usGYMTev8zz/z8xhFXfsmEhKqV7yyLhObXSErrf65T6lawazh1y8t/d/maPRCfqzdtzSeZcOLZ07ukvoaPV73eRAksDqujTk6/+EnJkLn9uMLpJS4k0Hh136UGrpHo3O1MOjS5arFgwk0SrFrHfEC2SOHHxO+sWcRs3Ill4eh8KmGnNWMPe0jGOr3+pWIZhSoFe2Va8FMZQn5ntszE+coPtMyvBznlGYmTGBjlYPLjlplYzSkNv1ckFcz5z0klq6HBqIo8Q2fr8GPndf3XEtd3tIhWBKgU4Z17/a7k564IRc4/MTlJTKmjj9+c/wc8qhnwG6CXO0ev8SwUASjZLPBKPr5EAcbM7MGfoxXfi56KqzeqMzc5dW3zeQ7jMGl5xUarx053ZvYuTIXCIndZHhZ2rpmZxa+iEPRkerH++fL7jPqDb6hqdb/gdyYG4v7ic+U1Iq8Yoy3GeaIiY/g9GRuXur082H4JKTStnn7vROnJE71/YTu459/5mUqi2SUnCf6SMwNzM6Ut/dJl9wyUn9fsMWj8ABuY25QL5r14lpTSvnk1NH4GHd9OvPCuQefI5pivMDG4pLTvQdKKBuV/k53okzcmSeCP2oSEopws95p14Dn3uETj9vXaNVvbwFs1nfBIKPsb8r1ZJPHkgDcm7nxJyRkz62l8eqDuHnpNTS0efI3NDqB3o1DG4+OGnYHGPOeuTo811Cb6mlq5JSqcd+ZObq3Zox9Ye/LjkFGcnflGHsJ3PICJyR87Kd+7mQSEopBomlX8zIPdR2KPDnelUJbj6ghs0G2qa8ETna/Nq1N5SUovCzfFY35Z/h50OE3Nzmu38T/N/xywmx7r9uPgTQfx8C65W4nvkJyfzaN6ullxZJKbzPNDF0iJn/FToiR+zHowmxeDx2o2/Z+g2qB1b/Yzakp3qOxAk5lHYrzX6NklKipdPlE0hKpZrw0QNyxL47HDkVF4o97pY/uPlgV6Yxr4m3IWwkzsiRuUBOkuHnAk7h5zJrD3lDzhJl/XT8l072LlszsLrd6O+2ewDOyNnmWNoF9ENvuupbujfmrONRYXLWw+lk9SAOzSo8/rUpbQTOxBk5iZGL07PQyKrK8HOKGUckcUaOzJE4Knz1VPxI3KaLXUuT1YOMJA+B/brdgDgiB+ZY2iXza8vFseqvcd8p7Emp/cjc3ObHryTEjpDs1GMtuv28+RAEp2R24vV2l7wROBMH5LZ2Lt/Kba0ZE5ljHRA3trlYu1nEAfu5riWDp1g5JDXuxXZPvAVwJo7IiblMvH3UhZ/n3z5oEQfkRiaXxJF6LHif8TdlX/pKjdyc+Q61zQ8ePPcz/GyNiYSWnm5G/CAj1zFXm5xxI/XDfVpaceggTUFKPpSNbsSbgeuRkwRysvHBuzL83Ngh/Jxm9W4PdZ02aHaTI/YHQ4L3GaXyzN0KzI2QY2XH0k7IBfT+zdUtPftKPFDzYHKkHupSJMhIJj6Jv92QNwNH4oxciLv5fkuRdr8ec8A3FwedEcBZ7vfk3Ml11GP3Ozeij0LBmw9Jaq0w3ZghcSVyruxihbb/Rk9q6Rx+TmpPSiUAcFd78sunma8ee6hj5SA4JSZyfmLiJsjR5Xrmom630ISfC40/bo78eDgSO+JC0uo3RzaUGcl0frb68DkAHIXAkTiv37CyC+QWyy48+RncVr7FXhddHBdvoT+kw35kRFayOn0A9vUcyVQTPu00Aa4jrq3swsAJPRLHRGZ3SEqd2YvAdbJMHlJIhf22tHqazD62+rAFOw2rOrZyLOxY2YWF996W95mcJj+nm5ywDYlrF28hnRReb1OZBsH7ezp0ltXPd3ogDi63H67YkRP0h80Sn1zMBeHnwqtc8T4uRAcqYHKUE/Z9fUv5PCOZdAoZ3Rw5Mndhc1JYtvSKFFzCY9WpSBx5C0FdV8qBeveqrURwyrdpivTjv/wdOJpc5XKVzSXKzXEMP7NmXdTSZlFdZ+Tm2C/4fGRsiilfdxpYHImTHIizy9nkIsxySyalqKXjmMjJpzcjbRBtyoG4Gff4YxouZ1ndp2mK8ku/mJtcz/yakjlB7y7Cz6oxkcfVvLmuQys3ph6/3qmYj61OR6quiOvr+t9tnggx2rWJZvLzg83H/6Iw13Uv3OMPu9Wt49vhchnn7jFGTmLkdubXuJkL5tv+YL77vGjpqvDz+d164ldgi2Ymhn6pd0nfjoxNN+O9C+K4XGfmWNidbf6T2u77/arK8DO29EpjrzqiTtRlruuescfvTMpf0acjY4vPBeA64iQgjsgPMnI2uaTXullWDj/DmMhwWP4QRbvy0OFf+gMl/Ysp9/MD/DpHko5UEbm+laPLXducFGn3s6XXcWrpw+7tDisUjcSIrDu5ox6/282nwanhcxi4jji4nJHj+g1tzt49L8dEOoWfk8846exx0coPG+sv2M/1KeHLOZKpxn5SAmepieuRk9jkQtHw3d/GRMIufUxEgfwIEvWOPv5gsC+DU8Nm65nrXY7NXG/zaDQaHqGZ/JxjrYPRo1dPg8kNpXL7YV8GpwqNeWZIHJdv2MsZuSDOyElHOPyMb+TPuxmO/qkIr968yYn6fR8Ol0u6aSEgN2DOyHnNzt/ZmTkjvxK9IFu60xv5KcYdBuS0ejsnmJ2z9L+xH6bhctV8Fpwqs+wLAP8bcWzmbmwuiF+5cjnaQhN+Ljo+wUb8SiROrDXyDP7IvYGUphBW98vEqaQTv5oQ1xd2dDkQv3z56tUuzdWTnwuuDF9hXU0g5IYyBz+iiZWR9FGaIuOqL4zc1OXIXCBHm0vmlwXzWA/NmMh598KXLf1EfuTc+T/0/8iz1W+3L1XAT2mK5BM/AHBDl3Nh5yU72pwYWsCvRiJXblJLL6IMPz+6Qr+ysNOCHZCb/wW4At+mQys/PaufcekXNXLcoyFz+OaqYC4wEnKC/tgWfrZDL7oscvWnTrPLvaL/K/Z9vfyUpkg+9L2ilYPL3TVz/hpjt7lETko4lZiUyu3grZzTfv7qdOj8RWf98x+ADvzjDiJN4Y9zl+pzFcT1rZyRkxA5yd7LE4knkCLnfh6ripYOjzmsuSX+LgC5OX8T8qEL7cr6Zrhc2iVkdDOX8y7NwObMnKDf5MnP8EZ+5snnLOQXL11SgfYO3pH6w58Tp/yQppg/zR1xErocP7mqluyyrku1bma1dBF+hmPVLIsSTh0m5H+RIX4X5K9bY2h8kaZIs+SlljibXLNk1+/S2ORCp0+fPtVWHKs6T34e/jB08eTJk5dcysz9OvKhO93q+uMB3h/knfdPFFEQx3PAwSEIwnFigVMRRREbgtgL2MWOerFg18ReY+/1B0vsJbEb6/2k/qTJJjbQaM6IAna5O+QOMSQmGjXWeavwlLndfesp2V2/fwG5D9+Z2Xnz5m2bK5zKcWAXYy7YjUHMr774bfi5QjDd6LYJSSZ5udxto+L+i2kKw/w3TMTZczm1Oc7lQJz4/Kp7UqLw5uc9nI1NzPCZ0adP/i+OWLduv0yR41wuFdklbU6YV0AOGiQy/NxkX4GNXcy2Z+L+KCOqaSvNr6Gpf6gUmVygFSOJ/BKyOUZ+l1ee2JrIdiW2F7xsMsQa8yXIZ7mna/9VTlgTKE0cI2f/SruDkd+7d+/FLuE1kT5L3LYCohfCYoUvn33uyBjNv8oZtKiU3eW0GUPrN2Rz3I0pQ06Z300nX+kJZPi5Okrpocud+fkFHoTIywHPzN01nZ+m0PBuCri8dkG+y0n/TcrmZcQpch44r7y7s8uHnyNRSjfOK8j3KPw/IB++NPqHU9pofA1Nzd2fvYnsQNyzzZ+IMIfbwbllw894TWQV0x53PosoeNncH4lxf1BUtoZGo7sp9DM+IOBAHAd2jJzaXLIb84M4RZ59zyH0Rr5f5MKd9pyfYgLPwh4kw/MP4Yi1s4Z3U7Q/ToiLmFyyfhMo4FDJTolnZz/PK5zkefg5cNvmdC5HSkLspbM9W41nH5ek4d0UAeveXxNAjgM7Zi7b5oCcMH+eZ/E4/OwXcfiYI4cDAVmZ5L1I9Bj7oOEafr9r1lzUexNGfoOpAYebMTSw8y4Hnc8dQ9/IDymflDJs3OcmyKlyGOQ9ewzfMa6RZo9Y/Ve+uYZNLhzYWZA/EUCeV4YcJlSeu8o3P9OU7jtrT7GTs1qtnLT+su8x/sy1mp2mmLn9mpjL5dv8iaDNKXJQHp6U0gWd2lkEyHlxTPqX3K1D48n7XRo8YjUsLpUM7L/Vb1I2Z0IOyhrZp8Lwc8uty9OtFcRVGntM/2HJ2mhNHrHqjr57LYBclPlF72wOso2hm5/BSzqd8cgBO7E5lhfcGcFjEejcKHJhXXvTFOEHSylxjByX7F7YnBCnco2lw8/wwRYydd9LzipHUui9Z/+oEC6sa+9RH58NX15j4qK5XHJOAvff8hDyK1eeD4KU3pCk9JqQ0v0H7ClxIOZs+hP2jF3cnFENNThNUWtvqSjzm4i5zALuHmYOyEFZGeWbn8ND6izc6eKsXsi74l6YPExTmLV2xBpw5AMljgK7QMkuEdmxzbMx8isP7OXDzxHGs8sLEcZK8DyCj5UzQXsX1msd+I05EKeixCly1IBDTVfUc/WI/NWj/MJJP1J6V5P5yCBawFUKegCP2VPyv/wL2F5O76mxlz7069+/lnA5PkAVjOx3xG1OkWfl5lu52T++0s1tt0xABVwleR6Dxwf4OZYwjU1TtJ+LieNcTpEzTcDhrzTqcl4PXgBk53j+WLV7/zMl0IH7R5LdyMMqcA9LMg/Q0G4K/wVvPDJ/huo32Tann2mgCpE9h/Ao2kVSetRkCyrgKsfz7OAtyeXTFFq47zJzNS3YPX6YI+RCNr/DavNXuQVWXg7Lsn5ha4cKF3CV5HnpGt/FX1jXyksfMOp+C5ucuhyIo2aMrMj+HEd2W3ln3VkybMQQqQKu8tljFQwZPLCbVnaC67Zuv4VcLmFzVLPLs/nD/F8BuN2ctfLFyQWfXzQxVjO7KSIXlSLkHuq3v2bzLFLA/SquMplj9uz0Bw1O1YjV/Ra+wzYXqNmZbI4/01ABpzCxnuHYh8aSW6wamKYw7iwF0FIlO7U5e2THgR0EBZxSJc0+k1xY18D6f99TH3AvBn+leRPZKXKwOWdVukSoOzRyi7XBbg8u/0c2z1KwzdnKvOJpWjhi1c/4ettTYGezuVjNDshl27w8e3IKDQiOpVFt1b8TvNkaanMh5PgVBmpz9sgOjXYJ4E57eqYlg2jHkGK3Q4ngucJpPfkL62puxgau/PSTOIvNMfKnzAXcKxsnjtyVmTFs7Ipe/Yh69V0xYujsdIfysDszaqv+iHXmakbk0qfmIjYHiducs760DFvRq01UVExMTMOG/ePi4uOi+k0emmlXGnYufVp3le8ED9n8CTGnTVeRsxVcwdF5qD+wucsyok9ym9q1o2IAeHxCbKNGSUlpaY3iBg8tdioMu9NSW923WHVT90vaHCOXaMdgl7+SyObO4jG9+yWGtakd0zAuPjYprWfz6OjUgQMHpqZ2Shg90qUs6pwbbrH2ILdYVdqhCTr0kZTsrMjFszmO7IxFu92yrG9yYhjYPC6hUVrz6A5tzR27dW7dunXnbh1bNO0/sVBZ1K1TwspeWFdjh0a36p2cyE59Lot5boF4aC9a2rsfMAebxzdK69ShS8fWPWo0rmUypaSYajWuMaBVz5MlViWJc49T807w8INvkc0ZkD8RRJ4t3+acezxhDqE9LhaQm1sPaJzSrIExoipRhLFOzZRanYdnWhWlIWvLbrGqr5bz2fCNMKcTcPg8jfZjGMabPTF/INGC41yneycnh7WJApv3TDW3rmFqVieiemR4UDWioPDI6lWNNWscURZ115gEuNqmzlusEbvvI5uDBJDTDe2AXDS0U+RZDyUO1Ehs55n3T0jq1LbbAFNNY/XwoLr1QwzBIIPBUL9etfDqEaYjJUrK69yg0Wq9xapf//UZQi7wbS7Vj0HI6XiMqBwZwBxKOAjt0eZWjZsB8rohBn//wNAAUMvQQH//4JC6QU1MJ9OVRN0+niwKVuO5S80TvM3RpAQzc5BYOs/KlT43H8L7HJh3T23Rw9SgKiAPDmwZoK/iy6tKFX1Ay8BgQ93wrmeU9OXGFU9urspbrKELwOjU5sItOPF+DM7m7IeoXOGyXsmJENtjuw/s2C7F2CSofnBggN7X18fPT0fk5+fj46sPCAwOqWae57QqR86Rtdu2UuG5y6a5ZRNw+NscP34r/nGejUN7boE0c/v4voR5wwTCvL0xsq7Bv6UeiAPusr8SwBPs/oaghcVKsrp7TncVLgoOXvwJfZsLnK4IzLSLpfNXuILD4vjgDnuA01JbtGsfEV4PbE6QV/gReeyhwQ2W260KkiVRhecuG1ffFEYu0o+RqNppBSct1zAS3GPik6LNPVII81CwOUX+K3ZC/WimsqyeprrtoZH7Poq14DBzOekcWu0MgktswBxWUDTv0tVkjKxHetkCvx+YvUpApKKszg1J5M9dVLRS0GejAyEX7cHJaMJlsU27cq4xvfjg3r0p7GNsUpcyF6AeelZRH+tFqmvGVt/59j7twIlUcBQ5i83ZQztAL5n0M7h3hIoIfjv978xxYq+6WUkFPKe2IXjfU9/oXSV8ooZ8Lieds44+OjP6JIfB1xoE9xTy7YOYI+qBR1xWBck+MVZVKwWNxwA5QzaXqNqz2fuuWHBblTc6q12A+lZFxXeOH4JXTYdGP+P8DcaqHadz4djOHtpBXPFYktHB6AOasSVGnS5ipJKgW+2q2jPWfo1YBceeztlDO1bO7D6J/AseZB6BbfRIZ1BU/Q5ZfUU0GYJXRYcmePk96WyOkWOb49DOLo7slOLXffMVMNOvFrrQrSirF43pr5pm7LaX1OYy0zmIpnOvLiw5xvf9+eQiXfctJd+NijprI1ZXy6ttIfMfMyKXVbW/kMWDKyK7QePL3mdi7GqdVda4HAdHrOpoxvqc208/zkGCxys0tgtfZaDM82X+Xq5h/fjHHOj7TAwyKws69BpGq+PVtoh5H68LVHCo185atUM6l927HpHMb36mTy4yqJuSTtq+s3dmT23VURwXkH3ftxJ2ytIAGgQS1rC2NZYdItBSUEAUFWdcZgSr4/5gdQbR6YOO2nFqVXzp+OTIHWUcnelYa51aFxwwIQnQ/BOe87u/5IK3SW56s1zoPX9AHvjwPfs9PzaBP7wfpB703PIPFLlT106RC8ja6acM7kPnnlyMELhK3CWlmQtbeD62H66HFj77Fc+1uxPOb1WdbyyDuQ+dPfeNIV0o9EqpKR32vfKUkj8pGPTR76RQ4+ncMXIwD4ZzLqYDdMzjoGC7J0ggdIXkoDOm2U7Jf9pWc56PnFecO77nu36LFZnfbi/xHXsAD8KqaujT2YLsE4klckTqh+qbpC312Fd/+s6tcO6QudhzIsb5owR6XXSOYOhBz5slB53RzbRjVEepS5T6kzoecgcfJjrI2sWncNSYxfs56AL/WrEfWSQHHXYk47sl/RVrzgu/UuaCe+1ojsP5hphulttKD5PUQJ0aY15i32INk2ZUD3jUTHpwjsO5o76r+BSO/7caPuQu9Oxp6QkdbLqWfYtVmoeC486tfSu07/qryyYcpnAizDhWi0/q0kRuv+ZxYMy2lN9ivfsNI485he46nDsYqomwuftp6x1nbMJCuqQmq5z10bdYpXhSsOzdFQfInTx9zEdOmYu8AojHW4rIW2yRYQI7ctnvLkvTtmBxSivNxanA5ze+dera+X1XfjQXnbZzZhyNL4DJanaqwBI3UIIFGxrZkcxqk+ZXrImffuMinIMJDOc3YZAq1pidM0c6m4UPXBKkmLsTYywDR9SS/GA9+PHrX/OQ87J211cAub0o8VI/1K7ExZkoIbEw6HUdI8VzgmC4IynNt1jf/MD5jjOY63AuvlSjV1cBuWGr5wyk70KXKBIetJp021sGo5H9DUn9BxgGYEdSeh+shzzzkwOdCx2piS/VANMmsDabrD1zi/MDY4OTxd2C+9aRvb0XLgx+fnFivn9xrsdqMm9ZDEZw+JJgD9sUjRLckXxCB8hdb0s4/H5FHHMGzLils/bp+ycuDg6fPn3s2P34BF+nG8MK+LIpvDBBXVF8+NDQyanHlhC/vseqMwP8ZT/rHg8FKyW3I5n61uqtmQs/107N3fIccRgtuh79/MWlhWOT9x+llyGLTsCdwMZmVbLwtnUAYA+Li67rqmxpLyg6VBt/39FXTg8PXhztn+sxbRs2/efycZuiU2o7knd/uf01L2t3+uA137XTlox7+4/Lhi1Tj35iafjY8eMPxOPtV8ANl1/hFGhBVXujEo4RJLkBPTg8LDI6vaRaUd/Y2d5aVVVcXFB6uDbzgaOTC0tj83NWs8XoF38vyW2K1JE1msI5brZzrp3v229jkooC37bOTQwuHDt+FO7EIW/AjbSLq1rbOysas+qb2zoyClMg/REMPTYqJzWxpkTbplAr61uyshorKjoRf0Fp6Yna42cee3hef8ps8AN4RjfbKa3FqbtfWkbml0V9vyKcORI3mK36gaXTxyF0gzenvBE30m6pV6qbFQ1N2rTk9Gi8RiDYvYeGxESmJKYnl2i0KnJGVNEM9LtbkD5hn3fvK8MDiwDe165+c+SQtN5iTXz3stvhnEPuZhsOU7Yd8OiTx/D7c+6wcxWoG3CrFZVw+FXbpUkrSa5LxxtiYXB1RBh0cpEiJi41Oik7vbwOz4iWpGm6AD+hT6Rf0QnHo+87+dTEyCnfPhPAmJ8qICPWqFhJSD3os1++4jEXfvqRYy4AOLzO0Dc/uLAXOOgbeCtR3KoODRx+ralLL8yGW6BlCZG5YSGhcI5AEPQAuD4THhKWGxeZWpYCV0ThjGh2YXo50Mcrsggf2XdnNXYWH84889TonMmy6TPwzKlXsnDEKpHbFOnnL1PkLks1RC6YOV/i26cWx4axGqslLp0Ch+itJrxB3DXlhHZKWSreAs3JD4O7cRG8UzNODlIEx8JhuZj83By4IhoJd0QJfqSP8IF9B6An5CuqDt879fAIhnjfcIennBSS+WA99NWbXwkP5zzkgtrtoCci8UnM0UHiHHAQeGUb8EZnTnADbKCdmx8TExYWFRJ+T7BQ5vQgBRwUxEuS7BnRGBv+BAI/EYRfl5yRptFWNwD5lorivN6ZgTmTT1I7RjeVJZnbFE+8vNe1E+iudM5n7pS4xTQ3YZM4EocYjsDrmyubVF1pGaBvyhvEjbCj4BRoeCzchkTk9IqYIAeP2PGSZDA5IxobDvhDED/CJ+xTUPZAHjWPks9qLx16bEC/Y/E+982H8uCshiQ+WA974druIzIOV+Fc6Nwx8k3LzuLFYYzitXaJt8OtflA4AkeBs7xz8wE3oR2KtCMi4DZkIL0VKNToIUkwekeU4Af6AJ+yj4SID+QLy2sy0jrA16vrKwrip8ZGrFub3sXOmGfI9dAcv0sdFuP43XZBhwAFxHP06juLYwtQiduIsxJXKuBWPyg8PRuytVTkHYO8WdwUNlgAD7hg9AgfDPlT+vSCMKLPpVfDCXhtdaVCmVV86JXBfquX9a6XyPXQuHOrAr9goeU5RS5A56hx/dhpSpw6dSLxJq2mJLkcFY7AOd4Et2DYwvlz8Cl6zPXA3bPgoapXgeBbqvJ6x0d2LF7U+/ZMK3zF6veTggEvGYD5ivBSTShzZpkl/gBHHJ06K/HkukIOOPjze+y8+bQ9Cx/Ro+pZzefnoOKhqkfBNzU017fnnRzH+O4t7voh7ikn/1FP/XDNAXMRvh2rM90c9eoccXDqbSoicazAST2GAif+nPL2unHk4Wo4gAfFA/gyVvAdkNN3tx6aelBv8k7jhtkerCIdGr+WbYGvM9+40DkYT+fOmTOb2z2Qq+8hjmG8SaUhURwlnh+DLp0oXECu5nny6O4p+CgS47GNB9y7wNHXV2XODvSZveLm+3pbmvy9GZv03gqPuaPx+bqg3iukbtb+pUlSndGH1EDjakWbFvK2wkRssuXEEIlT4MILMm9Inpb16OkxwoOjJwG+peDoDKZ1nubObPn/pGDo43850LmT+vx7J8wZo0k/tkADOcnVMY4T4hjGUxMwilPg9HK7P42A5wTPOnrCvaG58fCZh6dNBg9jx+uhcFIw1Y/v6j9pBdwCjw249O3UrdsC+YlS8nQeR5w6dSrxu/1O3K54TvDo6Cl38PPNFUUnB3q2PevmDXQz1m8dmvBnfnTn2gAf+o9/ccQZg2lxEN16vC2Qd0J11qDSsF4diLNd1WD06ZLgzRO8nTv6eYjv1Q3K1qGZEZC757gzVv9uxga8rbssLJ7zfTtlznAi77OLnA3kjd3qympNSU06xnEb8QjpEd/TwN3FHfO6tI4mRdbhkwN9npM7zl2gQ+O3zdi4R65epsid33/k9WSo/cnYI3n/EidydOstysqmjpLkXcRZpy5J4nscPQZ45B6JBXwd1O9t6qrewUWPFXGMaQpPCvppMzbgje0VPnPhTRnKnFne6plY2C3yzsZ6KMjTMvCxRMzcUONSJ05tD/cc5F6IaV1lxeGpiZ4tTyTzdF0uOck/OzQp5352qHMhBfrvDCLHLszkcSryUiJycOsYyJOiU7E6s3l1v08T3eQei3VcXCSmddC2aWouGHp4WmcUjx0/zexU4GasH44P3f385uVdzJ19iHxL5td/w+Rtp9+erhORZ4HIcbWNJOtsdSbBzE0I9wiWO4Z3dPMabUNW0Wz/jvikDl9t89dmbNJ7ay51zjVf+cz/YJYheYOaPJ59zp4TeV0hcesQyPcjcY475vNQv6Obp3JXFmBSJ9LL44jV/pSTb6lHPL5xmc9ceFNmY9Ost1doJ0i6zokc3DpN3fYlcRY75Y7hPR+r9+zyjDRVZevQuF4nNpfXH633y/GhNz+4wvPtbgR0BvJ17K7H0+QNujCcyMlm274mztXvNLyTbJ6Ve0vRTL9JXHDfGixQdPh+7hLy/nUXOnfGfMM0z/Vaj0CrtbvZLvLcGJtbl0bLzTNunsqdRHeVunRq1GoRAZ3p6/XHRZInTBxzZwGdD339e8Y6Qfx6LeTr2F2H5A1q8hoq8pADIXKHcsfonqZVtA8NiCjh4Jy9H+YuYU/f2K1zVwcBOeSXbhr6xo5xoRzydZK8lWfTSA4i3xcVuftVnC26k9q9q61iaHz6dsevuATv83f1Ax/d4utcwJcs69e39IM0lOex+Tr16ympByaSO8nqiNxzIklSp1F1F82O3GZOh2cKmn08d4keWaX9di6gu0ziLq1f314c3h3KG21+vSyB1OShwQeSOGu7knma1KVp1Udm+2+vP4tnCsjcxWdRPfA54wpP546vQFLmf5r7KfK8IuLXlXv9+gEVOY976C4v36EomB3duZ2hu3H0hG/nLoXvrjlnzg/ol37RjZ6GUM4hVzeo2Hw9LpeKPPBAEyf2Py+PuXxDce8jVvexM6bHOn05dwl+bmOF8+17E/e9B+Iu2eyPnQFADipnszdovTVgKLfl66EHXuQcdvxMEpO6KPTypGPTVDH04CmLu07e2J/py7lL+fndOucJnb/7+pt14vRRe8JOsjc2lLN+HZDvm3GKx+RuK91JCVfdOPRgz5abUtc91V6p8dXcJfbF6yvCnfv6+h+nxo4hcpqwN3Zj9laHoTwX8/X92l33iJcPi4lLII06VdbZ8T731L65GK/0WTP2HR0voDs5I/TbqYsLHHKSsHex2VvuQc/XnRrN5dngjjmdqqV3rG9LOHU8U4BzFzxT4PXvXfLfWl/hxXN+QEfk65eYnrHJ+++9N95eo5GEHbI3DOWxd1Ao51sA9fIY3ElOV6KtqB3vc6NNx8zd56NL8AGfmFdcBnQq9M2eMdKJocixRiONGKzK74QSTXhwJzldXUaH8ixgF+rkma3xYoVPLsEnnPvVxtxpQL+xvrwHOZblKjZhZ6vyOyx7c5nTsdi7ALvwiXuPb+Yuga8b+E+l8qHfuPEbT+UsckzYsdt6J1Tl7uV0+XGkgtOoUe3CqFsGfDJ3SZ7+hwvoDoQORjN2TuVYltMa7Q7O3m5tFDut4AC78uzDkMkLmrv0wtzF20vwQa/9sbLmQufXbmxYdyEnzTctW5bnhsnIHafy2KfDCq48WdM4NNYjBLsBluC13j4PXXJ+jQrdEfSr136xTuyO5RR5dNkdXqO58vIwfEXstHCH2P5gj+u6ndmZamzw8nno8Gd+t8dzB0L/ZWcAkN+7W+VpNdlJBHmsjNx5cMchnA27pv4sNGddN2Pz1CrvNmPfNCFzxwH96nXTwOTR++x1OVU5dmLurA67iFT+f9gNjIC5izebsVFPX3IodLSbuvkFHKvQ7htRuYzcfezYpiPYO1pODlid71Bu9t/n1Xf1Ax/ddsQcoV8yz9smaWyR1qCyxfI7b6jiKbV3dfaOmoxOm7H0BV4vST31oatXCHMedLAblv4FG/JSWpejymXkt9mvsWXy2vaT/c6Wqjb1mV5cgg/8zOBQ6NcM+uHjiDwThqcwSUPkpC6nyOVOzO1jz1C1XnC2S7c9U0XPQ3uhQ5P07s+kWONlcatXN+cQOd2KaYVJWrWM3FNOPhqxF1/Qmx31Zpm+oW5bM9bTf+igz5hbOvfV1T/6Brndt9YKQK6Bhitbl8vIxWPHnnxTwYx+i3Ewdxkr9tYLvIXn/+E5d7Q/T10kvRh2962iew/yYBm5+Ew+joxiFNibdXB86GSLd85D3/Pqn7cS+k3TxCTbcaXImzQZ6YkwViHI5fRNPPZYG/YShYOynbHQJXiPS/2Jl9f4Ql83j8Lym7391tLc1JFRDvNyeazi0S4dO4ErrElTDj2yY2T41E+dzvLGEnzYC9CX2cv852uWfq4wx45rm4wczCtqx3k7Ys8aesjET+QN84fUWk8vweOB7/85959Xjfphitzeca1LjE6Ik5F7Xu2IPRd26aBb0zq7iIk8f+7i8SX4uHPXOKET+9eesp8gvRhsssO6IyK/R0buaew4b0fsKYBdVTA7vf3/uctDRcpqD1+CD3zJwgkd7ab14jFAHm8rzLH9lk3WHWXkYJ7HTj+HIi35jKbDg317Mzp8q6/Sw2/1FU6vInMK/Z+fdANncHxKU3bai0mNxA1XGblXjH4Fx05iyjPUZx+07sG+uZjp4blLxMfMFQodkF/d6j8D14Foyl7RomiihTnZcJWRe8l29WZhla5EPQSDGGb3Enw7PT7kIanXnF+zjdHXft6cfuy+zNraTJqyN7MpO0Eurzt6z7iWPC3b0xovjJiXOZuOr8cleJi7BHkCQexHf7ERHeyvntnaorxM/CrNlrLTKk3uuHrZuCYdrd86imfm7K1ZZnu8ij0+5Jk7Y0/u0Onale93xmsLjhTl5eGHiO0wS4MqLZtUaXL7zQdGsXP1W9OJ8R57aO8bqvfcs5w5L1xC7762dtX81tmKiuLSE0Un2PwNJ+a0SpOR+8gQO63fMJFXnLX36CwPF3Dfu4j/jukKMl81nHtO0dDSXnCk9AgdrNCUXUbuS0PsXP1WXqIceki3SecuVOriy7bIt2Bf5srfG88+p8rQNme1FhcUY5e9rSuDpOxyleZ7o/UbHbumtV/Q44dQjGGioLKrLlp0Mxbv/lrgw+Sb1ve1iYUlTcrGztb2CsjfOkj+Ji9J+MW4aTs7iNEWf95nYfD4ULPKI1JPeXf1yq/mF76Ijkyq0TSoWxqz4HSIiuZv8pKEv4xL5PHr9mSYusLWrHG0uLokXfyINeg1Zs3Y/0ZCVG5ZdnIHPC6pbsYDQTR/kxce/WYUuz2jU/bO65ZNF9rS6uDLB5FSz35v473Xs8PDwyKjCzM01W0NTeRAUBm2XOUuu38NsXMZnQZCu3mktKsmMTVHzI4kCr3v1aSIwOCQGICenKbp0JQA8hQ5f5OGsYMY2qMr1xR/vrikrkssixOXygW+/Ub4XXdHhIbkR8KvJmck16Rj/03uskvF2NZsSBS5aZDeOHWhIZ2FLsa/BwXeFRAYEQs/Co9SFBaSp3TklquUjGZ05HBNYl0GOccYJjp/R+ghMfg2QXRKmdxylZztWq1JTUFGsJUaHgqiFAk9FFfzIsHw9SS5/yY1s+9YwOvOCQmRqMtg0dCD8Adj8vPhNWM5f5OkER/PUgJMhJI4XdJ/o5CoEHwwS87fpGkUO2ACTmyaLb7TGxobC0/Uy/mbZI3uWNwTGxtLn7kS/WtBEWBBcjCXslFQwba35UX/GNpBe1rl4JmdlAdicABrB+HJrINuhBKI0yOoZN77x2R1yiabbLLJJptssskmm2yyySabbLLJJptssskmm2yyySabbLLJJptssskmm2yyySabbP+1B4cEAAAAAIL+v3aEFQAAAAAAAHgCgWPUkZ4Wia4AAAAASUVORK5CYII=;" vertex="1" parent="1">
          <mxGeometry x="1032" y="464" width="15.5" height="15.5" as="geometry" />
        </mxCell>
        <mxCell id="W7hZznwjPLtyRQ2mr3Gq-42" value="" style="shape=image;html=1;verticalAlign=top;verticalLabelPosition=bottom;labelBackgroundColor=#ffffff;imageAspect=0;aspect=fixed;image=https://cdn3.iconfinder.com/data/icons/colorstroked/Ubuntu.png" vertex="1" parent="1">
          <mxGeometry x="1032.5" y="370" width="15" height="15" as="geometry" />
        </mxCell>
        <mxCell id="W7hZznwjPLtyRQ2mr3Gq-43" value="" style="shape=image;html=1;verticalAlign=top;verticalLabelPosition=bottom;labelBackgroundColor=#ffffff;imageAspect=0;aspect=fixed;image=https://cdn3.iconfinder.com/data/icons/colorstroked/Ubuntu.png" vertex="1" parent="1">
          <mxGeometry x="918" y="569" width="15" height="15" as="geometry" />
        </mxCell>
        <mxCell id="W7hZznwjPLtyRQ2mr3Gq-44" value="" style="shape=image;html=1;verticalAlign=top;verticalLabelPosition=bottom;labelBackgroundColor=#ffffff;imageAspect=0;aspect=fixed;image=https://cdn2.iconfinder.com/data/icons/font-awesome/1792/linux-128.png" vertex="1" parent="1">
          <mxGeometry x="810" y="570" width="13" height="13" as="geometry" />
        </mxCell>
        <mxCell id="W7hZznwjPLtyRQ2mr3Gq-45" value="" style="shape=image;html=1;verticalAlign=top;verticalLabelPosition=bottom;labelBackgroundColor=#ffffff;imageAspect=0;aspect=fixed;image=https://cdn3.iconfinder.com/data/icons/social-media-2068/64/_windows-128.png" vertex="1" parent="1">
          <mxGeometry x="1033.5" y="569" width="13" height="13" as="geometry" />
        </mxCell>
        <mxCell id="W7hZznwjPLtyRQ2mr3Gq-47" value="&lt;font style=&quot;font-size: 11px;&quot; face=&quot;Comic Sans MS&quot;&gt;Web Servers&lt;/font&gt;" style="text;html=1;align=center;verticalAlign=middle;whiteSpace=wrap;rounded=0;" vertex="1" parent="1">
          <mxGeometry x="865" y="274" width="73" height="14.5" as="geometry" />
        </mxCell>
        <mxCell id="W7hZznwjPLtyRQ2mr3Gq-49" value="" style="endArrow=none;html=1;rounded=0;" edge="1" parent="1">
          <mxGeometry width="50" height="50" relative="1" as="geometry">
            <mxPoint x="540" y="430" as="sourcePoint" />
            <mxPoint x="941" y="430" as="targetPoint" />
          </mxGeometry>
        </mxCell>
        <mxCell id="W7hZznwjPLtyRQ2mr3Gq-50" value="" style="endArrow=none;html=1;rounded=0;entryX=0.5;entryY=1;entryDx=0;entryDy=0;entryPerimeter=0;" edge="1" parent="1" target="W7hZznwjPLtyRQ2mr3Gq-4">
          <mxGeometry width="50" height="50" relative="1" as="geometry">
            <mxPoint x="540" y="430" as="sourcePoint" />
            <mxPoint x="620" y="330" as="targetPoint" />
          </mxGeometry>
        </mxCell>
        <mxCell id="W7hZznwjPLtyRQ2mr3Gq-59" value="" style="shape=image;html=1;verticalAlign=top;verticalLabelPosition=bottom;labelBackgroundColor=#ffffff;imageAspect=0;aspect=fixed;image=https://cdn2.iconfinder.com/data/icons/font-awesome/1792/linux-128.png" vertex="1" parent="1">
          <mxGeometry x="265" y="548" width="13" height="13" as="geometry" />
        </mxCell>
        <mxCell id="W7hZznwjPLtyRQ2mr3Gq-81" value="" style="group" vertex="1" connectable="0" parent="1">
          <mxGeometry x="397.5" y="650" width="285" height="165" as="geometry" />
        </mxCell>
        <mxCell id="W7hZznwjPLtyRQ2mr3Gq-53" value="" style="rounded=1;whiteSpace=wrap;html=1;dashed=1;fillColor=#f8cecc;strokeColor=#b85450;" vertex="1" parent="W7hZznwjPLtyRQ2mr3Gq-81">
          <mxGeometry width="285" height="165" as="geometry" />
        </mxCell>
        <mxCell id="W7hZznwjPLtyRQ2mr3Gq-8" value="" style="fontColor=#0066CC;verticalAlign=top;verticalLabelPosition=bottom;labelPosition=center;align=center;html=1;outlineConnect=0;fillColor=#CCCCCC;strokeColor=#6881B3;gradientColor=none;gradientDirection=north;strokeWidth=2;shape=mxgraph.networks.server;" vertex="1" parent="W7hZznwjPLtyRQ2mr3Gq-81">
          <mxGeometry x="112.5" y="57" width="60" height="60" as="geometry" />
        </mxCell>
        <mxCell id="W7hZznwjPLtyRQ2mr3Gq-51" value="" style="fontColor=#0066CC;verticalAlign=top;verticalLabelPosition=bottom;labelPosition=center;align=center;html=1;outlineConnect=0;fillColor=#CCCCCC;strokeColor=#6881B3;gradientColor=none;gradientDirection=north;strokeWidth=2;shape=mxgraph.networks.server;" vertex="1" parent="W7hZznwjPLtyRQ2mr3Gq-81">
          <mxGeometry x="202.5" y="57" width="60" height="60" as="geometry" />
        </mxCell>
        <mxCell id="W7hZznwjPLtyRQ2mr3Gq-52" value="" style="fontColor=#0066CC;verticalAlign=top;verticalLabelPosition=bottom;labelPosition=center;align=center;html=1;outlineConnect=0;fillColor=#CCCCCC;strokeColor=#6881B3;gradientColor=none;gradientDirection=north;strokeWidth=2;shape=mxgraph.networks.server;" vertex="1" parent="W7hZznwjPLtyRQ2mr3Gq-81">
          <mxGeometry x="22.5" y="57" width="60" height="60" as="geometry" />
        </mxCell>
        <mxCell id="W7hZznwjPLtyRQ2mr3Gq-54" value="&lt;font style=&quot;font-size: 11px;&quot; face=&quot;Comic Sans MS&quot;&gt;Admin Servers&lt;/font&gt;" style="text;html=1;align=center;verticalAlign=middle;whiteSpace=wrap;rounded=0;" vertex="1" parent="W7hZznwjPLtyRQ2mr3Gq-81">
          <mxGeometry x="143.5" y="21" width="88" height="14.5" as="geometry" />
        </mxCell>
        <mxCell id="W7hZznwjPLtyRQ2mr3Gq-55" value="&lt;font face=&quot;Comic Sans MS&quot; style=&quot;font-size: 10px;&quot;&gt;Pasta&lt;/font&gt;" style="text;html=1;align=center;verticalAlign=middle;whiteSpace=wrap;rounded=0;" vertex="1" parent="W7hZznwjPLtyRQ2mr3Gq-81">
          <mxGeometry x="27.5" y="117" width="50" height="14.5" as="geometry" />
        </mxCell>
        <mxCell id="W7hZznwjPLtyRQ2mr3Gq-56" value="&lt;font face=&quot;Comic Sans MS&quot; style=&quot;font-size: 10px;&quot;&gt;10.100.136.132&lt;/font&gt;" style="text;html=1;align=center;verticalAlign=middle;whiteSpace=wrap;rounded=0;" vertex="1" parent="W7hZznwjPLtyRQ2mr3Gq-81">
          <mxGeometry x="25" y="131.5" width="55" height="14.5" as="geometry" />
        </mxCell>
        <mxCell id="W7hZznwjPLtyRQ2mr3Gq-57" value="" style="shape=image;html=1;verticalAlign=top;verticalLabelPosition=bottom;labelBackgroundColor=#ffffff;imageAspect=0;aspect=fixed;image=https://cdn3.iconfinder.com/data/icons/social-media-2068/64/_windows-128.png" vertex="1" parent="W7hZznwjPLtyRQ2mr3Gq-81">
          <mxGeometry x="262.5" y="132.25" width="13" height="13" as="geometry" />
        </mxCell>
        <mxCell id="W7hZznwjPLtyRQ2mr3Gq-60" value="&lt;font face=&quot;Comic Sans MS&quot; style=&quot;font-size: 10px;&quot;&gt;Bucatini&lt;/font&gt;" style="text;html=1;align=center;verticalAlign=middle;whiteSpace=wrap;rounded=0;" vertex="1" parent="W7hZznwjPLtyRQ2mr3Gq-81">
          <mxGeometry x="117.5" y="117" width="50" height="14.5" as="geometry" />
        </mxCell>
        <mxCell id="W7hZznwjPLtyRQ2mr3Gq-61" value="&lt;font face=&quot;Comic Sans MS&quot; style=&quot;font-size: 10px;&quot;&gt;10.100.136.121&lt;/font&gt;" style="text;html=1;align=center;verticalAlign=middle;whiteSpace=wrap;rounded=0;" vertex="1" parent="W7hZznwjPLtyRQ2mr3Gq-81">
          <mxGeometry x="115" y="131.5" width="55" height="14.5" as="geometry" />
        </mxCell>
        <mxCell id="W7hZznwjPLtyRQ2mr3Gq-62" value="&lt;font face=&quot;Comic Sans MS&quot; style=&quot;font-size: 10px;&quot;&gt;Radiatori&lt;/font&gt;" style="text;html=1;align=center;verticalAlign=middle;whiteSpace=wrap;rounded=0;" vertex="1" parent="W7hZznwjPLtyRQ2mr3Gq-81">
          <mxGeometry x="207.5" y="117" width="50" height="14.5" as="geometry" />
        </mxCell>
        <mxCell id="W7hZznwjPLtyRQ2mr3Gq-63" value="&lt;font face=&quot;Comic Sans MS&quot; style=&quot;font-size: 10px;&quot;&gt;10.100.136.7&lt;/font&gt;" style="text;html=1;align=center;verticalAlign=middle;whiteSpace=wrap;rounded=0;" vertex="1" parent="W7hZznwjPLtyRQ2mr3Gq-81">
          <mxGeometry x="205" y="131.5" width="55" height="14.5" as="geometry" />
        </mxCell>
        <mxCell id="W7hZznwjPLtyRQ2mr3Gq-64" value="" style="shape=image;html=1;verticalAlign=top;verticalLabelPosition=bottom;labelBackgroundColor=#ffffff;imageAspect=0;aspect=fixed;image=https://cdn3.iconfinder.com/data/icons/social-media-2068/64/_windows-128.png" vertex="1" parent="W7hZznwjPLtyRQ2mr3Gq-81">
          <mxGeometry x="88.5" y="132.25" width="13" height="13" as="geometry" />
        </mxCell>
        <mxCell id="W7hZznwjPLtyRQ2mr3Gq-65" value="" style="shape=image;html=1;verticalAlign=top;verticalLabelPosition=bottom;labelBackgroundColor=#ffffff;imageAspect=0;aspect=fixed;image=https://cdn1.iconfinder.com/data/icons/Futurosoft%20Icons%200.5.2/128x128/apps/fedora.png" vertex="1" parent="W7hZznwjPLtyRQ2mr3Gq-81">
          <mxGeometry x="178.5" y="129.75" width="18" height="18" as="geometry" />
        </mxCell>
        <mxCell id="W7hZznwjPLtyRQ2mr3Gq-71" value="" style="endArrow=none;html=1;rounded=0;" edge="1" parent="W7hZznwjPLtyRQ2mr3Gq-81">
          <mxGeometry width="50" height="50" relative="1" as="geometry">
            <mxPoint x="52.5" y="37" as="sourcePoint" />
            <mxPoint x="232.5" y="37" as="targetPoint" />
          </mxGeometry>
        </mxCell>
        <mxCell id="W7hZznwjPLtyRQ2mr3Gq-72" value="" style="endArrow=none;html=1;rounded=0;exitX=0.5;exitY=0;exitDx=0;exitDy=0;exitPerimeter=0;" edge="1" parent="W7hZznwjPLtyRQ2mr3Gq-81" source="W7hZznwjPLtyRQ2mr3Gq-52">
          <mxGeometry width="50" height="50" relative="1" as="geometry">
            <mxPoint x="-37.5" y="62" as="sourcePoint" />
            <mxPoint x="52.5" y="37" as="targetPoint" />
          </mxGeometry>
        </mxCell>
        <mxCell id="W7hZznwjPLtyRQ2mr3Gq-74" value="" style="endArrow=none;html=1;rounded=0;exitX=0.5;exitY=0;exitDx=0;exitDy=0;exitPerimeter=0;" edge="1" parent="W7hZznwjPLtyRQ2mr3Gq-81">
          <mxGeometry width="50" height="50" relative="1" as="geometry">
            <mxPoint x="232.30999999999995" y="57" as="sourcePoint" />
            <mxPoint x="232.30999999999995" y="37" as="targetPoint" />
          </mxGeometry>
        </mxCell>
        <mxCell id="W7hZznwjPLtyRQ2mr3Gq-75" value="" style="endArrow=none;html=1;rounded=0;" edge="1" parent="1" source="W7hZznwjPLtyRQ2mr3Gq-8">
          <mxGeometry width="50" height="50" relative="1" as="geometry">
            <mxPoint x="539.97" y="639" as="sourcePoint" />
            <mxPoint x="539.97" y="429" as="targetPoint" />
          </mxGeometry>
        </mxCell>
        <mxCell id="W7hZznwjPLtyRQ2mr3Gq-13" value="" style="fontColor=#0066CC;verticalAlign=top;verticalLabelPosition=bottom;labelPosition=center;align=center;html=1;outlineConnect=0;fillColor=#CCCCCC;strokeColor=#6881B3;gradientColor=none;gradientDirection=north;strokeWidth=2;shape=mxgraph.networks.server_storage;" vertex="1" parent="1">
          <mxGeometry x="270" y="710" width="70" height="65" as="geometry" />
        </mxCell>
        <mxCell id="W7hZznwjPLtyRQ2mr3Gq-82" value="" style="fontColor=#0066CC;verticalAlign=top;verticalLabelPosition=bottom;labelPosition=center;align=center;html=1;outlineConnect=0;fillColor=#CCCCCC;strokeColor=#6881B3;gradientColor=none;gradientDirection=north;strokeWidth=2;shape=mxgraph.networks.server_storage;" vertex="1" parent="1">
          <mxGeometry x="177.5" y="710" width="70" height="65" as="geometry" />
        </mxCell>
        <mxCell id="W7hZznwjPLtyRQ2mr3Gq-83" value="" style="fontColor=#0066CC;verticalAlign=top;verticalLabelPosition=bottom;labelPosition=center;align=center;html=1;outlineConnect=0;fillColor=#CCCCCC;strokeColor=#6881B3;gradientColor=none;gradientDirection=north;strokeWidth=2;shape=mxgraph.networks.server_storage;" vertex="1" parent="1">
          <mxGeometry x="90" y="710" width="70" height="65" as="geometry" />
        </mxCell>
        <mxCell id="W7hZznwjPLtyRQ2mr3Gq-84" value="&lt;font face=&quot;Comic Sans MS&quot; style=&quot;font-size: 10px;&quot;&gt;Fettuccine&lt;/font&gt;" style="text;html=1;align=center;verticalAlign=middle;whiteSpace=wrap;rounded=0;" vertex="1" parent="1">
          <mxGeometry x="90" y="772" width="50" height="14.5" as="geometry" />
        </mxCell>
        <mxCell id="W7hZznwjPLtyRQ2mr3Gq-85" value="&lt;font face=&quot;Comic Sans MS&quot; style=&quot;font-size: 10px;&quot;&gt;Carbonara&lt;/font&gt;" style="text;html=1;align=center;verticalAlign=middle;whiteSpace=wrap;rounded=0;" vertex="1" parent="1">
          <mxGeometry x="177.5" y="772" width="50" height="14.5" as="geometry" />
        </mxCell>
        <mxCell id="W7hZznwjPLtyRQ2mr3Gq-86" value="&lt;font face=&quot;Comic Sans MS&quot; style=&quot;font-size: 10px;&quot;&gt;Pappardelle&lt;/font&gt;" style="text;html=1;align=center;verticalAlign=middle;whiteSpace=wrap;rounded=0;" vertex="1" parent="1">
          <mxGeometry x="270" y="772" width="50" height="14.5" as="geometry" />
        </mxCell>
        <mxCell id="W7hZznwjPLtyRQ2mr3Gq-87" value="&lt;font face=&quot;Comic Sans MS&quot; style=&quot;font-size: 10px;&quot;&gt;10.100.136.69&lt;/font&gt;" style="text;html=1;align=center;verticalAlign=middle;whiteSpace=wrap;rounded=0;" vertex="1" parent="1">
          <mxGeometry x="90" y="784" width="55" height="14.5" as="geometry" />
        </mxCell>
        <mxCell id="W7hZznwjPLtyRQ2mr3Gq-88" value="&lt;font face=&quot;Comic Sans MS&quot; style=&quot;font-size: 10px;&quot;&gt;10.100.136.241&lt;/font&gt;" style="text;html=1;align=center;verticalAlign=middle;whiteSpace=wrap;rounded=0;" vertex="1" parent="1">
          <mxGeometry x="177.5" y="784" width="55" height="14.5" as="geometry" />
        </mxCell>
        <mxCell id="W7hZznwjPLtyRQ2mr3Gq-89" value="&lt;font face=&quot;Comic Sans MS&quot; style=&quot;font-size: 10px;&quot;&gt;10.100.136.85&lt;/font&gt;" style="text;html=1;align=center;verticalAlign=middle;whiteSpace=wrap;rounded=0;" vertex="1" parent="1">
          <mxGeometry x="270" y="786.5" width="55" height="14.5" as="geometry" />
        </mxCell>
        <mxCell id="W7hZznwjPLtyRQ2mr3Gq-90" value="" style="endArrow=none;html=1;rounded=1;startSize=6;endSize=6;jumpSize=6;curved=0;" edge="1" parent="1">
          <mxGeometry width="50" height="50" relative="1" as="geometry">
            <mxPoint x="207" y="620" as="sourcePoint" />
            <mxPoint x="540" y="620" as="targetPoint" />
          </mxGeometry>
        </mxCell>
        <mxCell id="W7hZznwjPLtyRQ2mr3Gq-91" value="" style="endArrow=none;html=1;rounded=0;" edge="1" parent="1">
          <mxGeometry width="50" height="50" relative="1" as="geometry">
            <mxPoint x="540" y="620" as="sourcePoint" />
            <mxPoint x="854" y="620" as="targetPoint" />
          </mxGeometry>
        </mxCell>
        <mxCell id="W7hZznwjPLtyRQ2mr3Gq-110" value="" style="shape=image;html=1;verticalAlign=top;verticalLabelPosition=bottom;labelBackgroundColor=#ffffff;imageAspect=0;aspect=fixed;image=https://cdn3.iconfinder.com/data/icons/social-media-2068/64/_windows-128.png" vertex="1" parent="1">
          <mxGeometry x="152" y="783.63" width="13" height="13" as="geometry" />
        </mxCell>
        <mxCell id="W7hZznwjPLtyRQ2mr3Gq-111" value="" style="shape=image;html=1;verticalAlign=top;verticalLabelPosition=bottom;labelBackgroundColor=#ffffff;imageAspect=0;aspect=fixed;image=https://cdn3.iconfinder.com/data/icons/social-media-2068/64/_windows-128.png" vertex="1" parent="1">
          <mxGeometry x="243" y="783.63" width="13" height="13" as="geometry" />
        </mxCell>
        <mxCell id="W7hZznwjPLtyRQ2mr3Gq-112" value="" style="shape=image;verticalLabelPosition=bottom;labelBackgroundColor=default;verticalAlign=top;aspect=fixed;imageAspect=0;image=data:image/png,iVBORw0KGgoAAAANSUhEUgAABLAAAAUrCAYAAAA69177AAAABGdBTUEAALGPC/xhBQAAACBjSFJNAAB6JgAAgIQAAPoAAACA6AAAdTAAAOpgAAA6mAAAF3CculE8AAAABmJLR0QA/wD/AP+gvaeTAAAAB3RJTUUH6AYTCRkSnEfdQQAAgABJREFUeNrs3WmcXGWZ/vHrPlWdtao7QTbjikvCIsqizrgTNkFBQWnT3QFERhmXcQQX1qR56CwsRgjDf5wxziCSpLtju42oqGxBUWfcFQgQUQQ0Yc1SVZ2lu+rc/xcBbRBIJ+mqOlXn9303fjKkc9VZnufq+5wyAQDGTFtn91Gx7AckAQBAmtjmjGv/Df3hT2QBANUREQEAjJHDQjZWdAVBAACQNj4xjnQJOQBA9VBgAcAYad07/rjkB5AEAADp4+6zcl3hrSQBANVhRAAAu661PezmWf+9pN1IAwCAdHLZr0vlO1+ngYEKaQDA2GICCwDGYsGa1UJRXgEAkGomPzifPeADJAEA1bjGAgB2Sa5z7gGm6DeSsqQBAEDqPZItb5m+fuDSjUQBAGOHCSwA2OULabRYlFcAAGCbPcstE+YQAwCMLSawAGAX5DrCSWY+QBIAAGCEIcV2YHFFWE0UADA2mMACgJ11Wphg0mUEAQAAnmacIi0iBgAYOxRYALCTclv0aZnvQxIAAODv+fGtneEYcgCAscEjhACwEya2X/CCbDZ7t6QcaQAAgGfZbt1VzK95jZYsGSYLANg1TGABwE7ItrRcLMorAADwnHy/1sK0j5ADAOw6JrAAYAe1zg7/6HH8E8m4hgIAgO1tudZLml7sC4+RBQDsPCawAGAHV6EeazHlFQAAGB2favKLyAEAdnEjRgQAMHqtXeFUd/8ySQAAgB3YdlVi6ZDBvvA7sgCAncMEFgCM0h7tIefuF5MEAADYMZ6J5FeQAwDsPAosABilLRk/T9I0kgAAADvh8HxH94nEAAA7h0cIAWAU2k6Zs09czqySNIE0AADATvpjcbwdoGvCFqIAgB3DBBYAjEI8nFkkyisAALBrXpbfGp9FDACw45jAAoDtyHV1zzS3m0kCAACMgVLFbcam/rCGKABg9JjAAoDn0t6eMY946SoAABgruYx8ATEAwI6hwAKA51phtux3huSvIQkAADBmzN/f2hVeTxAAMHoUWADwLNq6zp1qbj0kAQAAxpaZx36leKULAIwaBRYAPIuKT7hQ0u4kAQAAxpzpH1u7ursIAgBGe9kEAPydfGfYV9LvJG8hDQAAUKXt2F8mZUszHl66aJAsAOC5MYEFAM+4ntTllFcAAKC6/AWbh3PnkAMAjGaLBgB4ivzscJxiv44kAABADWzJuO23oT/8iSgA4NkxgQUAI51xRotiLSIIAABQIxNi02XEAADPjQILAEbIF/f+V8lnkAQAAKgVl7fnOue+jSQA4NnxCCEAPCF3StjTyn6PpCmkAQAAarwx+02hvOq1GhiokAYA/D0msADgyYVjWfNFeQUAAOrApYPyLQf8E0kAwLPs14gAAKTJXeGgyPULyTOkAQAA6rQ9ezQzXtM3XBM2kAUAPBUTWAAgKXItprwCAAD15XtUtmoOOQDA32MCC0Dq5TrD+0y+giQAAEACtmjDypQPLC6bfw9ZAMDfMIEFIN3az5po8ksJAgAAJIO3qJL9HDkAwFNRYAFItVxL/tOSXkoSAAAgOfydrbO6jyUHAPgbHiEEkFoT2y94QTbbco/kk0kDAAAkzN3F/NpXa8mSYaIAACawAKRYJttyKeUVAABIqH1bi9M+RgwAsA0TWABSKd859w2S/VgyroMAACCpNnh5aHpp4OJHiQJA2jGBBSCNTIoWU14BAICEmxK1jOshBgCgwAKQQvmu8H5JrycJAACQdO72ocmz5r6GJACkHQUWgFTZoz3k5L6AJAAAQGPwTBRlriAHAGlHgQUgVbZk/QJJ00gCAAA0Dp+Z6+x+LzkASDPe/wIgNdq6wsti9zslTSANAADQUNzuK07Q/rombCEMAGnEBBaA1IjdPyfKKwAA0IjM98kP6ZMEASC1l0EiAJAGuc5wuMlvIgkAANCo3LSpEpf33dy/4EHSAJA2TGABaH7t7RmT8/JTAADQ0Mw1KWvZ+SQBII0osAA0vVxmvw9LejVJAACAxuen5DvDm8kBQNrwCCGAptbWde7U2MevlrQ7aQAAgCbZxv2yOEOvVwgxWQBICyawADS1isYHUV4BAICm4oe23h3PJgcAacIEFoCmlZs1Zz+Lsr+VvIU0AABAk3moJbIZ65aHAlEASAMmsAA0LYsyl1NeAQCAJrV3OdbZxAAgNfs7IgDQjPKd3cdL9i2SAAAATbyd22oZvaqwLNxLFgCaHRNYAJpPexgn2SKCAAAAzc3He0WXkAOANKDAAtB08tn4E5KmkwQAAGh+/t62zu6jyAFAs+MRQgBNJXdK2NPKWi15G2kAAICUbOvuLK7VQVoZymQBoFkxgQWguZZvw1pIeQUAANLFD8jtrQ+SA4Cm3usRAYBmMalj7sEZy/xc8gxpAACAlFlnZXtlYSCsIwoAzYgJLABNI2PRYsorAACQUrt5i+YQA4BmxQQWgKaQ6wod5t5HEgAAIMXKrvigUt+8O4kCQLNhAgtA42s/a6I5XyENAABSLxspWkwMAJoRBRaAhpfL5M+W/CUkAQAA0s6lI1u7wjtIAkCz4RFCAA1t4uzwwmysuyWfTBoAAACSXPcWN657la6/aithAGgWTGABaGiZWJdRXgEAAIxgekV+yvM+RhAAmuvSBgANKt859w2S/VgyrmUAAABPVYjLNmNwIDxEFACaARNYABpTCJE8cyXlFQAAwDNqjTJ+ETEAaBYUWAAaUv5unSbz15EEAADAszB9sK1r7qEEAaAZUGABaDi7n352Xqb5JAEAAPDc+704zlwpXh0DoBkuaEQAoNFs3TxxjuTPJwkAAIDtMH9Trqv7JIIA0PCXMyIA0EjausLLYtcqyceTBgAAwGg2ffZgrqR911wXNpEGgEbFBBaAhhLHupzyCgAAYPRc/qLCZH2SJAA0MiawADSMXGc43OQ3kQQAAMCOcdOmlmHbb/1AeIA0ADQiJrAANIb29oxJiwkCAABgx5lrUjnrC0gCQKOiwALQEFpbDviI5AeSBAAAwM7y2fnO8GZyANCIeIQQQOK1dZ07NfbxqyXtThoAAAA7z02/Kk231ymEmDQANBImsAAkXiUe3yPKKwAAgF1mrkPy98SnkASAhrt+EQGAJMvNDvtbrN9I3kIaAAAAY7INfLgl0vR1y0OBLAA0CiawACRbrMsprwAAAMaS7zUc61xyANBImMACkFj5ru53y+2bJAEAADDmhswqryr0zv89UQBoBExgAUim9jBObpcRBAAAQFWM8zhzCTEAaBQUWAASKd8SnyVpOkkAAABUiek9bbPC0QQBoDEuWQCQMJM7z98r0rh7JG8jDQAAgKpaVVxrr9HKUCYKAEnGBBaABF6Yxl1MeQUAAFAT++emxR8iBgBJxwQWgESZ1DH34IxFvxAFOwAAQK2sU8vQ9OK1Fz9OFACSig0igCSxjGWu5NoEAABQU7v58Pi5xAAg0ZtFIgCQFK0docvNl5MEAABAzZU9toNLK8IdRAEgiZhyAJAM7WdNdNNCggAAAKiLbJTRYmIAkFQUWAASobWl7RzJX0ISAAAA9eHuR+Rnh+NIAkAS8QghgLqbODu8MBvrbsknkwYAAEBdt4h/KG54/ABdf9VWsgCQJExgAai7FtciyisAAIAk8Jfn2573cXIAkDRMYAGoq3xHeKMsvk0yrkcAAADJ2CYWK5mhGZuWLVxLFgCSggksAPUTQiRpMeUVAABAkng+U2npIQcASUKBBaBu8vfodJm/jiQAAAAS5/S2jvBaYgCQFBRYAOpi99PPzkviN3sAAAAJ3SvG5leK184ASMpFiQgA1MPWLRO7JX8+SQAAACTWG3Md3e8jBgBJQJsOoObaZs15eRxl75R8PGkAAAAk2p/zJZux5rqwiSgA1BMTWABqLo6yV1BeAQAANIQXFnL6NDEAqDcmsADU1OSO7iMisxtJAgAAoGG2jZszNrzfht4F95MFgHphAgtA7RwWspHZYoIAAABoJD6xrOxCcgBQTxRYAGqmdW99VNKrSAIAAKCxmHtnvmPuW0gCQN2uQ0QAoBZa28NuntVqyZ9HGgAAAI3HTb8qTbfXKYSYNADUGhNYAGoj6/MorwAAABqXuQ7J3xO/nyQA1OUaRAQAqi03O+xvsf9WUpY0AAAAGnoL+XC2vHnG+oFLN5IFgFpiAgtA9blfIcorAACAZljY7VXOTDyPHADUGhNYAKoq39F9osy+ThIAAABNY8is8qpC7/zfEwWAWmECC0D1tIdxsuhSggAAAGgq49wzlxEDgFqiwAJQNfls/CnJX0kSAAAATeeE1q7utxMDgFrhEUIAVTG58/y9IrWsltRKGgAAAE1pVTG/9iAtWTJMFACqjQksANW5uHjLJaK8AgAAaGb75wp7n0EMAGqBCSwAY65tVjgkjvznoiQHAABo9i3lerVsfWXx2osfJwsA1cTmEsCYr2LiyK/k+gIAAJAGPtWHx19IDgCqvtEkAgBjqbWre7a7LSMJAACA1GwrK3FUOXhw+bzbyQJAtTAhAWDstJ81MZYtJAgAAIA08UwUR4vJAUA1UWABGDOtmbbzzPVikgAAAEidw/Md4V3EAKBaeIQQwJiY2HHBizJR9m5zTSINAACAVG4v/1Dc8PgBuv6qrWQBYKwxgQVgTLRYy+corwAAANLMX56f8rxPkAOAamACC8Auy8+e+ybF9iPJuKYAAACke4tZrGSGZmxatnAtWQAYS0xgAdg1IUSKo8WUVwAAAJA8nymPm0cOAMYaBRaAXZJfrQ9Kei1JAAAAQJJk/oHWWXNfRxAAxhIFFoCdtvvpZ+flfhFJAAAAYOQ+06PMleKVNQDG8sJCBAB21tbNky6UtDdJAAAA4Kn8Da2d3R3kAGCs0IgD2CmtJ4dXeEV3SD6eNAAAAPAM/jwpO7jvw0sXDRIFgF3FBBaAneIVLaa8AgAAwHN44eZK7jPEAGAsMIEFYIdN7gpHRu43kAQAAAC2s+XcnLHh/Tb0LrifLADsCiawAOyYw0I2ci0mCAAAAGyfT4w9ewk5ANhVFFgAdkjr8/Uvkh9AEgAAABgNlzpyXeGtJAFgV/AIIYBRa20Pu3lWqyV/HmkAAABgtFz269IMvVYhxKQBYGcwgQVg9Fp8AeUVAAAAdpTJD86vjj9AEgB2/joCAKOQ65x7gCn6jaQsaQAAAGAnPJItb5m+fuDSjUQBYEcxgQVglDJXiPIKAAAAO2/PcnbiBcQAYGcwgQVgu3Kd3e812VdJAgAAALtoSLEdWFwRVhMFgB3BBBaA53bsx8ebG199DAAAgLEwTpF/lhgA7CgKLADPKT/1eZ+S6RUkAQAAgDHyrtbOcAwxANgRPEII4FlN7jx/r0gtqyW1kgYAAADGcCt6VzG/5jVasmSYLACMBhNYAJ7jAtFymSivAAAAMOZ8v9bi3h8mBwCjxQQWgGfU1jX30Nijn4miGwAAANXZjq6XNL3YFx4jCwDbw8YUwDOuJuI4cyXXCAAAAFSPTzVTIAcAo9qkEgGAp2vt6D7Fza4lCQAAAFR5S1qJpUMG+8LvyALAc2G6AsBTTDs+TIojm08SAAAAqD7PRPIryAHA9lBgAXiKUk7nm+vFJAEAAIAaOTzfGU4gBgDPhUcIAfzVxI4LXpSJsnebaxJpAAAAoIb+WBxvB+iasIUoADwTJrAA/FXWspdTXgEAAKAOXpbfqjOJAcCzYQILgCQp3xneLMU/lIzrAgAAAOqhVMkMT9+0bOFaogDwdExgAZBCiCQtprwCAABAHeUylXELiAHAM6HAAqDc3TpD8kNJAgAAAPXl72/tCq8nBwBPR4EFpNxus0OrmQJJAAAAIAl7VHctFq+7AfD0iwMRAOk27AqS70USAAAASAZ/Q2tH6CQHACPRagMp1npyeIVX/E5J40gDAAAACdqq/mVStjTj4aWLBskCgMQEFpBqHuvfRHkFAACA5K1UX7C5PPlscgDwJCawgJRq7QrvcPfvkAQAAAASul3dnHHtv6E//IksADCBBaTRGWe0uOtyggAAAEBy+cTY/FJyACBRYAGplC9O+7jkM0gCAAAASebS+3Kdc99GEgB4hBBImVz7eXtYdtxqSVNIAwAAAA2waf1NobzqtRoYqJAGkF5MYAFpWwBkxs0X5RUAAAAahEsH5TP7nU4SQMr3skQApMfkWXNfE0WZX0qeIQ0AAAA0kEcy423GhmvCBqIA0okJLCBNJ3wULaa8AgAAQAPas7JVc4gBSC8msICUyHV1t5vbV0gCAAAADWpImcqri8vm30MUQPowgQWkwWlhgrldRhAAAABoYONUziwiBiCdKLCAFMht0aclvZQkAAAA0NBMx7XO6j6WIIA0nv4AmtrE9gtekM1m75aUIw0AAAA0gbuL+bWv1pIlw0QBpAcTWECTy2azl4jyCgAAAM1j39bS3h8lBiBdmMACmljr7PCPHsc/kYxzHQAAAM20lV0vaXqxLzxGFkA6MIEFNPFd3WMtprwCAABA8/Gp5uohByBFG1wiAJpTvrP7/ZJdQxIAAABo0u1sJZYOGewLvyMLoPkxgQU0oT3aQ06yhSQBAACA5uWZSFpMDkA6UGABTWhLVudLmkYSAAAAaG4+M9cV3kMOQPPjEUKgybSdMmefuJxZJWkCaQAAAKDpud1XnKD9dU3YQhhA82ICC2gy8XBmkSivAAAAkBbm++S3xmcRBNDkpzoRAM0j19U909xuJgkAAACkTKniNmNTf1hDFEBzYgILaBbt7RlzW0wQAAAASKFcxsSXGAFNjAILaJY7dst+Z0h6NUkAAAAgneJTWzvm/gM5AM2JAgtoAm1d5041tx6SAAAAQHqZuaLF4lU5QFOiwAKaQMUnXChpd5IAAABAqpn+sbUzzCYIoBlPbwANLTdrzn4WZX8reQtpAAAAAPaXCWXt++hAKJEF0DyYwAIa/fYcZS6nvAIAAACe5C/Y2uLnkAPQZHtfIgAaV352OE6xX0cSAAAAwFNsibKV/TcunX8fUQDNgQksoFG1h3GKtYggAAAAgL8zIS5nLiMGoHlQYAENKp/Rv0o+gyQAAACAZ3RSriMcRgxAc+ARQqAB5U4Je1pZqyVvIw0AAADgWbe8vy2W7zxUAwMVsgAaGxNYQCPehsuaT3kFAAAAbI+/Jpfd74PkADTBPpgIgMYyuSscFLl+IXmGNAAAAIDtbnsfzYzX9A3XhA1kATQuJrCARjtpXYsprwAAAIDR8j0qW30uOQCNjQksoIHkOrpnmVk/SQAAAAA7pOyKDyr1zbuTKIDGxAQW0Cjaz5poZpcQBAAAALDDslLmCmIAGhcFFtAgctm2z0h6KUkAAAAAO87kR7XO6j6WJIBGPYcBJN7E9gtekM223CP5ZNIAAAAAdpLr3mLFDtBAGCIMoLEwgQU0gExL9jLKKwAAAGAXmV7Rmok/RhBAI56+ABIt3zn3DZL9WDLOVwAAAGDXFeKyzRgcCA8RBdA4mMACkiyESIoWU14BAAAAY6Y1yioQA9BYKLCABMvfE79f0utJAgAAABhL/qG2rrmHkgPQOCiwgITa/fSz81K0gCQAAACAsd8Lxx4tFq/VARrnpCUCIJm2bpp0geTPJwkAAACgKt6c6wjvJQagMdA2AwnU1hVeFrvfKWkCaQAAAADV2hDbg7mS9l1zXdhEGkCyMYEFJFDs/jlRXgEAAABV5fIXFXLxWSQBJB8TWEDC5DrD4Sa/iSQAAACA6nPTppZh22/9QHiANIDkYgILSJL29oxJiwkCAAAAqA1zTSq3aD5JAMlGgQUkSC6z34clP5AkAAAAgBry+OR8Z3gzQQDJxSOEQEK0dZ07NfbxqyXtThoAAABAzbfHvyzO0OsVQkwWQPIwgQUkRMUnXCTKKwAAAKBO/NDW1TqZHIBkYgILSIDcrDn7WZT9reQtpAEAAADUbYv8cEuk6euWhwJZAMnCBBaQhNtklLmc8goAAACoN99ruOLnkAOQwH0zEQD1le8I75L5/5AEAAAAkAhDlrEDCsvCvUQBJAcTWEA9tYdxMv8sQQAAAACJMc4ruoQYgGShwALqKJ/VmZKmkwQAAACQJP7ets7uo8gBSA4eIQTqJHdK2NPKWi15G2kAAAAAidsu31lcq4O0MpTJAqg/JrCAet0Oh7WQ8goAAABIKj8gNy3+EDkACdlDEwFQe5M65h6csegXokQGAAAAkmydWoamF6+9+HGiAOqLzTNQBxmLFnP+AQAAAIm3mw+Pm0MMQP0xgQXUWK4rdJh7H0kAAAAADaHssR1cWhHuIAqgfpgAAWqp/ayJ5nwlLwAAANBAslHkVxADUF8UWEANtba0nSP5S0gCAAAAaBwuHdna0f1OkgDqh0cIgRqZODu8MBvrbsknkwYAAADQYFz3Fjeue5Wuv2orYQC1xwQWUCMtsX+W8goAAABoUKZX5KdM/ReCAOp1CgKounzn3DdI9mPJOOcAAACAxt1CF+Oypg8OhIfIAqgtJrCAagshkmeupLwCAAAAGp3no6x6yAGoPQosoMryq+MPyPx1JAEAAAA0A/+nto7wWnIAaosCC6ii3U8/Oy+P5pEEAAAA0Dz76FhaLF7JA9T2xCMCoHq2bp44R/LnkwQAAADQRMzflOsM7QQB1PC0IwKgOtpmzXl5HGXvlHw8aQAAAADNtpm2B3Ml7bvmurCJNIDqYwILqJI4ylxOeQUAAAA0J5e/qJCPP0USQG0wgQVUQa4zHG7ym0gCAAAAaOot9eZsWfuuHwgPkAVQXUxgAWOtvT1j217qCAAAAKCp+cThrBaSA1B9FFjAGGvN7vdRyQ8kCQAAAKD5meKufMfct5AEUO1zDcCYaes6d2rsE34v+fNIAwAAAEgHN/2qNN1epxBi0gCqgwksYCxvXJowj/IKAAAASBdzHZJfrVNJAqjieUYEwNjIzQ77W+y/lZQlDQAAACB12+uHWyJNX7c8FMgCGHtMYAFjJdblorwCAAAAUsr3Go79PHIAqoMJLGAM5DvDCZJ/gyQAAACAVBsyq7yq0Dv/90QBjC0msIBd1R7GSbqMIAAAAIDUG+eevZQYgLFHgQXsonxLfJbkryQJAAAAAJKf2DYrHE0OwNjiEUJgF0zuPH+vSOPukbyNNAAAAAA8YVVxrb1GK0OZKICxwQQWsEsn0LiLKa8AAAAAPM3+uefrDGIAxg4TWMBOapsVDokj/7koggEAAAD8vXVqGZpevPbix4kC2HVsvIGdY3GkxZxDAAAAAJ7Fbl4e100MwBhtwokA2HGtHaHLzZeTBAAAAIDnUI6j+JDB5fNuJwpg1zA9AuygaceHSTJdQhIAGpLb/0h+PkEAAFATWfNoETEAu44CC9hBpZyf4/IXkQSAhuP6dnHj47OKfT0XuzmPNAAAUAPmOjrf2X08SQC7JkMEwOhNnB1eaFKfSS2kAaDBfLXYuvZ9WvEfQ5I0dPutP5xw4MwWSW8lGgAAqi16/dCLDvyC7v1ZhSyAnTyLiAAYvRbXInNNIgkADearxfzaLi1ZMjzyfyz0hTlyu5R4AACoNn95fsrUfyUHYOfxEndglPId4Y2y+DbJOG8ANNKN/iuFtTZbK0P5Wa9vnWGR5J8iLQAAqnpXLlYyQzM2LVu4liyAHccEFjAaIUQyv5LyCkBDLZPNVmyvvJKkYl/4jJn+k8QAAKgmz2fK4+aRA7BzKLCAUcjfo9MlvZYkADQKk/oLa3Ty9sqrJ1fUhd6LPirpv0gOAIBq3qD9A62z5r6OIIAdR4EFbMfup5+dl9RDEgAahcv6CuVVoy2v/vr/Viyv+rCbekkQAIDq7cE9ihaL1/kAO37yEAHw3LZumdgt+fNJAkCDuLo0QydrYGDHv+VoYKBSGl51qklfIUYAAKrmjbmuMIsYgB1D6ws8h7ZZc14eR9k7JR9PGgASz+2/i/vqDIUQ79J/pz2My2f1VcmPJ1QAAKriz5Oyg/s+vHTRIFEAo8MEFvAcYsssprwC0Bjsi2NSXknSQBgqlnWSpO+SKwAAVfHCweFJnyYGYAdWu0QAPLPJHd1HRGY3kgSAxHMtKe5rHxmT8mqk9rMm5rNt35F8JiEDADDm2/HNGRveb0PvgvvJAtg+JrCAZ3JYyEZmiwkCQAMsfr9Q7L/ow2NeXknSwBWb8yUdJ+mH5AwAwFjziWVvuZgcgNGhwAKeQeu0+GOSXkUSAJLMTP9Z7AsfkeTV+jvWXBc2tUR2vKSfkTgAAGN8L5d35jvmvoUkgNGcLwCeorU97OZZrZb8eaQBIMEuL/Zd9Kla/WVTTgtTKlt1o+SHEj0AAGPHZb8uzdBrqzJNDTQRJrCAp8toPuUVgGSzz9WyvJKkDdeEDZKOkXQH+QMAMIZ3dfnB+bt1GkkA2ztXAPxVbnbY32L/raQsaQBI6J17UbH3os/U7Tp5StjTylop+X58GAAAjJlHsuUt09cPXLqRKIBnxgQWMJL7FaK8ApBcl9WzvJKk0tLwSLk8fJRkf+DjAABgzOxZzk44nxiAZ8cEFvCEXFd4j7l/jSQAJJLbpcX+cG5SfpyJHRe8KKuWW2W+Dx8OAABjYkixHVhcEVYTBfD3mMACJKk9jDPXJQQBIJESVl5J0ub+BQ9GXj5Ksr/wAQEAMCbGyXQZMQDPjAILkJTPxp+S/JUkASBpXHZh0sqrJ21cMf8PZuWZkq3lkwIAYAyYv7u1q/vtBAE8w+lBBEi7yZ3n7xWpZbWkVtIAkCRu3l3q7ZmX9J8zf/KcGapkb5V8Lz41AAB2eZt+VzG/5jVasmSYLIC/YQILnAQad6korwAkjMvnNEJ5JUnFZfPviePK2yWt45MDAGCXVwH7tZam/TM5AE/FBBZSrW1WOCSO/OeizAWQqLuzXVDsDQsb7cee1DH34IxlbpJ8Kh8iAAC7tBhYL2l6sS88RhbANmzakeq7Qhz5lZwHAJLD3WRnNWJ5JUmb+uf9Wqq8U7IinyUAALu0Jpjq7heSAzBiA08ESKvWznCyy5eSBICELFTdTGcVenuubPR/SX723Dcpznxf8sl8rgAA7PR2vRJHlYMHl8+7nSwAJk+QUtOOD5Ni8wUkASAZ3E36RDOUV5JUXD7vx7HpBElb+GwBANjp9UEmiqPF5ABsQ4GFVCrl/TxzvZgkACRgcepm0b8W+nquaqZ/1WBvuNHMT5BsK58xAAA77fB8V/e7iQHgEUKk0MSOC16UibJ3m2sSaQCoL3dX9C+lvvD5Zv0X5ju6T5RFKyRv4fMGAGCn/LG4Yd3+uv4qfimEVGMCC6nTYi2fo7wCUH/ubvpYM5dXklTs7/mGu7oklfnMAQDYKS/LT516JjEg7ZjAQqpse7Gw/Ugyjn0A9RTL7J+KveGatPyDW7vCqe7+JfHLMwAAdmbrXqxkhmZsWrZwLVkgrVhEIj1CiBRnrqS8AlDnBWhF8tPTVF5JUqE3XCu3D0nuHAMAAOwoz2cqLfPJAWlGgYXUyK/WByU/lCQA1I9VzHR6sa/ny2n81xf7w9UmfYLjAACAnXJaa1d4PTEgrSiwkApT289pk/s8kgBQP1YxxacUesO1aU6h0Ndzldw+w/GAhJ+vvyUDAEncv3usy8WrgJDWE4AIkAbl7IRuSXuSBIA6bYYrJp1W6OvpIwup2B8WuXk3SSCZp6tdUCzfeajLlhMGgORdo/xNrZ3dHQSBNMoQAZpd68nhFXK7RlKWNADUYaVZMdephf7AZniEodtv/eGEA2e2SHoraSA5p6tdUOwNC7VqlQ/tt8f/jIv2fLlJryYYAAm7WP3D1INft2Twdz8ZJgukCQUWmt64A962VNJ+JAGgDgvMYTfNKvaFr5DF39t6x8qbxx942ARJbyYN1P90faK8etKTJVZmj1eYdCABAUiQ1rKPH956+8qVRIE0ocBCU5vcFY40iXdfAaiHIbl3lPou+gZRPEdId9x60/hXH5aT9EbSQN08vbx60qpVPrTvnpRYAJJ44fqHSa86bPmWO1ZuIAukBQUWmtdhITshp2+Kd18BqL0hyWYV+y/6JlGMIqzbb71xwqsP20vSa0kDtd8DPkt59aQnS6xoz1dSYgFIkBZF9vytt6/8KlEgLXiJO5pW697xxyU/gCQA1NiQ3NqLfeGbRDFqXui96KOS/osoUFPbK6+eNDBQKZXvPMVlfBEDgOTcPN1n5boC75JEajCBhabU2h5284y+KmkiaQCooSHJTyr2X3QdUexEePvt+V0e1ULNjLa8etK2d2J9c0K0x3RJryJAAAm5mB00tN8e/6VVq5ws0OyYwEJzavEFknYjCAA1XEBuVWTvLfb1UF7trIGBSml41almtoIwUN3TdQfLqxHHaKG86mST+gkRQCIuZ/KD89kDPkASSMfxDjSZXOfcA0zRbyRlSQNAjW6nmyPF797Y13MDWYyBM85oyRenfU3y4wkDY3+67mR59ffH6ArJTyRQAAnwSLa8Zfr6gUs3EgWaGRNYaEKZK0R5BaBG3LQpNr2L8moMLVkyXCzrJEnfJQyM6fkqn7PL5dWTx2h+zSxJ3yRVAAmwZ7llwhxiQLNjAgtNJdfZ/V6T8U0cAGqzGTZt8tjfNdjfcxNpVEH7WRPz2bbvSD6TMLDL56t8TqmvZ8GY/kfPOKMlX3z+VySdQMIA6mxIsR1YXBFWEwWaFRNYaB7Hfny8uV1CEABqshk2bZLb8ZRXVTRwxeZ8ScdJ+iFhYJfO12qUV9ITk1hr3ycmsQDU3zhFWkQMaGYUWGgauSlTPy3TK0gCQPXZoOTHlfrCzWRRXWuuC5taIjte0s9IAzujauXVk5YsGS6WbZbc/oe0AdT5ind8a2c4hhzQtCtwIkAzmNwe9o6yfo+kVtIAUOVb56C7jiv1h5VkUTtTTgtTKlt1o+SHkgZGvZWrdnk1UnsYl8/oKzJ/N8kDqOM65a5ifs1rtGTJMFmg2TCBheY4kFt0mSivAFR/UbhRqhxFeVV7G64JGyQdI+kO0sBo1LS8kqSBMFSs6H2SvkX6AOp49duvtTDtI+SAplyJEwEaXVvX3ENjj34mClkA1b1lbrRIxxSWh/8li/rJnRL2tLLfIml/0sCzbt9qXV6N1B7G5bM+IOldfBIA6rRmWS9perEvPEYWaCZs+NHwV+c4zlzJsQygyjaYV95OeVV/paXhkXK5fLRkfyANPJO6llfStkmssrWLSSwA9bsSTjX5ReSAptv8EwEaWWtXONXdv0wSAKpog5m9vdAbeIl4gkzsuOBFWbXcKvN9SAN/3bLVu7waiUksAPXd6ldi6ZDBvvA7skCzYGoFDWva8WGSXPNJAkAVF3/rLY6PprxKns39Cx7MRMMzJbufNCAlrLySRkxi2XV8OgDqcFXMRPIryAHNhAILDas42S9w+YtIAkB12PrIdXRhxbyfk0UybehdcL9Z+SjJ1pJGyrdpSSuvnjQQhoplnUSJBaBODs93dJ9IDGia1TkRoBG1nTJnn7icWSVpAmkAqMLt8dFYOpKx+8aQP3nODFWyt0q+F2mkT2LLq5Haw7h8xr8m03F8YgBq7I/F8XaArglbiAKNjgksNKS4nP2sKK8AVMcjcVQ5gvKqcRSXzb8njitvl7SONNKlIcoradskVsXeK9e3+dQA1NjL8lt1JjGgGTCBhYaT6+qeaW43kwSAKnjEYzuitCLcQRSNZ1LH3IMzlrlJ8qmk0fwaprwaiUksAPVRqrjN2NQf1hAFGhkTWGgs7e0Z84iXEQKoAnvYFR9OedW4NvXP+7VUeadkRdJobg1ZXknbJrE2rjtJsu/wKQKooVxGvoAY0OgosNBgV94DPiT5a0gCwNiyhz3S4aW+eXeSRWMr9s37qaLKsZINkkZzatjy6knXX7W1uOHx91JiAajtUsff39oVXk8QaGQUWGgYU04LU8zUQxIAxthDHunw0vKwiiiaQ3H5vB/HphMk8cLaJtPw5dWTKLEA1JyZx36leI0QGhgFFhpGeatfKPkeJAFgzJZysgctY2+hvGo+g73hRjM/QbKtpNEcmqa8etL1V20tlje2m3Qjny6AGi18/rG1q7uLINC4hzDQAPKdYV9Jv5O8hTQAjM0N0B60uDxz44r5fyCNpr5/nCDpK9w/GlvTlVcjtZ81sTXb+i2XjuSTBlCDFdBfJmVLMx5euohH7dFwmMBCo+w0L2fzAWDMNsOmByiv0qHYF77pri5JZdJo0PO1mcsrSRq4YnOhXHiXmd3Epw2gBlfVF2wezp1DDmjMWgBIuNaO7ne62bdJAsAY3fruj0yHb+wNfySLFN1LusKp7v4l8cu7xtpmNXt5NcK048OkUl7fcvcj+OQBVNmWjNt+G/rDn4gCjYRFHJLtjDNa3KLPEQSAsWH3R9nyTMqr9Cn0hmvl9iFJMWk0hjSVV5K05rqwKVfUuyTdzKcPoMomxKbLiAGNhgILiZYvTvu45DNIAsAY+FPGddjGpfPvI4p0KvaHq83sEySRfGkrr5605rqwKV+y40WJBaD619n2XOfct5EEGkmGCJBUufbz9rAo81VJE0gDwK6x35fL5beVvjLvQbJIt623r/zZhANnbpR0DGkkdlOVyvLqScXVK4d332fmV4fG6Q2S9uGIAFAtkeygrfvt+V9atcpJA41xzAJJ3W5mxs2XNIUkAOyi1eXy8MzNAwv+QhSQpEJfWCy3z5BE8qS9vHrS3yax7BaOCgDVu+bqoHzLAf9EEmiYjoAIkESTu8JBkesXkjMlCGBXbnP3VFyHb+oPa8gCT9fadeE8d80hiaRspCivnm7a8WFSMadvSz6TNABUaa30aGa8pm+4JmwgCyQdE1hI5oHpWkx5BWAX3V3JDM2kvMKzKfReNFfSJSRRf5RXz2zbJJaOYxILQBWvwHtUtvLLHDQGJrCQOLmu7nZz+wpJANgFd1cyw4dvWrZwLVFge/JdF35Wrk+TRJ22TpRX27VtEsu/I+kw0gBQhVpgWJnygcVl8+8hCyQZE1hIltPCBHPjK10B7Moi7K64bDMprzBaxd6Lzja3/yCJ2qO8Gp0114VNk7KDx0laSRoAqnA1blEl+zlyQNJRYCFRckPxZyS9lCQA7Bz7raS3Dg6Eh8gCO7JyL/SHj0n2RaKoYeiUVzvk4aWLBimxAFTxqvzO1lndx5IDkowCC4kxsf2CF5hH55AEgJ1h0m8kHVnsC4+RBnZm5V4s3/kRN/USRQ3CprzaKZRYAKp6bY7scp1xRgtJIKkosJAYmWzLpZJPJgkAO74Ztl97yxDlFXbNwEClNLzqVDNbQRjVPF8pr3bF30osu5U0AIyxfVuL0z5GDEgqXuKORGidHf7R4/gnknFMAtixzbDpV9GwHVUYCOtIA2PijDNa8sVpX5P8eMIY4/OV8mrM7HXKpydvKue+I/nbSAPAGNrg5aHppYGLHyUKJA0TWEgC89ivpLwCsBOXj19SXmHMLVkyXCzrJEnfJYyxQ3k1trZNYpXeKemHpAFgDE2JWsb1EAMSufInAtRbviucJvcvkQSAHfSLyLYevbH3kvVEgapoP2tiPtv2HclnEsaucbe5pf4wnyTG3rZJrMnflfRW0gAwRjVBJY4rhw6umPdbskCSMIGFutqjPeTkzm9jAeyon7REdgTlFapq4IrN+ZKOExMuu4TyqroeXrposCWy4+X6X9IAMEZX7kwUZa4gByQNBRbqaktW50uaRhIARr+msh+Pn7j5mHXLQ4EwUG1rrgubWiI7XtLPSGMnTlfKq5pYtzwUWjL2dkosAGN4BZ+Z6+x+LzkgSXiEEHXT1hVeFrvfKWkCaQAYpdvGT9z8jseuvqxIFKilqe3ntJWzE2+S/FDSGOXWh/KqXsfp9yX/B9IAsOsXcruvOEH765qwhTCQBExgoW5i1yJRXgEYNfvRhLIdS3mFelg/cOlGScdIuoM0RrHnobyq23GaLW9+u2T/RxoAdn3p5fvkh/RJgkBiDkkiQD3kurpnmtvNJAFglH44oWzvfHQglIgCdb1/nRL2tLLfIml/0nhmlFf1xyQWgDFUqrjN2NQf1hAF6o0JLNRee3vG3BYTBIBRbYZlNxTLhWMor5CIVfzS8Ei5XD5asj+QxjOcr5RXifC3SSze3QZgl+Uy5hcTA5KAAgu1vwJmD/hnSa8mCQDb3QybflAqb3y3Bq7YTBpIis0DC/5S9uGZcruPNEacr5RXibKtxNpytCixAOz6Ff6UfGd4Mzmg3iiwUFNtXedONflFJAFgFL5XGmeUV0ikzf0LHsxEwzMlu580KK+SihILwNgwk7RYIdAfoK44AFFTFY0PknYnCQDbWSddXxxvJ/KtN0iyDb0L7jcrHyXZ2jTnQHmVbOsHLt2YGW9vl9vPSQPALlztD229O55NDqjrFoEIUCu5WXP2syj7W8lbSAPAc/hucby9l/IKjSJ/8pwZqmRvlXyv1G1nKK8axpTTwpTKFv1A5q8jDQA76aGWyGasWx4KRIF6YAILNWNR5nLKKwDbuVJ8p7hh3Xsor9BIisvm3xNLR0v2eJr+3ZRXjWXDNWFDZoKOZhILwC7YuxzrbGJA3XYKRIBayHd2Hy/Zt0gCwHPckr5WzK/p1JIlw2SBRjSpY+7BGcvcJPnUZv+3Ul41rimnhSmVrX6DpNeSBoCdWK9ttYxeVVgW7iUL1BoTWKi+9jBOskUEAeA5fJXyCo1uU/+8X0uVd0pWbOZ/J+VVY9twTdiQGW9HSfoFaQDYibvAeK/4xeSAeqDAQtXlM/pXSdNJAsAzMdlAca1RXqEpFPvm/VRR5VhJpabctlBeNQVKLAC76KS2zu6jiAG13zcAVZQ7JexpZa2WvI00ADzDTegrhbU2WytDmTTQTCZ3hSMj9+skTWiWfxPlVfPhcUIAu7CKu7O4VgexhkMtMYGF6l7Wyr6A8grAM14fpH7KKzSrwd5wo5mfINnWZvj3UF41pw3XhA2RbT1asl+SBoAdvDMckNtbHyQH1Hj/AFTHEy+z/bnkGdIA8JQlj6yvtFanUl6h2eU7wwmSvtLI38JLedX82rrOnRr7hBskP5Q0AOyAdVa2VxYGwjqiQC0wgYWqyVi0mPIKwDO4ujRDJ1NeIQ2KfeGb7uqS1JDHO+VVOmzsvWR9ZFuOYhILwA7azVs0hxhQK0xgoSpyHd2zzKyfJAA8dTds/13cV2cohJgwkCatXeFUd/+SGuiXh5RXKVy/tZ+3h2XH3yT5gaQBYJTKrvigUt+8O4kC1cYEFsZe+1kTzewSggDwNP9FeYW0KvSGayX/oKSGOP4pr9KpNHDxo17eeoRkt5MGgFHKRooWEwNqgQILYy6XyZ8t6aUkAeBv7IvFGfbPlFdIs2Jfz5fM7BNJ/zkpr9KNEgvADt83pCNbu8I7SAJV31EQAcbSxPYLXpDNttwj+WTSAPDEqmZJsf+iD29b3wBo7QxnuvyKRJ6ulFd4Ao8TAtjB9d69xY3rXqXrr9pKGKgWJrAwpjIt2csorwA8yUz/SXkFPFWhLyyW/NOJ23tQXmGEv01i6Q7SALD9RZ9ekZ/yvI8RBKp7mAFjJN859w2S/VgyjisAktkVxd7wKVFeAc+otevCee7J+PYmyis8m9wpYU8r+02SXkUaALajEJdtxuBAeIgoUA1MYGFshBBJ0WLKKwBPuLzYGz4pyivg2Vf5vRfNlVT3Lz2hvMJzKS0Nj3jWmMQCMBqtUcYvIgZUCwUWxkT+nvj9kl5PEgBkWlTsu+hTBAFsX7HvovNkWlSvv5/yCqPxtxLL7iQNANtZB36wrWvuoQSBaqDAwi7b/fSz81K0gCQASPbZYu9FnyEHYPSKvRedbW7/Ueu/l/IKO2JbiaXDKbEAbEcUx5krxeuKUI2Diwiwq7ZumnSB5M8nCSDl3C4t9oWzCQLY8bOn0B8+JtkXa/YXUl5hJ1BiARgV8zflurpPIgiMNQos7JK2rvAymc4kCSDt22+7tNgfziUIYOfPomL5zo+4qbfqfxHlFXZBaWl4JNbQEZJWkQaAZxN59Llpx4dJJIExPa6IALsijnW55ONJAkjxrts9UF4BY2BgoFIaXnWqma2o3vlKeYVdN9i38OFYw4eLEgvAs91v5C8qTNYnSQJjiedSsdNyneFwk99EEkCKFyfm3aXennkkAYyhM85oyRenfU3y48f0fKW8whib3Hn+XpFabpa0P2kA+Pt1oja1DNt+6wfCA6SBscAEFnZOe3vGpMUEAaR4UeI2l/IKqIIlS4aLZZ0k6btjer5SXmGMMYkF4LmYa1I563zZF8YMBRZ2SmvLAR+R/ECSANK6IrEL2AwDVTQQhorlwkmS3bKr/ynKK1QTJRaA7dyFZuc7w5vJAWOBAgs7rK3r3KnufiFJAKldiJxf7A0LyQGosoErNudLOk7SD3f6bDXvprxCtf2txLK7SAPAU5m5+ZUKge4Bu4yDCDusEo/vkbQ7SQBp426ys4p9PReTBVAba64Lm1oiO17Sz3b4jOUddaihwb6FD8dlUWIB+DvmOiR/T3wKSWCXjyUiwI7IzZqzn0XZ30reQhpAmribR2cW+sO/kQVQe1Pbz2krZyfeJPmhozpjKa9QJ5Pbw95RVjdLvh9pAPgbe7gl0vR1y0OBLLCzmMDCDh4x2Ssor4C0cTfpE5RXQP2sH7h0o6RjJN0xinP2zlLuoUtIDfUwOBAeKkc6Wq57SQPAiHvTXsOxziUH7AomsDBq+a7ud8vtmyQBpGqx4e76eKm/59/JAqi/3ClhTyv7LZL2384S72vF/JpOLVkyTGqoh4mzwwuzFb9FpleQBoAnDJlVXlXonf97osDOYAILo9MexsntMoIA0sTdFf0L5RWQHKWl4ZEnXpZ9z1NP1787f9+bL077ho79+HhSQz1sXh7+XM7YTMn+QBoAnjDO4wwTwthpFFgYlXxWZ0qaThJAWri76WOlvvB5sgCSZbBv4cNlHz5KbvdtO131LDP1/s78lN2+TomFetm8PPy57MOUWAD+xvSetlnhaILAzh0+wHZse1xBqyVvIw0gFWKZ/VOxN1xDFEByTem64CVlz9xlsonbWe5dV9zweLuuv2orqaEeJnZc8KKstdwi+ctJA4CkVcW19hqtDGWiwI5gAgvbZcNaSHkFpOaMr5j7aZRXQPJt6F1wf8ajt0r2l+f+k358fspu39RpYQKpoR429y94MGPDR/x1ahBA2u2fmxZ/iBiwwzsVIsBzmdQx9+CMRb8QZSeQhltCxTz+QKG/ZylZAI2jtWvOK92zt0j+guf6cy77fqm88UQNXLGZ1FAP2yaxsislvYw0gNRbp5ah6cVrL36cKDBalBJ4ThmLFnOcAGlgFZNOo7wCGk+hd/7vzcozJf35Oc9y+dtzLa3fVPtZE0kN9bC5f8GD2bLNlPRH0gBSbzcfHj+XGLBDOxYiwLNp7ezudFkvSQBNfyuomMXvL/T2LCcLoIHv2yeHV3jFb5H0wu2c87dOKOu4RwdCidRQD1Pbw4vLWb9FTGIBaVf22A4urQh3EAVGg8kaPLP2sya6oosJAmh2VjHFp1BeAY2vsCzcm3F7i6Q/Pfef9Ldtyfp39mgPOVJDPawfCA9kyzaTd2IBqZeNMlpMDBgtCiw8o9aWtnMkfwlJAM3MhuVxe6Gvp48sgOawoT/8KeM2U9stsfTWLVl9d/fTz86TGuph/UB4IFvRYZRYQLq5+xH52eE4ksCodi9EgKebODu8MBvrbsknkwbQtIYkm1XsC98kCqD5TOkIL62Y3yLppdv5o7eNn7j5HY9dfVmR1FAPU9vDi8sZrZT5PqQBpJX9objh8QN0/VVbyQLPhQks/J2W2D9LeQU0tSGZv4/yCmheOzCJ9eatmyZdv9vs0EpqqIf1A+GBTDTM44RAqvnL823P+zg5YHuYwMJT5DvCG2XxbZJxbADNaUhu7cX+8C2iAJrflK4LXlLx7EptfxLrJy2RHbtueSiQGhJ+rAJoSlasZIZmbFq2cC1Z4NkwgYW/CSGStJjyCmjahcFWyU+ivALSY0PvgvszVj5M25/EeuNwrJvbus6dSmpI+LEKoCl5PlNp6SEHPBcKLPxVfnX8AZm/jiSAZmRbFemkYl/PdWQBUAw8y+bh0Ngn3NDaHnYjNST7WAXQpE5v6wivJQY8GwosSJJ2P/3svDyaRxJA83HTpth0XHF5+DZpACkvBrb7niE/NG7xG/Knnvc8UkPdjtXRvb8NQPOJYvMrxauO8GwHCBFAkrZunjhH8ueTBNBc3LRJbscP9oYbSQOSpGM/Pp4QUlwMjOJl2eY6xIfHU2Khfsdqf/iTZewoyf5CGkDqvDHXGdqJAc+EAgtqmzXn5ZJ9giSA5vJkeVXqCzeTBiQpPzsc1zrleb+fPHvugaSR0mJgtCWW/GAbHndjvjPsTmqoh8KycK9ldBglFpA+Jv/ctOPDJJLA01FgQXGUvUJyfiMPNNetf1Dy4yiv8KRcR/csxfq6y18UxZmbKLHSa7QllksHSaLEQt0UloV7zcozKbGA1HlhIadPEwP+bodDBOk2uaP7iMiMR4uA5rq0D7rruFJ/WEkWkKTWru7Z7naNpOyI4+TROKocMbh83u0klE5Tui54SSVuuUXm+2znmnJXXNbhgwPhIVJDfa5hc17pnr1F8heQBpCa9ezmjA3vt6F3wf1kgScxgZVmh4VsZNEVBAE0lZKr8k7KKzwp1xE+7G7X6inllST5HkxipdtoJ7Ek3y/K+i2TTj6fd2WiLgq983/PJBaQNj6xrOxCcsBIFFgp1rq3Pio5GxegadhGi+yoUt+8W8kCkpTv7P6MWfz5Z7/fU2Kl3YbeBfdnKxrFtxNq30yl5eZJHWEaqaEe/lZiaQ1pAClZ2bp35jvmvoUk8NdjggjSqa3r3KmxT/i95HzDENAcl/ON5pW3F/rn/R9ZQJLyXd3nyO2SUR4/PE6YclPbw4vLGa0cxeOE91Rch2/qD5QIqM+1bVaYrshvkUSZCqSAm35Vmm6vUwgxaYAJrLReCDRhHuUV0DQ2mOloyis8qbUj9Iy+vJKYxML6gfDA6CaxfEbG/JaJ7RfwLiLURXFFWK3YmMQCUsJch+Tvid9PEpCYwEql3Oywv8X+W/3d+1AANKANFsdHF1bM+zlRQJLlOsMVJv/ETv6/M4mVclPbw4vLWb9F0su2c6z8vlwenrl5YAHvJEJdMIkFpGp583C2vHnG+oFLN5JFujGBlUbuV4jyCmiGm/n6yO0oyitIktrbM/nOC/9r58sriUksrB8ID2TLNlPSH7dzrLwym83eNqUjvJTUUA/FFWG1MpXDxSQWkIYN7F7lzMTzyAFMYKVMvjOcIPk3SAJo+Mv3o7F05GBf+B1ZQO3tmXx2/6slnTpmxxeTWKm2A5NY90fZ8syNS+ffR2qoy9r25DkzVMneIjnfkgk0tyGzyqsKvfN/TxTpxQRWqjY4YZykywgCaHRPlAuUV3ji2p7P7P8VjVl5JTGJhR2YxHpJXM7e0tYVXkZqqIfisvn3KFOeKdla0gCa2jj3DHvZlKPASpF8Vp+U/JUkATS0R5iMwV8d+/Hx+awPyPSesf+PU2Kl3Y6UWBX5LW2z5ryc1FAPlFhAapzQ2tX9dmJILx4hTInJnefvFalltaRW0gAa9pL9sMc6srQi3EEW2OuUT0/eXMn9j7sfUeXjjscJU260jxOa7EGLyzM3rpj/B1JDPeQ7w76SbuZxQqCprSrm1x6kJUuGiSJ9mMBKywftLZeI8gpoYPawq3IE5RUkacppYcqmcu6G6pdXEpNYGO0klstf5FH2ltaTwytIDfVQ7At3Szpc0kOkATSt/XOFvc8ghpTuiIig+bXNCofEkf9cFJZAo3rIIzuitDysIgq0dZ07Nfbx35P0+hovGZjESrltk1i6WfLtPSr4kMeVw0sr5t9FaqiHbZNYfoukvUkDaEa2Xi1bX1m89uLHySJdKDRScHbHkRbzWQMN68+WsbdQXkHa9jh47BNuVc3LK4lJLKwfCA+UfXimZNt7RHBvizI352aH/UkN9bBtEstmikksoEn5VB8efyE5pA8TWE2utat7trstIwmgES/Q9qAyOrywLNxLGnhi+uXG+n8ZB5NYaTex44IXZa3llu1PYj3x6HPfvDtJDfWQmzVnP4syN4tJLKAZV8qVOKoczHokXZjKaWbtZ02MZQsJAmg8bnrA4vJMyitI0pSO8NJtL9FOwjfJMomVdpv7Fzw4ukks38sU3ZybFV5FaqiH0or5d8Wyt0t6jDSAplstZ6I4WkwO6UKB1cRaM23nmevFJAE02O3Y9EBGxjd5QZKUP3nOjIr5j7Sdb4Cr8VFKiZVyoy+xtKdFzrGCuhnsC7+LZUeIEgtoRofnO8K7iCE9eISwSU3suOBFmSh7t7kmkQbQUJfl+6NseebGpfPvIwvkZof9LdaNyf1KeB4nZL0x6scJOVZQV5M7w6sj+U2SdicNoKnWzn8obnj8AF1/1VayaH5MYDWpFssuorwCGs6fKK/wpLauuYdarB8mt7ySmMTCDjxOuEcUZ25t65p7KKmhHgb7wu/iOD5STGIBTcZfnp/yvE+QQzowgdWE8rPnvkmx/UgyPl+gcS7Hvy9HOnzz8vBnskC+M7xZ8u9Iam2Q45fpmpTbgUms9ZHr6I394RekhnqYPGvua6IoulFMYgHNtI4uVjJDMzYtW7iWLJobE1jNJoRIcbSY8gpoKKvL5eGZlFeQpFxHOEzy69Uw5ZXEJBb+Oonl2s4XT/jU2PyG1llzX0dqqIfBFfN+u20Syx4nDaBZeD5THjePHJofBVaTyd8d/5Ok15IE0CjsnorbzM0DC/5CFmjtCu8w8+sl5Rpw8UiJlXKb+xc8WM7YKEosTfEo+kFrV3g9qaEeBlfM+21sosQCmmpJ7R/glyPNjwKriex++tl5mfWQBNAwd9p7Kq7DN/WHNWSBXFd3u7u+KWlC4/4rKLHSbvPy8OdRl1iuH7R2zP0HUkM9DPaG31BiAU0l8ihzpXhNUnN/yETQPLZunnShpL1JAmgId1cyQzMpryBJrR2hy9x6JW9p/H8NJVbajb7E8ja3zPdbZ4d/JDXUAyUW0Gz8DbmuMIscmhftZJNomzXn5XGUvVPy8aQBJP7Se1dc1uGDA+EhskC+K5wh9/9Q0/1SiRe7p93E2eGF2YrfItMrtvNHS674uFLfvFtJDfUwuSscFLlulPx5pAE0vD9Pyg7u+/DSRYNE0XyYwGoSsWUWU14BDbGp/62kt1JeQZJyHd0fk8f/2Zz3Yyax0m4HHifMmTLf2fYFBkDtDfaG31S8cpSkdaQBNLwXbq7kPkMMTbqTIoLGN7krHBm530ASQOIvuL9x2VHFvvAYaSDf1X2O3C5JwZHPJFba1yntYe8oq5sl3287x8qgW3x8qbfnFlJDPUzqmHtwxqIbJe1GGkBDrz02Z2x4vw29C+4ni+bCBFajOyxkI/crCAJINpf92luGjqS8giS1doWQjvJKYhILgwPhobiswyW7azvHymTJvp3rDIeTGuphU/+8X1c8PlJMYgGNvvaYGHv2EnJoPhRYjb4JmhZ/TNKrSAJI8C3U9Ctr2XpU8dqLeUksLN8VLnf3C1N2FlBipdxoSyxzTZL5dZM7uo8gNdTDpv55v45i43FCoNFXHlJHriu8lSSabCFNBI2rtT3s5lmt5oWTQKIvs7+0so4uDAQWwrBcx4X/ZqZ/SXEEPE6YcqN9nNBNm1z27sHecCOpoR7aZoVD4shvEI8TAg3LZb8uzdBrFUJMGs2BCaxGltF8yisg0Zv1X0a25SjKK6i9PZPvDF9Kd3klMYmFHZnEilzfauvsPorUUA8bV4RfbZvEsvWkATToSlx+cH51/AGSaKbPFA0p1zn3AFP0G0lZ0gAS6SctkR27bnkoEEXKtYdx+awvl3QSYfx1+cEkVsptm8TymyTtv51jZasUtxf7eq4jNdRDW9fcQ2PP3CD5VNIAGtIj2fKW6esHLt1IFI2PCayGlblClFdAMrn9mPIKkqRjPz4+n9FXRHn19JOESayUGxwID8UaPlzSqu0cK+Ml+2q+I7yrVj/b5K5wUK4z/KC1PfDoGLSxd94vI6swiQU0rj3L2YkXEENzYAKrAeW6wnvM/WskASTSbeMnbn7HY1dfViSKdJt2fJhUyOmbJucRqGdfhjCJlXKTO8/fK1LLzdruJJaGZP6+Ym/P/1T15+kKB0WuGyV/npt+FQ0bj4FDkpTvnPsGKfqepFbSABrOkGI7sLgirCaKxsYEVqNpD+PMxVeCAsncjP+I8gqSNLX9nLbiZP2A8mp7mMRKu8G+hQ+PbhJL4+T2lXxnOKFaP8vI8kqSzHVI3OI3MIkFSSr2zfupFB8jielqoPGMU+SfJYbGR4HVYPIt+rTkryQJIHF+OKEsyiuorevcqeXsxO/L/E2kMRqUWGm3QyWWfEW+o/vEsf4Znl5ePYkSCyNRYgEN7V2tneEYYmhsPELYQJ4Ys18tRpeBpF1Kb51Q1nGPDoQSWaRb7pSwp5X9BkmvJo0dPo94nJB1zigfJ7RhN3WUesPXx+TvfZbyaiQeJ8RIPE4INOxa465ifs1rtGTJMFk0JiawGurDarmMGyWQLG76QbG88VjKK0w6+fznW1k3i/JqZ88mJrFSbvSTWN5irq+0doSuXf07R1NeSUxi4amKffN+KrdjJWPqGmistcZ+rcW9P0wOjYsJrAax7St8o5+J0hFIzi1Q9v1SeeOJGrhiM2mk25SuC15S8ZabJH85aezy0oRJrJTbgUmsikmnFfrCsp36e0ZZXj3lus8kFkbId4Q3yvQ9yfOkATTMOmO9pOnFvvAYWTQeypAGOctijxbzeQGJ8r3SeJ1AeYX8yXNmVDx7G+XVWGESK+12YBIr49I1rR3dp+zo37Ez5ZXEJBaeqtgffiLXMUxiAQ21zphqpkAOjYkJrAbQ2tF9iptdSxJAUq6cdn1xnN6ja8IWwki33Kw5+1mUuVHSNNIY8xONSayU2zaJNe4myQ/YzrFSMdPphd4wqrXSzpZXT9n+MImFEfKz575JceZ6JrGAhlljVOKocjBrjMbDRE/CTTs+TIojm08SQGJueN8prn/8RMortM0Kh1iU+aEor6qESay02zaJNXSEZHdu51jJuOvqfGf3+7f33xyL8kpiEgtPVVw+78eKKrwTC2icNUYmiqPF5NB4KLASrpT388z1YpIAksC+UcyvOVHXX7WVLNIt3xHeGEe6WdLupFHVBeYeURzdmOucewBZpNOOlFiSXZ3vCqc9259omxUOiVw372p59dc7gusQz/r1U9vPaeOTQnH5vB+7KsdLNkgaQEM4PN8ZTiCGBtuNEUFyTey44EWZKHu3uSaRBlD3y+XXivk1nXztLnhpb13OPx4nTLncKWHPbd/yub3HCd3d9LFSb89/jPxfx2ry6hn/Rh4nxMh7RGd4s+TXS8qRBpB4fyyOtwN4sqJxMIGVYFnLXk55BSTCVymvIFFe1Q+PE6ZdaWl4xLM6fPuTWGbm+vdcZ/jok/9LNcsriccJ8VTFvnCbZMdKKpEGkHgvy2/VmcTQOJjASuomafbcNym2H0nGZwTU9yL5lcJam62VoUwaKb8uU14l4YxkEivldmQSyyz614p0WzXLq6f8jUxiYeQ9g0ksoFGUKpnh6ZuWLVxLFMnHBFYShRApzlxJeQXUeatstoLyChLlVXIwiZX6XcYOTGK5x/+Wcd1Wi/JKYhILT1XsC7fJ43eISSwg6XKZyrgFxNAYKLCSeAbdE39I8kNJAqgfk/oLa3Qy5RUor5KGEivtSkvDI3FZR0p213au5OaKJ9f03kGJhRGK/fN+RIkFNMTa4v2tXeH15JB8FFgJs9vs0GqyQBJAHW9hsr5CeRXlFSivknuWUmKl3OBAeMizOkzSHc/9J2s/zE6JhZEosYCGELlrsXjFUvI/KCJIlmFXkLQ3SQB1c3Vphk7WwECFKNKN8irpKLHSbtvjhHaEtlti1R4lFkYq9s/7kZu9U7JB0gASu654Q2tH6CSHZKNhTJDWk8MrvKI7JB9PGkA97lv238V9dYZCiAkj3SivGmopw4vdU27bi939JkmveuJinpglLi92x1OO1a7wVnN9V/LJpAEkck3xl0nZ0oyHly6ibE4oJrCStHeuaDHlFVC3G9YXiv3hQ5RXyM+e+ybKq4a6e+4RxdGNuc65B5BFOj05iWXyJzYcyfn9rLkO8axfP7X9nDY+KZR6ww8jxSdKtpk0gESuKV6wuTz5bHJILgqshGjr7D5K8neSBFCPe5WWFGfoo9r2a3ukWL4jvFFx5nrKq4azpylzC48TprgYWBoe8Xj4EMnuSeCP9/rhlgk38zghJGljX88NkeJ3U2IBSd0W2GemdISXkkQyUWAlwWEhGyu6giCAerAvFPsv+jCTV+CxwYZfcvJOrJQrrrh4dba8+R8k+2ni7jS8EwsjUGIBiV5PTIzNLyWHZKLASoDWveOPS86jD0CtNxSm/yz2hY+IyavUo7xqmkUnJVbKrR+4dOOkbOkoyW5J3D2HEgsjbOzruSGKdYKkLaQBJGw1Ib0v1zn3bSSRwP0bEdRXa3vYzbP+e0ksZoDaurzYd9GniAGUV025vOHF7ik37fgwqZjz6yQdnriNES92xwhts8LRceT/I2kCaQAJWklIvymUV72WbyZPFiaw6r2IyWqhKK+AWt+SPkd5BYnyqonvrkxipdya68KmfMmON+nGxN2BmMTCCBtXhB9Esb1bTGIByVpJSAflM/udThIJu4cSQf3kOuceYIp+IylLGkDNrnqLir0XfYYgQHmVihOeSay0O/bj4/NTnjcg+fGJ2xwxiYURmMQCEumRbHnL9PUDl24kimRgAquu4UeLRXkF1NJllFeQKK/Sg0ms1Lv+qq3Fsk6S2/8k7UdjEgsjbVwRfmDmJ4hJLCBJ9iy3TJhDDAm6dxJBfeQ6wklmPkASQK32sXZpsT+cSxCgvErlcodJrLRrD+PyWfVLfmLybk9MYuFvWru63+5u3xSTWEBSDClTeXVx2fx7iKL+mMCqh9PCBJMuIwigZrsDyitIorxK8UWASay0GwhDxfKd7W7qTdqPxiQWRir09nzfZCeKSSwgKcapnFlEDMlAgVUHuS36tMz3IQmgBttW2YWUV5Aor0CJlXoDA5XS8KpTZbY0aT8aJRZGKvSF71FiAUm6SOu41lndxxJEEj4K1NTE9gtekM1m75aUIw2gyttV8+5Sb888kgDlFUYsfXicMO3a2zP57AH/Lfn7k3ff4nFC/E1rZzjG5d8QjxMCSXB3Mb/21VqyZJgo6ocJrBrLtrRcLMoroPqbAPkcyitIlFf4u6sDk1hpNzBQKc7Q6ZJ9KWk/GpNYGKnQF75nsb9Hsq2kAdTdvq2lvT9KDHW+TxJB7bTODv/ocfwTycgdqOqVzS4o9oaFBAHKKzzHhYJJLFhrV7jK3T+WtB+MSSw8ZQ8xq/tYj6JvSD6eNIC63jbWS5pe7AuPkUV9MIFVw6PdYy2mvAKquuR3k51FeQWJ8grbvV4wiQUv9IaPu+nfkrdoZBILf1NY0XO9xfGJTGIBdb9tTDVXDznU8f5IBLXR2hVOdfcvkwRQtRuKm+msQm/PlWQByivswFKISSxYrvPCy006M3F3Niax8NT9xDvc9XUmsYC63jIqsXTIYF/4HVnUHhNYNbBHe8i5+8UkAVRtie8mfYLyChLlFXb4+sEkFrzUd9FZJluQuG0Sk1gYodAbvmsm3okF1PeWkYmkxeRQHxRYNbAl4+dJmkYSQFVuIm4W/Wuhr+cqsgDlFXbyOkKJBRX6whxT8h4NocTCU47T3vBd8/i9lFhAXdcNM3Nd4T3kUId7IhFUV9spc/aJy5lV4utvgWrcPNwV/UupL3yeLEB5hTFYFvE4IZTv6j5Hbpck7o7H44QYIdcV3mOufslbSAOoy0X5vuIE7a9rwhbCqB0msKosHs4sEuUVUI27hrvpY5RXkCivMGbXFSaxoGJvz6WSnZO0n4tJLIxU6g1fd1OHZMOkAdTlorxPfmt8FkHUOHYiqJ5cV/dMc7uZJIAxF0v+wWJfz5eIApRXqMLyiEksKN8RPi3zzybt52ISC0/dbzCJBdRRqeI2Y1N/WEMUtcEEVrW0t2fMoysIAhjzjWVF8tMpr/DEBpPyCtWoCJjEgor9YZGbf1RyT9RdkEksjNw994avu+JOJrGAushlTAuJoXYosKp1JLfsd4bkryEJYEyX7RUznV7s6/kyWYDyCtVFiQWp1NvzHy59RFKcqLshJRZGHqd9PV+jxALqJT61tWPuP5BDbVBgVW1hER1MCsCYnlUVU3xKoTdcSxbIz577JsorVJ/vEcXRjbnOuQeQRarLgS+4/KNKYInlWb9+avs5bXxK2FZi6WRJZdIAano1tlgZ9v41QoFVJZXM0IWSFUkCGBNl93h2oa+njyiQnz33TYoz19ekvHJ9m8RTb09TdDMlVurLgS/I7UNKWIkl6fXl7IQfUGJh23EavuKy2aLEAmppVekh/Rcx1AYFVpVsWrZwrRRfTBLArrKKub2/1N+zgiyQ7whvrFl5JX03P2izSB2S9jRlbuFxwnQr9oer3RJZDrx+uGXCzTxOCOmJEsutU5RYQG12Kuaf1MrA+VYjFFjVXOiUo89J9nuSAHb6ljDspvcV+kMvWaCm77wyu764Yd171ky4cyvJYxveiQWp1Bv6kzjhwjux8JTjtD98lRILqMXSwP6n0NvzfYKoHQqsahoIQ/L4HIIAdsqQPJ5V6g1fJwrUvLxa//iJuv4qyis8faVKiYUREy7JemE2JRaecpz2h6+6eZcosYAq7lV0NjHUFgVWlRX7e77hph+QBLCDNwTZrGJ/zzeIApRXSBZKLGwrB8zjEyVL1LWCEgtPOU57ewYosYCqWVxcEVYTQ21RYNVkNWFnceMARm1Ibu3FvvBNogDlFZKJEgtSob/nOxbHJ0rakqhlJyUWRij19gzwYndgzD2SLW9ZSAy1R4FVixvH8rDKpCUkAWzXkOQnFfvDt4gClFdINkosSIUVPdeb+QmSbU7Sz0WJhafsRfh2QmCMlwB23vqBSzcSRO1RYNVK2eZK9jhBAM+63N6qyN5b7Ou5jixAeYUGWcFSYkGF3p7vuyrHSiol6q5KiYURKLGAMbrzy35d3FfXkER9UGDVanEzENaZq4ckgGdcZm+OFB9fXB6+TRagvEKDLWUpsaBS37xb5fE7JCsm6u5KiYWnHKfhK+5+siixgF24rlY+oRBikqgPCqwaKjykz0u6gySAEVs/06bY9K6NfT03kAYor9CgVzJKLKjYP+9HiirHSioka7NFiYW/KfX3rKDEAnbybi/rK/bP+xFJ1A8FVi2tDOXY/UyCAJ64CZg2eezvGuwNN5IGal5ejdN7KK8whlc0SiyouHzejyO3IyStS9LPRYmFkUr9PSvc7BTJKqQBjPpKujlrw+eRQ31RYNXYYH/PTZLxjh+w1TNtktvx284JpF1dyqtrwhaSxxhf2SixoI394RdRbEcl7d2nlFgYqdQb+t10MiUWMMo7vMeXbuhdcD9J1BcFVj1Cj8tnScZv/ZFiNij5caW+cDNZgPIKTbbEpcSCNq4Iv4pNR0p6LFF3X0osjFDqDf0yfVAS7/MBntufJ7dsWkQM9UeBVZdFzfw/yPwqkkA62aC7jiv19txCFqhpeSV9j/IKtUGJBWmwN/zGI3ubpIcSdRemxMIIxd5wjcz+SZRYwLPf1c0+8/DSRYMkUX8UWHUyfsLmHsnWkgTSxTZKlaNK/WElWaDm5dV4O5HyCjVc7lJiQaXlYZVkMyWtSdTdmBILIxR7wzWSM4kFPLOflHrDCmJIBgqsOnns6suKkrpJAulhGy3SMcW+eT8lC1BeIR0osSAV+8LdylQOl+wviborU2LhKcdpz5cosYC/E1scnynJiSIZKLDqeaOYoasl/YIkkAIbzCtvLywP/0sUoLxCulBiQSoum3+PWXmmpD8n6eeixMJTjtO+ni/J7UOixAKeuIXblwor5v2cIJKDAqueQojl9gnJaXTRzDaY2dsL/fP+jyhAeYWUroApsaBC7/zfZ6z8Zrndl6SfixILIxX7w9WUWIAkWbGSHZpLDslCgVX/m8RPzKKvkASa9MK/3uL46EJv+BlZgPIK6UaJBWlD74L7sxUdJtkfEnW3psTCU/cnlFiA4nmbli3kndUJQ4GVAMOmT0vGtxqgydj6yHU0Y7eQKK+AbSixIK0fCA+UfXimXPcm6q5NiYURiv3hapmfIUospHMf84fihvX/Rg7JQ4GVAJuXhz+b/HMkgSa66D8aS4dt7A+84w3Kz577phqWV98tblh3AuUVksv3iOLoxlzn3APIIsVrv/4FD5Yr5cMkuydRd2/XIZ7166e2n9PGp4Rib89/y+wjvO4E6btV65O6/qqtBJE8FFgJUSgXLpHsfpJAE3gkjipHDPaF3xEF8h3hjYoz19dw8uq9LDjQAPY0ZW5hEivdNg8s+EusobdJuiNhP9rrh1sm3MwkFiSp2BuWyCO+nRCpYWY3FfvDt0gimSiwkmLgis3mOp8g0OAe8diOGFw+73aiAI8NAs+FxwkhDfYtfNizdoSkRP3Sh8cJMVKxP1ztZrMllUkDTa5cscpZxJBcFFgJUugPfZL9iCTQmOxhV3x4aUW4gyxAeQWMBiUWpNLS8EhkWw+TW6LeGUmJhaccp72h30WJhSa/K5s+zy/ik40CK2HnTMUrnxAjumg49rBHOrzUN+9OskAtyyuXfZ/yCg1+66fEgjb2XrI+M0FHS0rUt/ZSYmGkUl/4irt1SjZMGmhC6yw71EMMyUaBlTCb+uf9WrIvkwQayEMe6fDS8rCKKFDr8qo0XrywHU2AEgvShmvChmx5y9Fy/W+Sfi5KLIxU6g9fNY9PlIz3TaK57sSyucVrL36cJJKNAiuBYg2dJ9lGkkDSmexBy9hbKK8gUV4Bu3hUU2JB6wcu3TipZfBISSsTdb+nxMIIhf6e71gcnyiJezCaxarSWi0hhuSjwEqgwb6FD8vii0kCSWayBy0uzywsC/eSBiivgDE5uimxoIeXLhqclB08TtLNibrvU2JhhMKKnutNdqJkm0kDjS6K7SytDLzfrRE+KyJIpuJwdIWk1SSBRG6xTA9YXJ65ccX8P5AGKK+AMT3KKbGgh5cuGsyX7HiTbkzSz0WJhZEKfeF7rsqxkkqkgcZl39i4IvyAHBoDBVZSDYQhmZ9NEEjgRf7+jIzyCpIor4AqHe2UWNCa68KmwoZ1x8n17UStAiixMEKpb96t8vgdkhVJAw1oyKx8DjE0DgqsBCv29vyPy75PEkjQsvX+KFueubE3/JEsQHkFVPWop8SCdP1VW4sVe6+kbyVqNUCJhZF7lv55P5L0DkkF0kCDubzQO//3xNA4KLCS/wl9kq+qRUL8KeM6bOPS+fcRBWpaXpl+QHmFdKLEgqSBMFQsW7ukbybpx6LEwkjFvnBb5HaEZOtJA43BHm6JjPdONxgKrIQrLQ+r3P0LJIE6X+B/Xy6X37yhP/yJLFDz8mqcvZvyCulFiQVtK7Hya98n2dcStTqgxMIIG/vDLyKrHCVpHWkg+dsbnbtueWBqsMFQYDWATLS1W7LHSQJ1srpcHp65eWDBX4gClFdAPVBiQdKSJcPF8p2zJC1L1B6QEgsjbOyd98uKx0eyd0Gi76qmXxWn61qSaDwUWA1xI7hkvSm+iCRQh2XpPRU3yitIorwC6rzcpsSCNDBQKZZXnSbZlxO1WqDEwgib+uf9OjYdKdmjpIEE3k/d4vhMhRCTReOhwGoQhfJdn5fsdpJADd1dyQzN3NQf1hAFKK+ARCy6KbGwrcSaodMl+1KSfixKLIw02Bt+43H5bZKtJQ0k6k6qqPeJLx5AA6LAaqDFiktnEgRq5O5KZvjwTcsWsuhA7cur4QIvbAee/SyhxIIUQlzsC/9k0ueT9GNRYmGk0or5dylTnimJX4YiKVepzS1lnU8OjYsCq5FuAn3hZiXsa5TRlBf2u+KyzaS8glSn8mrgis0kDzzn2UKJBUnyQt9F/+KyqxK1iqDEwgjFZfPvUWwzJf2ZNFD3i6bFF68fCA+QROOiwGq0DyyufFKyrSSBKi07fyvprYMD4SGyAOUVkOhlOCUWJMlLfeETLi1O1GqCEgsjFFeE1Rm3t8jtPtJA3a5Lsgdbi9HnSKKxUWA1mI0r5v9B8itJAmN/UddvJB1Z7AuPkQYor4BGQImFbQdCqe+is0y2IFHrCkosjLChP/wpEw3PlPRH0kA9xNKn11wXNpFEY6PAakDjJ26ezwsRMaYrX9mvvWWI8gqSKK+ABruCU2JBklToC3PMbV6SfiZKLIy0oXfB/dmyzZTrXtJAbW+V9uNSXxggiMZHgdWAHrv6sqJcc0gCY1Qg/Coq68jitRc/ThqgvAIa8kpOiQVJUqE/dMv83CT9TJRYGGn9QHggrthbJK0iDdRIHG37MjQnisZHgdWgivvqGrn9nCSwi8vKX0bDdlRhIKwjC9S0vJLdQHkFjOlZRYmFbWvE3p5LKbGQZIMD4aFYw4dLdidpoAZXoP/e2B9+QQ7NgQKrUYUQyyqfkJwmGTvrF5FtobyCpDqUV+WN76a8Asb87KLEgqQnSiy3zyRqC0mJhREG+xY+7FkdLtntpIEqXnmKcVnd5NA8KLAaeXHSN++nrqifJLATftIS2REbey9ZTxSgvAKaCSUWnlgn9odFkn0qSb/spMTCSKWl4REvbz3iiW/BBqogvohvV28uFFgNrhLpbMkGSQKj39vYj8dP3HzMuuWhQBigvAKa8kJPiQVJUrEvXO7SRyixkFSlgYsfjWzLTF6NgiosPO8tblj//wiiuVBgNbjNy8Of3ePPkgRG6bbxkzYd+9jVlxWJApRXQFOv3CmxsK0g6Ov5glz/LClOys9EiYWRNvZesj4zQUdL9n+kgTG7zsjP1PVXbSWJ5kKB1QRaB6PPuukBksB2LuO3TMoOHkN5BUnKz577JsoroNn5HlEc3ZjrnHsAWaRbsb/nizI/QwkrsTzr1085LUzhE8KGa8KGbHnz2+X6X9LAGKw9v1/o7/kOSTQfCqwmsOa6sEmyc0gCz+GHE8p618NLF/G4KbZNXsWZ6ymvgFTY05S5hUksFHt7/tvkJ0sqJ+jHen15q27On3re8/iEsH7g0o2TWgaPlOwW0sAuKCvWp4mhOVFgNYlSb+iX9EOSwDMVCMVy4ZhHB0KJNMBjg0Aq7wQ8TghJUqGvp889WSWWyQ+24XE3UmJBkh5eumgwX9JxZnYTaWDn1p/6f6UV4Q6SaE4UWE2k4vGZStBoOBJwATf9gAIBT6K8AlJ9R6DEgiSp1N+zwt06JRtO0IbzIBsed2O+M+zOJ4Q114VNuaLe5bIbSAM7aJ21DM0nhuZFgdVENvXP+7XcvkQSeML3SuOMAgGSalteSfrh5GzpRI49IGkosbBNqT98VZHeI1liXnDs0kGSKLEgaVuJVdrw+PGSXUcaGPV1xHxO8dqLHyeJ5kWB1WRiG7pAUoEk0n711reLG9adoGvCFsJALV/YbtKNxXLhGN63BiT2BrHtxe6zw/5kkW7F5eHbUtyepBJL8tdIflOu/bw9+ISg66/aWtzweLtkvIwbo1mF3l4avmsJOTQ3CqwmM9i38GHJGZtMt+8WJ1g7XxsLqbYvbJf0w4nZwROYvAISb0+L/ZbcrDn7EUW6Fft6rjPpBMmSdN1+tWXH3zrp5POfzycEXX/V1mJZ75HsG4SB5xIp/pQGBiok0eyfM5pvMVKOrpS0miTSyL5T3LDuPUxeQar9Y4OTsoPvYPIKaBh7WpS9oW3WnJcTRboV+sL3XJVjJSXoy158v0yl5WZKLEiSBsJQsXxnu5t6CQPPsgf62sa+Ht6ZlgIUWE16kZfbZwgifRfuYn7NiUxeQaK8AjCqkuAFHmVvaTtlzj5kkW6lvnm3yuN3SFZM0I+1b6Yy7pZJHWEanxA0MFApDa86VWZLCQNPM2QZnUsM6UCB1aSK/eFbkr5HEqnx1WJ+TaeWLBkmClBeARgtl78oLmdvmdJ1wUtII+1rx3k/kvQOJepdqj4jY7qZEguSpIGBSnH4zg9I9mXCwIgb2aLCsnAvQaQDBVYzn8tx5ZNJ+opkVIfJBoprjfIKkiivAOzUiuElFW+5gZIAxb5wW+R2hGTrE3R8zsiY3zKx/YIX8AlBAwOV4gydLvHN65Ake7glY5eSQ3pQYDWx0or5d7n0nyTRxJds6SuFterSylAmDdS6vJpQtndSXgHNwl+ZMd08uT3sTRbptrE//CKyylGSJemr6Kdnsy2UWNgmhLjYF/7JzP6dMFK+FzKdvW55KJBEelBgNbmMbblQ0mMk0YQXbKm/sNZmU15Bqk959ehAKJE80Ex8RpT17+dPPe95ZJFuG3vn/bLilaOStYb0V2azLbdMnB1eyCcESV7oDR93078RRWp3Q78sTNcyckgXCqymX4Bcst7dA0k02R1b1ldYa6dQXkGivAIwpl5tw+NubG0PuxFFum3qn/frOI6PlOzRBK2AXpmN/UdTOsJL+YQgyUu9F53p0mKiSN1H75LOVAgxWaQLBVYKlCp3/aek35FE07i6NEMnU15BqnV5ZT+ivAJSsC2QDvKsvrvb7NBKGuk2uGLebz0uv02ytQn6sV5aMa3k2zPx5CWr1HfRWSZbQBQpYtGyYl+4jSDShwIrDQYGKi47iyCawtXFGfYhftsAqR7lld5BeQWkZk/4D8OxX79He8iRRbqVVsy/S5nyTElrEnR8vqRSyaxs6wov4xOCJBX6whyTekgiBXcn06bssOaQRDpRYKVl8dEXbpb0TZJoaP9FeYUnUV4BqIE3bsn69Xud8unJRJFuxWXz71FsMyX9OSk/k7leXJHfQomFJxX6LrpQ5ueSRJNzX7h+IDxAEOlEgZWmD9vsU5K2kEQjsi8WZ9g/U15BorwCUFNvHiznvqHTwgSiSLfiirA64/YWud2XmNXRkyXWrDkv5xOCJBV7ey6lxGriHZHswdZSdAVJpBcFVops7A1/FC85bDyuJcW+QHkFSZRXAOqxYfCj8lv9Gzr24+NJI9029Ic/ZSs6TLI/JOb4dL3Yo+wtrSeHV/AJQXqixHL7DEk0n9j1yTXXhU0kkV4UWCkzoWwLlKh3GOA5F2Wm/yz2X/RhSU4aoLwCUEfH5Kc8r09nnNFCFOm2fiA8UPbhmXLdm5SfyeUv8opTYuGviv1hkZt/9Ilvq0NzuK3UH75GDOlGgZUyjw6EkswuIIkGYHZFofeij4ryCqK8ApCImuDEfPH5vTosZMki3Tb3L3gwrthbJK1K0I/1Qq/4j3Kzw/58QpCkUm/Pf7j0EUqsphBHFp/JvggUWClUnK5rJf2MJBLt8mJv+CQXaUiUVwAS5aT88/2/FQJryJQbHAgPxRo+XNIdCfqx9rZYN1Ni4Umlvp4vyPXPkngVR0OzL27snfdLcgCLjzQKIZbiM/ltRFKvz1pU7LvoUwQBifIKQCKdmr9H/0WJhcG+hQ971o6Q7Pbk/FS+l8W6Odc59wA+IUhSsb/ni3L7kCixGlUhLisQAyQKrPReyPvm/dQV9ZJE0thni70X8dJJSKK8ApBk/oH8Pf4FSUYW6VZaGh6JbMvbJP0iQcfnXqbo5tys8Co+IUhSsT9cbfKTJZVJo8F2R+5hcCA8RBKQKLBSrVIePkeyQZJIylrLLi32hbMJAhLlFYCG8MFcZ+DrzKGNvZesz4y3o5SsV1TsaZHfRImFJxX6evrcKbEaa3+kewuV6N8JAk+iwEqxzQML/uLSZSSRhIuzXVrsD+cSBKRal1e6jfIKwM4y+SfynRd+jiSw4ZqwIVvecrRc/5ugH2tPi/ymybPnHsgnBEkq9fescLdOyYZJowHuMe7/qoEwRBJ4EgVW2i/i5Y2flfQnkqgfdw+UV3hS7csrO5byCsAu+mRrVwjEgPUDl26cULGjJK1M0I+1ZxRnbprcGV7NJwRJKvWHryrSeyTbShoJ3iPJbiis6LmeJDASBVbaDVyx2WXnEESdLszm3aX+notIAhLlFYAGvp+5X5jr7L6AJPDoQChNyg4eJ9ktCTpC94iklW0d4bV8QpCk4vLwbTO9R9IW0kikslQ5ixjwdBRYUKkvfEWyW0mi1ot9m1vq7ZlHEpAorwA0PpPNz3d180sx6OGliwbzJR1n0o0JWnlNjU0/oMTCkwq94bsmO1GyzaSROP9W6pt3JzHg6SiwIEmKTWdKViGJWq3y7YJSf5hPEJAorwA0EbdL8h3h0wSBNdeFTYVy4V0uuyFBB+jU2PyG1llzX8cnBEkq9IXvuSrHSmJdlJyN0qOZ8cYv+fGMKLAgSRrsDb+RdDVJ1OKa7OcWe8NCgoAk5WfPfVMNy6sfTsoOHkN5BaC697n4snxXOIMgoIErNpfG610yS9J7bKZ4FH2vrWvuoXxAkKRS37xbXfZuvp09GVzx3A3XhA0kgWdCgYW/XSyymiPZRpKo8rrerYMXiUJ6oryKM9fXqLySyfbZXJn0ZpIHUOWrjcn9P/Kd3e8nC+iasEWKv5awn2q32DM38Dgh/iqrO+T6DUHU/f7x21L5rv8iBzz7fgYYuaHu7P6UZItIouqn3rBclxdb18zVkiV8jW8az7XaPjb49L3l0vETNn3ssasvK/JJbEd7eyaf3b9MEMBOXWwqZvH7C709y8kinXKnhD1t2P9D216WncRjdKNFOqawPPwvn1aKj9Ou7nbz6N8l34M06svdZpb6w0qSwLNhAgtPUSxHV0l2D0lU/fLcIvNz8sVpP5/cFQ4ij3Spa3m1bXVwytbNk26f3NF9BJ8GgCpebDLu0ZdzXaGDLFJaCpT9zuSWV5LkbR7re62zwz/yiaXPlNPClHzHhV8wt69QXiXCVymvsD1MYOHvN9ezw3GK/TqSqJktMg/F4bsWaWCAF+k3+/lV7/LqqQt3l9sXJ1TsU7wX61kwgQWMxXJzWK6Tiv3hW2TR/HLt5+1h2XGfl3RSAx2jg67KO0t98/hW7pRo7QrvcPcvSppGGsnYD0XZyv4bl86/jyjwnFdrIsAzbrI7L7xe0jEkUdPT8f9i6YzBvvA7smjS86rG77zaAX+M5B/e2NdzA5/S01BgAWN1j9tq0gmFvvA9smhe2x7Fsv8nac8GPEaLiirHFpfP+zGfZDPvccLukl8h6WTSSNDZJ1tQ6AtzSALbP1aAZ7647yvpd5K3kEZNld30+cmZwfMfXrqIb0JppnMqUZNXz7p4GIjLWz9WGrj4UT6xJ1BgAWN5ldlqcXxiYUXP9WTRXCZ1hGkZ+VXJflxwVMfooFt8fKm35xY+1ebDu64Se979ZUJZ+/I0AEa3XwGe7SLfGRab/BMkURd/jGL7yMYV4QdE0fgaobwacVtYL9O5xd7wRUme+g+PAgsYU27apNjeyXtOmkQIUX61PijXosa4x43yGJUfR4nVPNq6wssq8v8w19GkkcCVp+yUQl9YRhIY3fECPOvF/typsY9fLWl30qjLEsolWyrZp4p94THyaEwJfmxwezeHG5WxjxSWhXtT/QFSYAHVuMIUpcrbi33zfkoWjWtSx9yDMxYtkfTaJjxGB911HEVrgzvjjJZ8ce9PS9FcyScSSCLPtf8r9oU3iF+aYvR7FODZ5bq6P2JunyeJulrnsrml8p1f4CXvjaVRy6sRtphpUa5oF6+5LmxK5YdIgQVUawm60eLKUYUV835OFo1lt9mhddgV5P5xSdkmPkZ5nLCh9zDhreb6f5IfSBpJ5W7ubyj0z/s/ssBoRUSA51IavmuJZL8lifquFU3+7/nsAb/Md8x9C3E0hnxHeGODl1eSNMFdc4o5rW7tCqeKX3oAGLuNS5tH0Q/auuYeShYNw1q7wqnDsd8j97PU1OWVJPlkyb49uSscyUffOCZ1hGn5rnCtebyS8irpomspr7DDNyIiwPbkurpnmtvNJJGU9ZS+nYnK/7Khd8H9hJFMjfXOqx26ZdwaR5WPDy6fd3tqPkwmsIBqe8xjm1laEe4giuRqmxUOiSO/StIbU7hd2hwpfjff1JtwZ5zR0lra+6Pu0bzmW381pVLFbcam/rCGKLBDV2QiwOg25Bd+rfG/Waa5Lvouv6S1FF2R2ke7knquNP5jg9tTdtd/mtlFqXg3GwUWUIvl6MOSDiv2hbvJIlkmd56/V6SWhZJOU6qf3LDNZvGJhd6e73NUJHGfEt4l0+WSv5w0GuWUsguKvWEhQWCHDx0iwGi0nTJnn7icWSVpAmkkyhqZXVRco6u1MrDJrv8Cqkknr55RSW7/Pn7SpgWPXX1ZsWn/lRRYQK2WpJRYCTLt+DCpmI8/LrfzJbWSiCRpSPKTin091xFFQvYnHeG1sekyyWeSRgNxu684QfvrmrCFMLDDqwUiwOg35xcukOl8kkiku928u9TbM0AU9To/UlVejbyN/EWmnuLwnf/dlF8yQIEF1HBRag9atvy2jUvn30cadRJC1LpaJ7vrEsmfTyB/Z0hu7cX+8C2iqJ+p7eHF5YxfINMHxTudG46bvbfUG75OEti5tQIwSnu0h9yWrN8jaRppJNZKKT6fryavrRQ8Njia28ntsnhusbfnW2qmr0KmwAJqvbO5r6zht23uX/AgYdT4XrbtMaxLJN+PNJ7zfrdVkU4qLg/fJosaH6OdYXeX5pj8I5LGkUhDnj+3FPvC4eSAnT6CiAA7duPofr9k15BE4jcAP3ZpTqk/rCSMqi/4Uzp59ay3ldvd4nml3p6vqhmKLAosoA73MN1bkb2Nl/vWxuSucGTkmi/5P5DGqA1JNqvYF75JFNXX2h52U4v+1d0/IWkKiTTsGrESS4cM9oXfkQV2+igiAuzoMZPvDD9lkdMomwCKrGqivHpOv3Pz+Q1fZFFgAfWyOi7b2wYHwkNEUR0UV7u8JB6Wx7OK/T3fIIsqrbNOPe95Vh7/cYqrJjlj3P6j0B8+ShLYpeOICLCjWmeHf/Q4/olkHD8Nwk0/kNulpb5wM2mM0aKKxwZH6xfudmlpX31dIcQN99NTYAH1XKberpatM4vXXvw4WYxdqK0d3e9ws25JryeOXY5z2E0dvM9nbOXaz9vDMuPOlNnHWWc1jQ2SvTIV32CN6l51iQA7tXnvvHCppJNJouFO+N/I7IrCGvXyrYW7cPwzebXj3O6zKL4yV4y+uOa6sKlhfm4KLKDed67fWlmHFwbCOrLYBWec0dJamtbp7p+R9CoCGdNjtGKuUwv9oZcsdk3bKXP2qVQyZ0r6oLkmkUgTnSXmZxZ6e64kCYzBfhbYcRPbL3hBNttyj+STSaNRywRdPn5Y1zw6EEoEMnpMXu2yR9ztKrVoSWlpeCTxPy0FFpAEP2uJ7Kh1y0OBKHbMbrND63BFZ8j8E5JeSCJVU3bzLr4Neue0doXXbytX7UTJMyTSdO4u5te+WkuWDBMFdhUFFnZarrP7ApPNJ4mGvgRsdPel8srnSyvm30Ue2znmO8JhZvoW5dWYHHtbJR+wyP69sDz8b2J/TAosIBncfjyhomP4pcvo5E+eM8Mr2Y+YdJrkbSRSE2V3P7nU37OCKEZzfw3jci16j7l/TNKbCaSZCwc7ttAXvkcSGJvjCdhZp4UJ+a1+l6SXEkbD7wxcila66/Ol1jX/w29InuawkG2dpjnumsNvBqtyK/qlXJ+f1FJa8fDSRYPJWmBTYAGJuVPJfm1SV7Ev3E0az3yvyk3TuyLpo+7x4byrtC73s4p7PK9UuWu+BgYq5PH3JnZc8KIWa/lnlz4o+V4k0vTnxHeKfeE4csCYHVFEgF2R6wgnmTnj0s3lEZd63ezLg73hN2kPY1LH3IMzlvl3yd/AoVH1W1JR8gF5fE2xf95tSsK3F1JgAYnipk2K7VOlfbWkIb8YogpaTw6vUFmnuul0yV9AIolwW2T2/o294Y9EIak9jMtn9Q7JPyDZO/llYGoMKVN5dXHZ/HuIAmO2WyAC7Kp8Z1gp+dtIoikvEb81j79czpb7Ny1buDZN//LJ7WHvKKseyf9JUsSxUOtdqu71yK+NoqivsCzcW79FNwUWkMxrhP1cVvlEsW/eT9P4z5/afk5bOTuxXfL3S/4mpq0SaYtkV0woa2FaH31t65p7aEXRqebqkrQ7h0TqXF7su+hTxIAx3Z0SAXZ5oz9r7muiKPNLfpvS1GLJfmwWf23Yoq9tXh7+3LyLrfAyj/VpN/+ApAl89AnYp8p+bYoHLBMN1LzMosACknx1cMm+FsV28cYV4VfN/q/doz3kNmfid0YWvdel4ySfyDHQENuttZIWTShrSRqKrNys8CpZ/F6zqF3yA/j8U+uRbHnL9PUDl24kCozpFZUIMBbyHRd+QaYzSCIlGwa3/5P5tyru39vUP+83SsKjXrsihCh3jw6L5B9yWTtlbIKPPtmvI/PvyOw7hVfqZ1V/hIgCC2iUa8MNki4p9YWbm2p9dep5z7Ohlne4ovfK/O3iFyuNbJ25/Xtc2XpVaeDiR5tpP9nWNfcQ98yJLn+vpH35qCH3M4r9PV8kCIz5BYcIMBZy7eftYdlxqyVNIY3UeUiu73lk34+joVsb6VHDybPnHhjF0cmSusTXizeixyR9z9x/MKzKys39Cx4c87+BAgtosE2T7rXIlkvl5YXe+b9vuJ8/hKj1rsqhcZQ51tyPldnr+KVK0xmS9D03X1YaF12na8KWRvsHtLaH3eIWHW2uYyQdw8vY8bSC4TeF8qrX8kUGqNLxBYzRzayj+yw3u5wkUn9Z+b2k22T6oVz/W5yh1Yl50e5pYcLkLfGbosiOkduxjLY3nT/K9UNFdqubflZ6pe7e5WOPAgto5PvR/5nHKzwbfzexLxE+LGRb96ocLLM3u9lbJb1ZvCsoTcfoRklfl+JvTMpuujlx38T7hFz7eXtYpuXNbvZWk71F0kEUq3g2rviwUt+8W0kCVblqEgHGzBlntOSL026XfAZhYISSpN+46VcW229llbvUUl5dvPbix6v6t7a3Z/LZA17pFh9oHr1OrjfK9FrJx/ORpOYWV5T0K0m/kOLbLfZV4yZvvfuxqy8r7thxRIEFNP6Oyu6TdLMi3aaKflJcEVbX/GcIIcrfW36llbOHuukQyQ+V9FpJOT4gSLZV8h+b2Y/M4x+3TNzyvzt0vxoju80OrUNx5WBT5lCXDjHptaztMfpywQYKfeF9JIHqHWPAGGrtCu9w9++QBEbhMcl+b/IH3ewv5nogNj2UqWidq7JeGd9QGc4Wsy1btkrSxuGtW9paxk+QpKHhzKRxLS3jpcpUl+2uOHqeoniP2KN9zPVSme8jabp4VwieeXH1oMvvk9n9FutPbnpArkeUqTwu88dUyT4+oawtjw6EEgUW0LQ2SHa7ue5QpFWK4/ti8z+1ljL3rbkubNrp/2r7WRPzUduLPBO/IFL0IslfKdd0SdNj03RzTSJ6jFIs1x8l/c5Md8j9XrfovnJ5+L7NAwvWaBfePzq5PeydjTQtNr3QongfuY08Rl9M9NjJFdbmjGv/Df3hT2SB6q3jgTGW7wrflfuxJAGgCW6TW5naA1Kn5KZ1kh6LXOtcGjLZ4LZGQUORNE7b2oMJkk922VRzTZFpN8nbiA81uDdVJK2T/HG5PW7mm91VMLOK5E+8d8gyTxyzU0w+WbKp2vau2t24r6EqR6VpfqH3orkkgWrKEgHG/OIV6V+9ojv1xAIPABoXi3wghXLmykl68ZMjLv7EsIvp78deTM6vhFHre1NG0h6S9pA9cXTa347TJ4/aJ4/Zkf83UKUd4F8mZkqXFAgCVcbL9zDmtv5u5brxr565m6Q3kAYAAAAANC9z+8i63oW/IglUW0QEqIYWU5D0EEkAAAAAQLOynxb6Qx85oBYosFAV65aHgssDSQAAAABAU4rNdKZ4RhU1QoGFqinNiL4o2S9JAgAAAACajX250Bt+Rg6oFQosVE8IsaQzJaeRBwAAAIDmUapkhi4gBtQSBRaqqtgXbpPsayQBAAAAAM3CFmxatnAtOaCWKLBQdWUvf9JNm0gCAAAAABreH4vjtZgYUGsZIkC1le/4UWHCq2ZOkvRW0gAAAACARmanDy0Ld5ADao0JLNRErqSFbnqAJAAAAACgYd1c7AvfJAbUAwUWamLNdWFTFPsckgAAAACARmSVWHYWOaBeKLBQM4X+nmWSbiMJAAAAAGgsZvrPwb7wO5JAvVBgoZY8svhMSTFRAAAAAECjsPXuCuSAeuIl7qiprbf/cO34Aw97uaTXkAYAAAAAJJ/Jzyn2XbSSJFBPTGCh5mINny2pQBIAAAAAkHR2VyH/0H+SA+qNCSzU3PAdPxoc/+qZkaQjSAMAAAAAkstkp2798udWkwTqjQks1EVxWIsk+z1JAAAAAEBifavQF75HDEgCCizUx0AYctO5BAEAAAAAiTSk2D5DDEgKCizUTak3fN1lN5AEAAAAACSNXVlcEXh0EIlBgYU6q5wlqUwOAAAAAJAYj2TLmxcQA5KEl7ijrobu+OGjE1418/kyvY40AAAAACABzD+xccXCnxIEkoQJLNRfRXMke5wgAAAAAKC+XPbr4vToSySBpGECC3W3ddXKzRMOPGxI0jGkAQAAAAB1ZNYxdFX4E0EgaZjAQiIU1ur/SbqDJAAAAACgPkzqL/WGH5IEkogCC8mwMpRjs7MIAgAAAADqwTZHVj6XHJBUFFhIjMHecKNk3yEJAAAAAKgtM122oXfB/SSBpKLAQrIumhmdKdlWkgAAAACAmvnzxEzps8SAJOMl7kiUrb9buW78gYdNkfRG0gAAAACA6jP5h9ctv/hXJIEkYwILiTN+4qaLJD1EEgAAAABQbfbTQl9PPzkg6SiwkDiPXX1ZUe7dJAEAAAAAVRVbXPmEJCcKJB0FFhKpuG/035J+QRIAAAAAUCVuXyqsmPdzgkAjoMBCMoUQK4rPlJzfBAAAAADAmLNiJTs0lxzQKCiwkFjF5fN+bLIBkgAAAACAMTd/07KFa4kBjYICC4k27OVPu2kTSQAAAADAWLE/FDc8fiU5oJFkiABJVr7jR4UJB8ycINPbSAMAAAAAxoDbB4a+edkqgkAjYQILiVeobLzYTQ+QBAAAAADsspuL/eFbxIBGQ4GF5Bu4YnMkP58gAAAAAGBXWCWO4jPJAY2IAgsNodDb0yvZj0gCAAAAAP4/e3ceX1dV7n/8++xzknTISVoGkXIVRGQuDoizUMQJFceb2yQMcvFa7+/ei4AiY4fdlklAUXFERaBtkhpxAsQBsAICoqhQyiyTWIZS2pxz0jbJOfv5/dGiDKXNcJKsfc7n/Xr9Xj/1QrvP86y19lrPXnvt4XHpm71LFi4nEkgjClhIzVgbJTpeUkIoAAAAAGCobI3V9c0nDkgrDnFHavStWPZ4w74zXiXT64gGAAAAAAyeu3+huOTM3xEJpBU7sJAqiQ2cIilPJAAAAABg0O4qNj1xEWFAmrEDC6kycOcNvQ3TD5akdxMNAAAAANg6Mz+y75Iv30ckkGbswELqFEr6smT3EwkAAAAA2Kqf5jsW/IowIO0oYCF9uuN+eXIygQAAAACALeo3K59EGFANKGAhlQpdC37ipl8TCQAAAAB4CW4X5DvO4O0VVAUKWEgvsxMklQgEAAAAALxowfRktrz+bOKAasEh7kit/uXLVk2YPuPlkg4gGgAAAADwXP7ZnqVn3UIcUC3YgYV0K9kcyVYTCAAAAADYyE1/LuwRXUokUE3YgYVU67tr2foJ+87YINOhRAMAAAAA3M29tf/rCx4hFqgm7MBC6uWf0DclW04kAABnxnFsAACAAElEQVQAANQ6N+ssdC28gUig2lDAQvoti0uJJycQCAAAAAC1zdZnVTqNOKAaUcBCVejtWnCtZFcQCQAAAAC1yqVz1nacyauDqEoUsFA9jTkpnSBZH5EAAAAAUIMeayrqfMKAasUh7qgafSuuX9MwfUaTpLcTDQAAAAC1xN1nrf7x/L8SCVQrdmChqjRMXLdQsseJBAAAAIAaclOxa8EPCQOqGQUsVJWnLz63IEvmEAkAAAAANSKJ3I6T5IQC1YwCFqpOYffoB3L7I5EAAAAAUAMu7umK/0QYUO0oYKH6xHEi6XjJeQIBAAAAoIpZoZwZmEscUAsoYKEqFbrim0y2lEgAAAAAqFquBesWn8UZwKgJFLBQtQYi+4JkvUQCAAAAQPWxvxV6Vl9IHFArMoQA1aq0fFl+wn4z6iXNIBoAAAAAqkpkn+z/8bl3EwjUTJMnBKhm+YGeL0r2CJEAAAAAUC3M7NrCkvhKIoFaQgEL1a37gvWm5FQCAQAAAKBKlJKyjicMqDUUsFD18p0LOiW7gUgAAAAASDuXfaO4NL6TSKDWUMBCTSh7+ThJCZEAAAAAkGLPWF3fQsKAWsQh7qgJA3de/0TD9Bk7S3o90QAAAACQRm7++eLiM68nEqhF7MBC7Qz2WTtVsh4iAQAAACCF7iqujL5LGFCr2IGFmtF/x7LehukzEknvIRoAAAAA0iRK7Ii+q+L7iQRqtg8QAtSSQklfkXQfkQAAAACQGq4f9yyNf00gUMsoYKG2dMf9Mj+JQAAAAABIiX6LyqcQBtQ6ClioOYWOBT9z2a+IBAAAAIDw2ZfyHWfw6iBqHgUs1KakdIJkAwQCAAAAQLjsybpI5xAHgEPcUaP6V1z/dP2+B73MTG8iGgAAAADC5P/X0zH/VuIAsAMLNSwT9c2V9DSRAAAAABAaN/25sEe0iEgAm9bwhAC1qm/5jRsm7HfwekkfIBoAAAAAwuFuimb2fz1+hFgAG7EDCzUtP7DiW5ItJxIAAAAAwmFLCp3xjcQB+BcKWKht3d1ll44nEAAAAABC4KZ12ZKdTiSA56OAhZpX7Iyvk9vPiAQAAACAcZfY2Wu640cJBPB8FLAASVGkz0nWRyQAAAAAjBeT/b2pV18mEsCLcYg7IKlv+bI1DfvOaJTpHUQDAAAAwHhw80+vvnz+7UQCeDF2YAGbNExad6ZkjxMJAAAAAGPO7ffFjgU/IhDA5lHAAjZ5+uJzC3LNJhIAAAAAxlgSReXjJDmhADaPAhbwHIU9dYmkW4kEAAAAgDHj+l5Px8LbCATw0ihgAc8Vx4mUHC85Tz4AAAAAjIV8UrZ5hAHYMgpYwAsUOhfe7Iq6iAQAAACA0Wfze7vjJ4gDsGUUsIDNKEc6SbJeIgEAAABg1LgeKKxd/Q0CAWxdhhAAL1Zavixfv++BdWY2g2gAAAAAGA0W2ZF9Pzn3HiIBbB07sICXUCwXzpX0MJEAAAAAUGkmXZPviH9BJIDBoYAFvJTuC9a7+ykEAgAAAECFlRIlxxMGYPAoYAFbUOxasFTS9UQCAAAAQMWYXVjsXLiCQACDRwEL2IqyJ8dLViYSAAAAACrgGRvQGYQBGBoOcQe2YuDO659omH7QKyS9gWgAAAAAGAl3+1zhh/ENRAIYGnZgAYO5yWTtdMl6iAQAAACA4bMVxSf0PeIADB07sIBB6L9jWW/D9APLkr2HaAAAAAAYjkh+RN+V8x8gEsBw+g+AQSmUoq9Kuo9IAAAAABg6u7ync8FviAMwPBSwgMHqjvslP5FAAAAAABga67OMTiEOwPBRwAKGoNC54ApJvyQSAAAAAAbLpPPzi2NeHQRGgAIWMESelD8n2QCRAAAAADAIT2QjnUsYgJHhEHdgiPpXXP90/X4HbWfSm4kGAAAAgC0x9/9Z2zn/j0QCGBl2YAHDkFFfLOlpIgEAAADgpdlt+T2jJcQBqMQ6HMCQ9S2/cUP99IN7Tfog0QAAAADwYu6Szez/evwIsQBGjh1YwDAVSyu+I+kOIgEAAADgxWxRoTO+kTgAlUEBCxiu7u6yy04gEAAAAACey03rSl6aTSSAyqGABYxAsTO+TrKfEAkAAAAAzzLZmeu7zvw7kQAqhwIWMNJOZDpR0gYiAQAAAEBuDxXq9WUCAVQWh7gDI9S3fNmahukzGiW9g2gAAAAAtc3NP92/eP5yIgFUFjuwgAqYULIzJa0kEgAAAEAts98WOxdcThyAyqOABVTAqu64KLPTiQQAAABQq6ycJGU+8gSMEgpYQIUUOuJLJd1KJAAAAIDaY+bf7V268HYiAYwOClhA5bhFdpzkTigAAACAmrI2GeifSxiA0UMBC6ig/JL4FlfUQSQAAACA2mGy+cXus1cRCWD0UMACKqxcGjhZsl4iAQAAANSEe/K5ld8gDMDoyhACoLJKd91QqN/vwIzJDiYaAAAAQHWzxI/qu+zL9xIJYHSxAwsYBcX66DxJDxMJAAAAoJrZVfmlC64mDsDoo4AFjIZL4g0uO5lAAAAAANXKBpQpfZ44AGODAhYwSoqd8Q8l+x2RAAAAAKrS1wqLz+DVQWCMUMACRlFiOl6yMpEAAAAAqomtyjToDOIAjB0OcQdG0cDyZU807HvQTjLtTzQAAACAKmH2ufyi+PcEAhg77MACRpmX+2dLWkskAAAAgPQz6a+FgRXfJxLA2GIHFjDK+u+6cV3D9INKkr2XaAAAAADp5kpa+5d+6yEiAYwtdmABY6CQe+JrknHAIwAAAJBiJusudi7kQ03AOKCABYyFiy4aME/4xC4AAACQXhsi10mEARgfFLCAMZLvWnCVzK4mEgAAAED6mNt5a7vih4kEMD4oYAFjyfU5yQYIBAAAAJAm9o+JdcUvEgdg/HCIOzCG+u9c9nT99IO2MektRAMAAABIBzP/n2eWnH0bkQDGDzuwgDGWbbD5kq0iEgAAAEAKuG7JdyzoIBDA+KKABYyxtZfEa901l0gAAAAAoXO3yI6T5MQCGF8UsIBxUCyv+K5ktxMJAAAAIGBul+Y74lsJBDD+KGAB46G7u+yWnEAgAAAAgGAVy7LTCQMQBgpYwHjdDTsW/Fayy4kEAAAAECI/a11XvJI4AGGggAWMZwfMlr4gaQORAAAAAILyYKEhuoAwAOHIEAJg/PTdcf3ahn1nTJLpnUQDAAAACIT7p/oXz7+TQADhYAcWMM4mlO1sSWxNBgAAAMJwXaFrwU8IAxAWCljAOFvVHRfN7FQiAQAAAIw3KycyPrYEBIgCFhCAfEe8SLI/EAkAAABg/Jj8O72d8R1EAggPBSwgDB5Z+X8lJYQCAAAAGA+2xmXziAMQJgpYQCB6OhbeJrMlRAIAAAAYe+aKC53x00QCCBMFLCAgyYBOkpQnEgAAAMBYsrvzTSu/RRyAcGUIARCOgbuWFeunH5Qx2buIBgAAADA2THZU36Vfuo9IAOFiBxYQmOLaNefL9QCRAAAAAMaCXZHvjH9JHICwUcACQnP1hX0uO5VAAAAAAKOuX4lOJAxA+ChgAQEqdsU/ctlviAQAAAAwikxfKyyNeXUQSAEKWECwyidIKhEHAAAAYFQ8lR3YcAZhANKBQ9yBQPXfef2qhukH7yTpjUQDAAAAqDQ7vmfpmTcTByAd2IEFhHxLLek0Sc8QCQAAAKByXPaXQmnFD4gEkB7swAIC1nfXsvUT9j1oQGbvIxoAAABAhZi19i/95sMEAkgPdmABgcs/EV0o2QoiAQAAAIycmS0tdsTXEwkgXShgAaFbFpcS0/EEAgAAABgpWx8lOoU4AOlDAQtIgd6O+BpJvyASAAAAwPCZ6dy1XfHDRAJIHwpYQFputhk7TrI+IgEAAAAMy2MTM8XzCAOQThziDqRE3x3LnmmYftBUSW8lGgAAAMDQmPy/n1ly9p+JBJBO7MACUqQusvmSniASAAAAwFDYzfnOBV3EAUgvClhAijyzJM67PCYSAAAAwKAltvGjSE4ogPSigAWkTHGP6LuS3UYkAAAAgEG5JN8R30oYgHSjgAWkTRwnisrHSc4TJAAAAGCLrFDODMwmDkD6UcACUqiwZOHvTdGPiAQAAACwBZacuW7xWY8TCCD9KGABKTXgA5930zoiAQAAAGzWg4U1a75CGIDqkCEEQDqV7rwhP2H6jImSDiQaAAAAwAuY/2f/T85bQSCA6sAOLCDFGgt2tpseJRIAAADA81xX6FjwM8IAVA8KWECKrbwiXhe5nU4kAAAAgGdZOYmS44kDUF0oYAEpl++Ml0i6kUgAAAAAkrt/q3fJwuVEAqguFLCAKrhHR5YcLykhFAAAAKhttsbM5hMHoPpQwAKqQE/HwtskW0QkAAAAUMvMNLfQGT9NJIDqQwELqBKJ+k+WlCcSAAAAqE12d75x5XeIA1CdMoQAqA4Dd97Q2zD9IJPsEKIBAACAWmPmR/Zd8uX7iARQndiBBVSRQin6kmT3EwkAAADUFLef5TsW/IpAANWLAhZQTbrjfjedQiAAAABQQ/rlOokwANWNAhZQZYod8Y/d9GsiAQAAgBrxlcLSmFcHgSpHAQuoRmYnSCoRCAAAAFS5p7KlDWcRBqD6cYg7UIX6ly9bNWHfg3eU6QCiAQAAgKrl9tmeH555C4EAqh87sIBqVdZsyVYTCAAAAFQjl/2lsKcuIRJAbWAHFlCl+u5atn7Cfgf2SfZ+ogEAAIBqY57M7P/6gkeIBFAb2IEFVLH8yugbku4kEgAAAKgmLussdC28gUgAtYMCFlDNlsWlZOOB7gAAAECVsPVZGziVOAC1hQIWUOV6O+Jr5LqSSAAAAKAauCdfXNtxJq8OAjWGAhZQCx3dy8dL1kckAAAAkHKPTa5bdz5hAGoPh7gDNaBvxfVrGvY7qFnS24gGAAAA0srNPrNmyVl/IRJA7WEHFlAjGiasXyDpCSIBAACAlLqp2BEvJQxAbaKABdSIpy8+tyD3uUQCAAAAKZRYkhwvyQkFUJsoYAE1pLBn9H1JfyISAAAASBW3H+SXLvwjgQBqFwUsoJbEcSK34yTnyRUAAABSwgrlbP8c4gDUNgpYQI0pdMU3maybSAAAACAdkoXrFp/1OHEAahsFLKAGDXjpRDetIxIAAAAIm/2tsHbN14gDgAwhAGpP6c4b8hP2ndEg6SCiAQAAgHD50f0/Oe8u4gCAHVhAjcqX8udI9giRAAAAQIjM7NpC54IriAQAiQIWULu6L1hvrtMIBAAAAAJUKlv5BMIA4FkUsIAalu+KOyW7gUgAAAAgJG76Zu+ShcuJBIBnUcACanxuECU6XlJCKAAAABCIZyzbv4AwAHguDnEHalzfimWPN0w/eBdJrycaAAAAGG8uO7G45IzriQSA52IHFgAl6j9VUp5IAAAAYJzdVXxcFxEGAC/EDiwAGrjzht6G6QdL0ruJBgAAAMZLlNgRfVfF9xMJAC8aHwgBAEkqlPRlyZgsAAAAYJzYT3qWxr8mDgA2hwIWgI26435JJxEIAAAAjIN+s9LJhAHAS6GABeCfCp3xT93EUy8AAACMtS/nO87gbQAAL4kCFoDnMztBUolAAAAAYIwmoE/WRXY2cQCwJRziDuB5+pcvWzVhv4N3kPQmogEAAIBRZ3ZsT0f8BwIBYEvYgQXgxXMIbZgj2WoiAQAAgNHkpj8XdtdlRALA1rADC8CL9C2/ccOE6Qeul+xQogEAAIDR4W7urf1fX/AIsQCwNezAArBZ+dLd35RsOZEAAADAaHBFHYWuhTcQCQCDQQELwOZ1d5cTT04gEAAAAKg8W19X0mnEAcBgUcAC8JJ6uxZcK+nnRAIAAACV5JacvaY7fpRIABgsClgAtjxIJOXPSdZHJAAAAFAJJvt7UyH6EpEAMBQc4g5gi/pWXL+mYfqMJklvJxoAAAAYKZfNWn15/FciAWAo2IEFYKsaJq5bKNnjRAIAAAAj4vb7YmfcTSAADBUFLABb9fTF5xZkyRwiAQAAgBFIIul4SU4oAAwVBSwAg1LYPfqB3P5IJAAAADA89v2ervhPxAHAcFDAAjA4cZzIysdJzhMzAAAADJEVkpLmEgcAw0UBC8CgFToX3myypUQCAAAAQ5PM7+2OnyAOAIaLAhaAIRmI7AuS9RIJAAAADIrrgcLaNV8nEABGIkMIAAxFafmy/IT9ZtRLmkE0AAAAsDUmP6rvp+fdTSQAjAQ7sAAMWX6g54uSPUIkAAAAsCUmXZPvWnAVkQAwUhSwAAxd9wXrTcmpBAIAAABbUEoSO4EwAKgEClgAhiXfuaBT0vVEAgAAAJvj0teLS+M7iQSASqCABWDYyp4cLykhEgAAAHiBZ6yu/wzCAKBSOMQdwLAN3Hn9Ew3TZ+ws6fVEAwAAAM9y888XF5/Jbn0AFcMOLAAjm5xk7VTJeogEAAAANrIVxZXRd4kDgEpiBxaAEem/Y1lvw/QZiaT3EA0AAABE8iP6rpz/AJEAUNmxBQBGqFDSVyTdRyQAAABqnV3e07ngN8QBQKVRwAIwct1xv9y+QCAAAABqWr9ldAphADAaKGABqIhCV/xzl/2KSAAAANQo1/n5xTGvDgIYFRSwAFROUjpBsgECAQAAUGvsybqMfZE4ABgtHOIOoGL6V1z/dP30Gdub9GaiAQAAUDvM7H/XdsS3EgkAo4UdWAAqKmMb5kl6mkgAAADUCrstv7sWEwcAo7rWJAQAKqlv+Y0b6vc9aJ2ZfYBoAAAAVDt3yWb2fz1+hFgAGE3swAJQccXy3d+WbDmRAAAAqHIWLS50xjcSCACjjQIWgMrr7i67dDyBAAAAqF5uWpcd0GwiAWAsUMACMCqKnfF1kn5KJAAAAKqU+1lruuNHCQSAsUABC8DoDTBmn5esj0gAAABUF5P9vakYXUAkAIwVDnEHMGr6li9b07DvjEaZ3kE0AAAAqoe7/dfqH8e3EwkAY4UdWABGVcOkdWdK9jiRAAAAqBo3FrviywkDgLFEAQvAqHr64nMLUnI6kQAAAKgKSWTJ8ZKcUAAYSxSwAIy6wh7RpZJuJRIAAABpZ9/t6Vh4G3EAMNYoYAEYfXGcSMnxkvOkDgAAIL3ySUkxYQAwHihgARgThc6FN7tZJ5EAAABIJ3OPe7vjJ4gEgPFAAQvAmCkPlE6SrJdIAAAApIzrgXw5+gaBADBeMoQAwFgp3XVDoX76jKxJBxMNAACA9DD3I/p+OP9eIgFgvLADC8CYKpZ6zpP0MJEAAABIB5f9Jr90wdVEAsB4ooAFYGx1X7De3U8hEAAAAKlQksonEAYA440CFoAxV+xasFSy3xEJAACA4H2t2LlwBWEAMN4oYAEYF4npeMnKRAIAACBUtirTYAuJA4AQcIg7gHExsHzZEw3TD3qFpDcQDQAAgPC4/PP5xfN/TyQAhIAdWADGb1KUtdMl6yESAAAAobHbi6W7v0ccAISCHVgAxk3/Hct6G/adUZLpvUQDAAAgHO7W1v/Dbz5EJACEgh1YAMZVoayvSXYvkQAAAAjGj4pd8TLCACAkFLAAjK/uuF+RTiQQAAAAQdgQZcsnEQYAoaGABWDcFZbEV0r6JZEAAAAYX2Y6v2fRGbw6CCA4FLAABMGT8uckGyASAAAA48X+0TBgXyQOAELEIe4AgtC/4vqn66fP2NaktxANAACAsWey/12zNP4TkQAQInZgAQhGxjbMl/Q0kQAAABhjrlvynfESAgEgVBSwAASjp+OcNS6bRyQAAADGkrspOV6SEwsAoaKABSAoxdKK70i6g0gAAACM2bLwsnzXwj8QBwBBj1SEAEBQurvLbn48gQAAABgTxbLrNMIAIHQUsACEN4vqWPBbyX5CJAAAAEabn7WuK15JHACEjgIWgDAHJ9OJkjYQCQAAgFHi9lChIbqAQABIgwwhABCivuXL1jRMP3iypHcSDQAAgMrzyP6rf1G8nEgASAN2YAEI1oSSzpLElnYAAICKs98WO+IfEwcAaUEBC0CwVnXHRck5VBQAAKCirJxIxxMHAGlCAQtA0AqdCy6TdCuRAAAAqAxzXdTbGd9BJACkCQUsAKFzi+w4yZ1QAAAAjJStcdNc4gAgbTjEHUDw+pYve6xh+ozdJO1HNAAAAIbPzE8tdM7/LZEAkDbswAKQCqVS6RRJRSIBAAAwbPfkG5/4JmEAkEbswAKQCqW7bijU73twxkzvIhoAAABDZ4kf1XfZl+8lEgDSiB1YAFKjOEHnS3qYSAAAAAyR68r80gVXEwgAaUUBC0B6XBJvcPOTCAQAAMCQ9CtbPpEwAEgzClgAUqXYsaBb0jIiAQAAMFh2YWHxGbw6CCDVKGABSJ0kSY6XrEwkAAAAtuqpTIPOIAwA0o5D3AGkzsCK659s2PegnWTan2gAAABsgfsJ+cXzbyIQANKOHVgA0jkXK/fPlrSWSAAAAGyeSX8tlO++mEgAqAbswAKQSv133biuYfrBA5LeRzQAAABezJW09i/91kNEAkA1YAcWgNQq5FZeKBkHkgIAALyAST8sdi78HZEAUC0oYAFIr4suGjBPPk8gAAAAnsvWR24nEwcA1YQCFoBUy3ctuEpmVxMJAACAjUx+3tqu+GEiAaCaUMACkH6uz0k2QCAAAADsHxOzvecSBwDVhkPcAaRe/53Lnq6fftA2Jr2FaAAAgFpmbv/vmY6z/kwkAFQbdmABqArZBpsv2SoiAQAAapfdnO+KO4kDgGpEAQtAVVh7SbzWXXOJBAAAqFGJmY6X5IQCQDWigAWgahT31EWS3UYkAABA7bFL8x3xrcQBQLWigAWgesRxIul4yXnyCAAAakmxnOk/nTAAqGYUsABUlUJnfKMU/ZhIAACA2mFnrlt81uPEAUA1o4AFoOpkS/qcm9YRCQAAUAMeLDToK4QBQLXLEAIA1WbDXct6Jux78CRJBxINAABQ3eyY/sXxncQBQLVjBxaAqtRY1FluepRIAACAKnZdoTP+KWEAUAsoYAGoSiuviNdFic8mEgAAoDpZOZGdQBwA1AoKWACqVr5rwWK5/Z5IAACAamOmb/d2xncQCQC1ggIWgGrmUVQ+TlJCKAAAQPWwNe6KiQOAWsIh7gCqWt/y6x9vmD7j1ZJeSzQAAEA1MPnJhc75y4gEgFrCDiwAVS/RwEmS8kQCAACkn92dzz3xbeIAoNawAwtA1Ru484be+ukHZUz2LqIBAADSzGRH9V36pfuIBIBaww4sADWhuHbN+XI9QCQAAECK/TzfGf+SMACoRRSwANSGqy/sc/NTCAQAAEipfiX2BcIAoFZRwAJQM4qdCy532W+IBAAASB/7amFpzKuDAGoWBSwANaZ8gqQScQAAACnyVLa0/kzCAKCWcYg7gJrSf+f1qybsN2OapDcSDQAAkArmx/UsPetmAgGglrEDC0DtGbDTJVtNIAAAQOhc9pfC7tEPiASAWscOLAA1p++uZesnTJ/RL+n9RAMAAATNrLX/wvhhAgGg1rEDC0BNyj+ur0u2gkgAAIBQmdRV7IivJxIAQAELQK1aFpcS0/EEAgAAhMnWR1Y6hTgAwEYUsADUrN6O+BrJriISAAAgNGY6d23HmY8QCQDYiAIWgNqeHGZ0vGR9RAIAAATksYmZ4nmEAQD+hUPcAdS0vjuWPdMw/aCpkt5KNAAAQAhM/t/PLDn7z0QCAP6FHVgAal5dZPMlPUEkAADA+LOb850LuogDADwfBSwANe+ZJXFeZvOIBAAAGGeJJeXjJDmhAIDno4AFAJIKu+t7kv5EJAAAwDi6JL904R8JAwC8GAUsAJCkOE4UJcdLzhNPAAAwDqxQzgzMJg4AsHkUsABgk8KShb83RT8iEgAAYBycsW7xWY8TBgDYPApYAPAcAz7weTetIxIAAGDs2N8Ka1d/lTgAwEvLEAIA+JfSnTfkJ+xz8ASZDiIaAABgTLj9Z/9Pz72LQADAS2MHFgC8QL7cc7abHiUSAABgDFxX6Ip/ThgAYMsoYAHAC3VfsD5yO51AAACA0WXlJEqOJw4AsHUUsABgM/Kd8RJJNxIJAAAwWlz6Zu+ShcuJBABsHQUsAHiJOWWU2HGSEkIBAAAqz9ZYXd984gAAg8Mh7gDwEvpWLHu8YfrBu0p6HdEAAACV5O5fKC4583dEAgAGhx1YALAFifpPlpQnEgAAoILuKjY9cRFhAIDBYwcWAGzBwJ039DZMP8gkO4RoAACASjDzI/su+fJ9RAIABo8dWACwFYVS9CXJ7icSAACgAn6a71jwK8IAAENDAQsAtqY77pcnJxMIAAAwQv1m5ZMIAwAMHQUsABiEQteCn7jp10QCAAAMm9sF+Y4z2NUNAMNAAQsABsvsBEklAgEAAIYxkXgyW15/NnEAgOHhEHcAGKT+5ctWTZg+4+WSDiAaAABgaPyzPUvPuoU4AMDwsAMLAIaiZHMkW00gAADAYLnsL4U9okuJBAAMHzuwAGAI+u5atn7CvjM2yHQo0QAAAFvnbp7M7P/6gkeIBQAMHzuwAGCI8k/om5LuJBIAAGBr3Kyz0LXwBiIBACNDAQsAhmpZXErcjycQAABgy2x9VqXTiAMAjBwFLAAYht6uBddKdgWRAAAAL8Wlc9Z2nMmrgwBQARSwAGC4A2hSOkGyPiIBAAA247Gmos4nDABQGRziDgDD1Lfi+jUN+x3ULOltRAMAADyXu89a/eP5fyUSAFAZ7MACgBFomLB+gWSPEwkAAPAcNxW7FvyQMABA5VDAAoARePricwuS5hIJAACwSRK5HSfJCQUAVA4FLAAYocIeuljSn4gEAACQdHFPV8y8AAAqjAIWAIxUHCdyO05ynrQCAFDTrFDODLAzGwBGAQUsAKiAQld8k1nEWRcAANQy14J1i8/ibEwAGAUUsACgQgZMJ0rWSyQAAKhF9rdCz+oLiQMAjI4MIQCAyigtX5afMP2gBkkHEQ0AAGpMZJ/s//G5dxMIABgdWUIAAJXTWLQvFnL6B5EAAKB2mGtdfkl8JZEAAAAAAAAAAAAAAAAAAABAeIwQAFVqRpxtnrYhF+rl9Qz0bVD3BetJFAAAAABgazgDC6hSjTvqwMQbrg31+nLZhi8XpM+TKQAAAADA1kSEAAAAAAAAACGjgAUAAAAAAICgUcACAAAAAABA0ChgAQAAAAAAIGgUsAAAAAAAABA0ClgAAAAAAAAIGgUsAAAAAAAABI0CFgAAAAAAAIJGAQsAAAAAAABBo4AFAAAAAACAoFHAAgAAAAAAQNAoYAEAAAAAACBoFLAAAAAAAAAQNApYAAAAAAAACBoFLAAAAAAAAASNAhYAAAAAAACCRgELAAAAAAAAQaOABQAAAAAAgKBRwAIAAAAAAEDQKGABAAAAAAAgaBSwAAAAAAAAEDQKWAAAAAAAAAgaBSwAAAAAAAAEjQIWAAAAAAAAgkYBCwAAAAAAAEGjgAUAAAAAAICgUcACAAAAAABA0ChgAQAAAAAAIGgUsAAAAAAAABA0ClgAAAAAAAAIGgUsAAAAAAAABI0CFgAAAAAAAIJGAQsAAAAAAABBo4AFAAAAAACAoFHAAgAAAAAAQNAoYAEAAAAAACBoFLAAAAAAAAAQNApYAAAAAAAACBoFLAAAAAAAAASNAhYAAAAAAACCRgELAAAAAAAAQaOABQAAAAAAgKBRwAIAAAAAAEDQKGABAAAAAAAgaBSwAAAAAAAAEDQKWAAAAAAAAAgaBSwAAAAAAAAEjQIWAAAAAAAAgkYBCwAAAAAAAEGjgAUAAAAAAICgUcACAAAAAABA0ChgAQAAAAAAIGgUsAAAAAAAABA0ClgAAAAAAAAIGgUsAAAAAAAABI0CFgAAAAAAAIJGAQsAAAAAAABBo4AFAAAAAACAoFHAAgAAAAAAQNAoYAEAAAAAACBoFLAAAAAAAAAQNApYAAAAAAAACBoFLAAAAAAAAASNAhYAAAAAAACCRgELAAAAAAAAQaOABQAAAAAAgKBRwAIAAAAAAEDQKGABAAAAAAAgaBSwAAAAAAAAEDQKWAAAAAAAAAgaBSwAAAAAAAAEjQIWAAAAAAAAgkYBCwAAAAAAAEGjgAUAAAAAAICgUcACAAAAAABA0ChgAQAAAAAAIGgUsAAAAAAAABA0ClgAAAAAAAAIGgUsAAAAAAAABI0CFgAAAAAAAIJGAQsAAAAAAABBo4AFAAAAAACAoFHAAgAAAAAAQNAoYAEAAAAAACBoFLAAAAAAAAAQNApYAAAAAAAACBoFLAAAAAAAAAQtSwjSI3fUqdtqoGF7eXn7JMo0RK5Gt6Qu8qjBTZM8UWRR0ixJnkR1FiUDkmSudW5RnySZkt5E6pekjGttyaJVSTKwen153dPqvmA9UQYAAMC4a2nJTNY+21uk7ZRJtjePmt2Sukiqd0WT3RMz05SNc90o575pXRMlayRJrkQW9Wz8w5KyS3mT+mX+tJLMai/1rS7u07BacZwQbABIBwpYAZh2WDypp6n86ijJvFqu3TzyV0jaLpLt4K6XSdpO8u01oKzkkkWK3LXxhm1y+cb/2SS5bfzfzf/5n12SNv3zLpNt+nsTSZG7Issql22St89bF7mtlnx1Ilsl81XmelRmDyXSg9ly6aGe5qce1UUXDZA1ABj7xVzjhH22VX9pW4uy20raziyZ7IomS5IlmuBRMlGSTNFETzTh2X/VTevMkj65SrKosOm2sFaWeKSo1xI91a+BJ3mYAWAsbHfMSbn1Gya92hLtZlHyanN7pbteLrPtN857N819N85iN81pfdO89zkz2mf/z3L9c4Lr9q+/aNP8V8+Z//7zz8rWK3dv4mqbt1qy1XI9LfPV7nrUzB6S9GCSlB9qyGYeemZJnCdrADD+jBCMneb2eNeykv3l2t0UvVryV0vaTdK0FDWZsuR/l+whuR6U6b5IyV8SRX8pdMZPk+VwNLbF7zL5tQFf4pcLnfM/T6aATYu53oZdoyjzKkm7uvurzGznTYu4bTct6LYZo8spym2V5E9Kelpmq8z0qFwPuMp/81LpgWL32avIGoCtTRqbjohfnZT1Bkl7mmk3+T/nvi9L2W95Wm4PWaQHJb8/cf9rxqK/9HTED+mfZTQAwKjfWAjB6JjUGk/LWLK/WbS/J76/zN688UlSVTenx02+IjHdFcluS7x8W7Fz4V3c2McHBSwgPM1Hzn5VMhC9zsxeJ7M93P1VknbVxgJVmuRd9rdIesDlf5P8vkTRbb2P6y4ti0tkGmDuK9NbUji2DXXuW5DrDslXWOR3uUe3FRr0J10Sb6BFAMAojLqEoAJaWjJNmT3f6FHmEHfNMPkB0sZ38mGrJb/B3H5bzpR/27tk4Z2ioDUmKGAB42hGnG3csbyHzPaOFO1TQw8yBiS/X2a3mZLb3KPbCmtX/1FXX9hHowCqbO5bt8/+7skhJnuXyw6QvJnASJI2SPYH9+S3iqLfFtes/gNjIABUaKZJCIanuT3eNZHeba53u/wQjd2rHWlvcgWT/8HNr4nk1/R0LPyzKGiNCgpYwBiaNasul592gCLNMPeDE9PbzDWJwGxazLn+KrPfJp5c2zsh+j27EwDmvjU09x2QdIdc1ySRrulds/oGCloAMMwRlRAMUktc31Snd7vr3yV/n1J1blXQnpDsZ5GSy3tyTyzjgPjKoYAFjOY9oSXTXLfn61z2Dnn0dpfey+6DQStJdvs/F3ONK3/H2A8EaEacbZqWHOJJ1CLT+yXfiaBUZPnVK/nVJv9xNoqu4oB4ABjCCEoItrxAyWX3eaubt5irVek7cDJtzXGNTFe6kismZ9b94slF5/cSk+GjgAVU1rTD4kn5nN4v+SfM7YMUrCo49suvdfcfTa5bdyVjPzCO4jjK3au3bZz72kzJdyAoozr+9Zn8BplfWfZSV2/nWU8SEyAAhx7b0Dx18mZ30vcM9G3gi83jOGoSghffuCffkxwcyf5Dpo+r6g+fDLZpFkx+lZt3FVZGV3Eo8NBRwAJGbtph8aRCY3KILGqR66OS54jKqNog1zUWWXfDgH68qjsuEhJg9Oe+jfeW3xl5Zqabf0I8sB0vJZOWuWxpw8R1S5+++NwCIUFNaYnrJ9brZXXl8k6yzNREajLTFLmmmNSUSI3mPlGmrMk2zcd86rP/uktZ/fN//+f/OlHShBf8TU2SZZ7z36NKPJR00zpzrZOUl1SUa52Ziu7Ky7ROrnUme1KRnnLXY3I9lYkG/rG2vu5JjlYYQpWAEGw06YjTdswk2aOURJ+R+auISFCekNulGenba7vihwnH4FDAAobp6HhCU5/+3d1nyuw9kjcQlHFRdNkVJv2wUNIv1B33ExKgcia3nbZDZNmj5dGnJX81EQlqiVaQe2dZybfXdS38C/FA2jW3nzLVk7rdE9kuUaSXexLtKPMd3fRyc02TbIfq/9DNFj0j2eMyPSr3u2V2r3v5XpVKdxW7z15FC3rO6Fjzi/zWeIZJx8v0IckzNImgm2tZ7lcrY98p9K+4Wt3dZWKyhbZNAQsYkqb22a/xJPspmX9K7L4NbfxfI/dut+Rrxc6FK4gHMHy5tjlvNWVOcOmjktcRkeDdKrfv5HrVtfKKeB3hQLBa4vrGeu1m5WQPRdpdSfQame8h2R41XpwaqWcku1fyuyW/S+63Tqpb/+daPXKhNgtYs2bVNRVf/h+J7HPmegN9In18Y3X6oqgUfSvfHT9DRF6MAhYwyMlWnT5u7p+R/CDJ2Jkc9ujvZtF1bvpK4TX6heI4ISbAIMRx1HiPPm6mz0n+VgKSymVbj0uXZUxf6emIHyQeGO/1dGNhh90jy+yfyPe3xPaX+QGS6gnOmIwHZcnvldltpuQ29+i2Qkm31sJudau1jtZUnNbmrtmSv4aGXxWKbrq4bHbe+iXxY4TjXyhgAS9t0hGn7Zgp1R8n8/8U572kdQpzr7u+Uiz3XMphqiO8X7TPbTG3H4Z6fS6fXexccCaZGoY4jhrvSz5hHs2XfC8CUhUSuX4Ryeb3dMV/IhwYixtu4+HxXirrQDM/QLL9Jd9HUpbQBJWmXslvk3RTlNhvJ6/TjdW4a7M2ClgtLZlc3V5Hy222pF1o3FXZYftM/v1SZuCMdYvPepx4UMACNqf5yNmvKpczx5vbpzcd7In0j/+rZMmXcoXoQl6vGeb9ggJWVXaMpta4zc3nSdqdcFQjd8l+5kpm82o1Kj5fao93TaR3S3qH3A+W9G9EJXVKkt0u1zVJpGt663VjNRwWX/UFrMnt8bsj1/mSv5Y2XAO3ctM6Sd9Txs4sLoqfqukFCQUs4J+mtMa7lM3nS3Y45x1W7Xr9SZPOyZf0TQ58H+L9ggJWleUzPtASnb/pdR5Uv0RmS6JMaV7PojMeIhwYjk070w810/tdmsGZVVW6Tnb7vUnXmem6/MCK29J4pnTVFrByM+PdPdLXTP4+mmtNLmTWmGlufqW+rWVxqSYnsBSwAE1uiV9uGT/dTLPEuQy14kGXnVrsjLslOeEYxP2CAlZVmHh4/G/Zsn9Vpo8TjZqc+/ZJfsGEkp25qjsuEg9sURxHzfeVX5/I3q0kOkyWvI1zQGvOMya7VqYrs6afPrMkzqdipKu6NLScMLGprvlkd53Cp88h6Z4oseN6lsa/rrkFCQUs1LKWuD6X1fGSZkueIyA1uZi7uezl/+UT9IO4X1DASv1CNHef/kvu50lqIiA1b6WZnZrviBeJIj6e69BjG5qap77bFX1M5h8RX1zGv+ZM6+V+rSK7fMKAfhRyEbyqDl5rao8/4O4XuvuuNEJssmcS+a+a2uZ1JVk7rtZfKwRqwcZXx/2rkvYmGrXM35qx6E+51nnfq8vYF9LyZBEYiuaZ8RuSe/07kt5INLDJNHe/NNcW/5ekWYXO+B5CUsON4bB4UqExOUQWtcj1YZc3U9fEZuZME2X6kNw/tCFr32xqi68smy7q7YivVWANpioKWLmjTt3WBxoudPc2Gh822yWlViv5uxvb42OLHXEXEQGqz8TW01+RVfabcv8Q0cAmkUyzBhL/UGN7/HnG/5e8SSYEIYWL0smam5h/XnwJDJvv2O+U9Jdc+9y4MHD3+Wk86wbDXBu3xdvJ9WHJP1Ywf7dkE+QUrTDosWOiSy2RqyXXFt9trm9PrCt+/8lF5/eGMbFLuaaZcw/VQMPtJopX2KrtzL0z1xZfOak1nkY4gOrR2D63JWvZv8pE8QqbXe9vHP/nXT3x8JgvKb1wMmjReqKQHs1tc9+Tz/ndMj9ZFK+wZRPkdk4uu8/vG2fO3otwVK+pLSc351rjY5ra42skPSHz72+aE00gOhg+38vNv7qu1PhIY+vcebmjTt123OcsaQ3llKPjKbm2eZd6ZL+QfCcaF4bQET+YMf21qS1+fzX/SovKfeQa1W7SEaftmGuLf77p/J5tiAi24v3ZRHfm2uNZhOJfEi/3EoUUmDWrLtc274uJ7JfmeiUBwRDmvm+2KPPnxtb4v4lFFTk6ntDYHn881zrv8lJ2whMy/767H8LXljEKY8i2ZhZroP7hxrZ5F0xuO22H8bqSVBawmmbOOaDc57dJOorGhGF2wu1dyS8a2+d9VbNm1VXngiTDggRVrbFt7icy5fq7JT+MaGAI43+z3L+Ta4t/3Hhk/DLiIUl6mhCEbUprvEuuMO13kk5SFbxBgXExwcy/lWudd/mUo+MphCO1rLF97sG5tnnfz/XpCXO/fNOXR9lphTGZfpt0fKS6+3Jt8Sk6Oh7zdpe2G6Dl2uee7FF0kyQOasdIm5OZ67O5wrRrJ7acXnW7+LKZUg85RlU69NiGxvZ5XzWpW/JmAoLh8Y9ZSXdW+27cwSiWig+KA1KC1dQeH1U23SH5W4kGRj791cfLfbp1cnv8OoKRHtsdc1Iu1x7PyrXNu8PcrpN0DHMgjOetSfKzm/p0X1N7fJQkG7shLCUaj4xfppIuM/n7aC8Yha7wuCXlj+SXLvxj1fykWbPqcoVp6wPeRvzlQuf8z9P2MBTN7fGuieuHku9PNFAhiZnOyq+0+VoWl2o1CLm2eX+XFOT5YC6fXexccGat5WSbw+OmfvdvmaudboqK9yvTOsmOLHbEPyYa4ZraEr9yoM4/b65jJDUSEQS6lv5tlC19qmfRGQ+N9t+Uih1Yk9vj11lJt1K8wijexnf0KLq+qTWunkniRRcNyPUouUW1aGyPD0xct1K8QqXnQu6andtR19X2Ae/2B5pCOJrb410HEr+Z4hVGrce7JpknP2pqj2OiEeCc5/B471xbfEkpqwfM9VlRvELYa+mDk1L29sa2uZ/RKG+SCr6A1dQat0eumyTfmYaBUTbBLVnc2Db39CoaTP5CWlEVE7n2uNXcfyX5tkQDozRevjOb+F8a2+ceXJuL2eT3tIFQxru5B28s1mtvooFR7vnm7vNybfElaonriUcAa98j4t0a2+LFlvhyyT8peR1RQUrmUTmTfbuxLf7VxNbTXzFaf0vIBSxrao9jt2Sx5BNpEBirG7nJzmhqjb+pOI6q4OewIEHqW3Gubd7Z5t4pDijF6NvO3H5Zi18pdI+uIv3jL9c699PmEcV6jPUI8MlcnX6qlhNYc42TSa3xtFzrvO94WXeZ/HDxsQakdeIuf0/Wsn8erQeCQZ6NM+2weJL2P+hHkj4jmdEMMA4974CG1bZL/17bX6G77krtwbZ1+7xznZmF+snkm/vv/N2vaWx4SS0tmdxrW74j6bMEA2MoI+mwhn1nTOvf6+Bf665l5Vr40f0rlq2eMH3GRyW9PMDLu67/zt/dUPXj3X7/cbZMXwx1fo6q95qGqOGdja89+Mfrly/rIxxjZNasuqY9PnisSZfL9Db6P6rEJFN0RMN+B/b1L/9dRTdUBFfZbWw5dfvCZL9W0ofJO8aXfzKX3WdpmrdU9y5deLuke8gl0reYi+ubsvt0SvovgoFxYZrVVKdfbHN43FQ7tz37AYkfe1NbTm5uzO5ztcxPJhoYZwcOlHVNU0u8DaEYfU3t8Qdy+R3vcrevSGoiIqiySUVGbufk2uPLdHRcsbcogipgNR85+1WWbbhBpreQcATS8T6Ry6pLM+JsatdgZkvJI1Kl5YSJuTr91OUtBAPjegdwP2Qg0fWTWuNptfB76yet+4GktWR+DOe+7adMLWUn/srk7yEaCGPi6Aco69dOOTqeQjBGr9/nWud9x92vkmk3IoIqn0wdmevzX213zEm5SvxxwRSwJrfHr0tKmVsk34MsI7Be97HcjrpIo/xFhdGSZPRNSRvII1Jh1qy6XLa5W+6HEgwEcg94bcb8j5Nnznlttf/Spy8+t2DS18j5GM19207bIfGGZZK/mWggqFFPel25z6/a4cgTJxONympsj1sTn3CvTLOIBmrIgX3rJ/2qEoXxIApYzTPjN0SuayS9jNwi0Fv5fza2zkvlpL64KH5KbkvIIYLX0pJpKk5bJPkHCQYCMy2KMr9tap1T9YWGhpKdJ9njpHx0TW2JXxmp/gZJ+xENBOptvaXGn+jQYxsIxchtd8xJuVx7fNnGj9L49kQENbiefmupT9c1tpw6ovY/7gWs5vY5+yeR/4avrSB0Zvq/XFt8UhqvvSzNlayXLCLkLpbL7P1Nd59JKBDoxGuqW+ba0fqqTihWdcdFSf9Dvkdx7nvk7FeVsv5byV9DNBD0jVn+ntyUbb9DJEamqXXOm/vWT/yr3I8kGqjxMeX1lm24dmrLyc3D/TPGtYCVO3zO2xOPrpPEQYFIywLm7Fxb/NG0XfW6rnilu84hfwh2ctc2L2Y7PVJwD5gs2ZWTW+ceUs2/stAZ/9SkLvJdeY2Hx3snpezvJe1KNJCSce+Tufa5fGBg2PObuce6ZW6gzwP/HFOml+smXj7cD6WNWwFr8sw5r1USXSm+uIB0iSR1NM2cc0DaLrz4hM6R2x9JIQKc3LW5fA6RQBqYa5JF9vPJ7fG7q/l3NpTs05LuJOOVM7H19FdEiX4p+Y5EA+lab9pZaXyAO66Ojifk2uZ932Vfk7yOgADPGVLcD2nK+qUaxhnT41LAapw5e68oiq6RNIX0IYVdbqKizOUjfX93zC2LS3IdIb4whYA0t8ZvTMy+J5kRDaSFuSZFrp83tscHVutvXNUdFy1jH5P0FBmvwNz3yPhlWau71uWvIBpIoUjS4sa2OfsQiq2b2HL6Trk+3SjpGKIBvMSKWmptap+3YDiD0dh26NbTX6FM5peStiNtSG+H81dYtr5LLS2ZNF13YWl8n5kdLlmZLGK8TTritB0T05XmmkQ0kMI7wURz/9nk9vh11foL84vjBxLZeyQ9Q76Hb7tjTspZSb/gzCukfMybbIp+vN0xJ+WIxUtrPDzeO1OXvUny/YkGsJVRxf30XNvcw4by74xpAaux5dTts8peZ65Xki5UgXc1Zvc6JXULko74F2Y6RlJCCjFu4jjKJvWLJN+BYCDFpkSuXzfOnL1Xtf7A3s74Dk/sIEkrSfcwtMT1GzZM/BGLWVSJ3fvXT7yIMGxerm3OWy3x37HWBQbLTIq+P6k1njbYf2PsClhHxxMs0/ATmXYjUaiaLqdofmPbnIPSdt35jvgyd/tfUcTCOGm6z+e7+yFEAunn2yuT+eVQJl9pU1wa32kZO0iciTU0LS2ZXFYd5novwUDVjHhSa6597qeIxPPlDo8/JEXXibeMgCHPo7KRLlMcD6o2NVYFLMv1+Xdl/nYShCrrcBlT5tJtDo9T9zGCYlf8bTdvlbSBPGIsNbfNfY+7TiMSqBbmemXG9PMdjjxxcrX+xvzi+IFCgx3gpq+R8cFpzO7zJck/QSRQfdNf+0rzkbNfRSA2yrXFH1Xil0uaQDSAYQwp7ofk7ku+MKg515jcwFvnzjOzmNRUdLrca9IzvvFcipKZ1srdJcmltSbzTY1hotnGwdRlOUlZSY2StpF8W43jlyirq9fpokLX/M+kcoJ9eLy3Jfqh5GN9MOeXC53zP0/jqS1TW05uLmcnLucgY1TpvfmqQmnFR9TdXdXnDDa1zz3cPfqW5GNyFo7LZxc7F5yZqhi1xUe4fBF9oqLWSrZa8tUm5TfNeUsmK0hSIpUiuUmWcSkyefOmf6beZTmZb2tu20o+mVBWZLz7bWEPvVtxXNO7+Rtb4383UwdfGgRGPKasj7KlfXoWnfHQlv6p7Kh36ra5nzBpHgkZtJKkxyR7RNLDZnrYPXnEFT3iUXmVlzOr103QM7okrsiumaaWeBvVlbaVZbd1T3YwaZfEbReT7ezmO5trF0nbkJat9Tf/dPPM+PKepfGv03bpxSXxXdu3xG9Zn7Vvm/xwkolRHeCyE78qileVGngKkp5x89WRbzxk22V9Jq2TJHfvldRvpinPfuUxkaZEcnNpgmTbbhrft2HiXSn+wVzd3ucUpC9U86/MdyxYMqk1/m0msnPkyRF8RfT5JrXOeb1LnBM0+LFsQNLDJn/E3R7xKHkkSvSwyx9W1p/yvvIzRT3wTMUKw4ce2zCpedttLVPeVp7ZIVKysyXRzh5pF7l22Tj/tZ0kz5CbLY53Bzfd6/+bly6s1QjkDo8/pMQ7x2JNDdTAmDIxGcheIOmjW7xjjGqnPmL2Hipn/zhWT+hSeMNeZfLbXbpDZsujsu7oya9eoasv7AtqcD7q1G19oOG1kSXTPYmmy/y1ku0j+URy+JwuZ3p0cqZ37ycXnd+b1t+w6an6eZLvOAZ/HTuwam2i1xp/WOY/IxJblbjpMXN7RKaHLdHDHiWPJIoeMS8/nmTKz6zrq1+t7ri/Un/hNofHTUlZ2yQZvTzx5BWWRDu7fGeTdpFpFzftytcih3B3dz8q37WgJnbfNLXHb3LX1yR/86jdX1O0Ayt31KnbaqD+T5J2oSdstnc86dIdZn67JX5HOYqW9w7orkqOZxXRcsLE5kzzPom0n5tPj8ymu/trxflGL8xnb7akvdd0x4/W2i9vap3zZrfMtezoAyo+h/pQvmvBVS/5fx+tv3j7lrhxQ1a3jMNrSSGn43GTbnTTNe7l3xc7F65I7U9pack0Zvfc0yzzdknvkOtAyXeu+RS7zip0zT89zT9hhyNPnLy+3PgFdz9Zo/suPwWsGrLN4XHTQKJ7xqg4mqb7wmpJd7j5cnNbbkn59sZ1mRUrr4jXBXWZcRw13Vd6dZJkXxuZT3dpP238f7uSw83cCkzr3O2tvZ3xHTXxg+M4yt2bfFBup8n0lsrfWlNSwGppyeSye18p6f30giqc+0qa1BpPi6Lk7ZK9w9zeLiVvYAeiXV7ojP+9ln5xY9ucfUzR9eItFWA0xpS/FUra+6UebIzagNvUNq/TpdYaD36v5Feb7Gcl13XruuKq/gR10xHxbl7WDMkPk+w9NbpDq1+Z8n6FxWfcm/p8ts9+jSs7R67WUXq9iAJWDcm1x1+W+wlE4kWLubskeWon8UfGL7NS8mZ5tPFhhulNvI64ieuBzAQ7YO0l8draWtjF7zL5FyS9VxU6ZzMtBaxcW3yuNv722m32pnWW6Jcm/2lJ0bXVPvdtbDl1e2XrDjS3D8n0IdXoDq0osfel8RiN4ZjcdtoOZnW3muuV3OiA0bqZ+KxC14LvbnYmPUoLlVly/06NLk5WS/q5lPykUCpco+4L1tdiFKYdFk8q5JL3yKOPSPqQ5NvX0OTt18WO+e+rlt8zpf30nUvKfs7cPlXhbdIUsGplQTsz3tci/bk2Cxu2xs2vVuI/93L0u97u+Ilq/rVTW05uLmUnHizpwxsfZtT46zZuPyt0xR9TiouUwzWx5fSdsnWZI+R2jKTdRxTGFBSwmmfG702i5Je1uRvH1kj6uSz5SWGg8OtanfuqpSWTy+z5NkXRh5XoozLtVkO//r5CyaYH9ypopc2aVZcr7HiNpAOZ3QGj6sHC47aHlsWlF91xKn8Dn/3qJMr+pfbOvbLbZLqoMNCzqGZv3C8ljqPJ9+ldGdcslz5aC4tYkx2a74x/WU2/aeOB/2p319GS71+BP5ICVo3Itc37raQZNXQ/eMSln7snP+tteuJ6XXTRQK0u5hrr9jpQso9Gbh+r1S9Pmttx+a74a7U8BjS1x2/yxD+yaYfKfkP990MvYE05Op6S9OmO2mvjG+e+uYIWB/facwCa2+fsnyTRLJm11cK6yOSfzXcuqOoD3XNt874v6Rha97i3th5JayXf9P9bj0xrPfGeKNJaT6xHSno80lpXtGZj+0zKGXn+2T8h8UxvZOqXJEuUeLShZ0t/Y/9AZlJ9XV3Dc/+3xFUfWXlyWZnJmbImlDNJc6RooksT5JriljRYEk2WfKqk7WTaZuMHdHzbTf9/A7nc0vxp8+eJVraANSPO5nb030t6U42EdY3kP1CmfFE1vDI2FiYdcdqOmXL2aCn6lOSvrtbf6bK/FPfQG6v108KNM+N9zXSETB+WfK9h/jEUsGpArn3uR+T20xq4H/SZ9POy6aLejvha1eCOmy163oMM/5hq6otN1pdE5QN6lyxcTkOQprTGu5RN75b8IJMdNJiiT+gFrMa2uMPkbTXSngsuXSKVv5P286zGynbHnJTrWz9ppuSfrvI10lMNE9fv9vTF5xaq8cc1tcf/5+4X0qJH1QbJ/iFppUuPmvnjJn8scT1mHj1eyujR9f/QE5vblZNG27fEjQMZbVfOlHeyxF7p0r+5oleY65Ue+SvMtYtq+pw1u7uwh/Z94Xq6ogWsprZ5812aWws3b3N9JZqgL9fa2RaVXMw03ZvMdEWnV+tB/yZvz3cu6Kz2VG46++zDkr9HsrcP4SkjBaxq19KSyWX3ub26P+Zhy03Jd836F/d0nLOGpG/dxMPjf6tz/Ze7f0bSy2tkEnZ7Ye3qN4f2leEQTG2JX1nKJPubRftv+jjA7pK/SlL9s/9MyAWsxvb44+Z+eQ204T65X5rYwNzezrOepOUOT64tfofcT960G7HquHtc7Fowv9p+16TWOa/PWOZmdsxUZCwZkPSgpLskv9fM7la5fLdHmYcKnfHTxOcFbe+I03a0pH6fTKK9Xb6PTHtLts+mXV3V31rM35/vWPCr56+xK9qxo1tVxU9V3bTOpG/K7Yt0sAqJ46jxvuQT5jZbw3itIPAu97fC49qzWp4SDMqMONs0TW9Qkrw9sWh/2/iq4e7a/EG+FLCqfaLeHh8t9x9U6c/7k+QLCp0LrhS7rYZl2mHxpMJk/Y/MT1ZNnJVl5xU645PI/CC0tGSa6/bZWWXtlmQ0zZLy3fmuhX8Ib1EbT8uY7tj4OkjV6nfXRUl24Kx1i896nMZZoftj65x3umXmmPw9VTbOFVTX96rCZWevrpZftH1L3Lgh67dphGf51STXA272RzPd6dI9KpfuLjY/9UDNHq1QyTHkiNl7KMm+VYneoY27mneuypmT2dJ8R/y8DwNWpoA1I87mdtQtFToXJ9AOaD8raeDY9V1n/p0uMzrtM9cef1Lu51XTQsZkR+Y748W1vRA5YeLk+sbdorLtJoteI2k3yXcy81/nOxZ8laZfrXmP6xvr/P6q+0qP6xaLbGG+I/4FSa6M7Y45Kbdh3aTjzPzzkqZU8U9NLLK355fEt5D1qpm3XCX3Q6t37Wm/iqx0bL7jjPtJ9+iY3B6/O0r8W9V04LtJC/Kd8+dVTaGgbd6lko6itW7VWpf9IZL/QWZ/cNetbPgYO40zZ+9lUfQBuf27zN9cRR8U2WAl2ynfHT/znDGmAh27NT5R5udV6fzkH+46vtgV/4iuMfqa20+ZmiQN58j809XR8Tb/7i5Q7XKt8TEy/34V3Qsed+n4Ymf8Q7I7SpOvllO3t2zDeVJyVBV/ye3OQu7xN4T29Lnp8PgtnvinzbTS3R+UovsT9d/Pq2JbaK/tcau5V+kxAfa4W3JcsWNBN5keA0fHE5r6/XR3naTnvDqb4vazpmHiup2r4Sys2nlFeFh5flLyX5nZtZuKVfeKHelBmNJ++s4lzxwhs1nV8CDZ3f+v2LXgG/9seSMuOBw5+1VJKbtc8snVlXp3k31rYrb3pCcXnd9LVxjrG8bcgy2xi6rjiZR9rNAZ/3TMCwhHnbpt1Newc38y8OT6feoep4iGMRPHUe5eXy5p72q4F8iixTag45/79AejOHa1znmnLPp2dbSfzbSoAM9zamyf22JumynOWkHy5e76s5n/WZnkJj5a889Xiu6W9G9V1z5NHdGAHct4Nw798PB4b0v8u5LeVgUt6aRC54JUb25oaom38ayvUM2c1bjV9cyApJuk5Fdl91+u61r4V1GwCtvGs2gPk/xUpfkDEm5/LHTF/7z+ERewcm3xzyU/rMrS/ZS5H5PvWnAVLX/8TG05ubmUmbC4Cg66vKnQOf/tY37jnTn3UI9s02tO1if5Q5IedNeDkq2IMvrrxKi4nAItKj4Jb43/3cyr4Mm9rTAvfyrEs3eq3qHHNuSmbBNLOkmbP0MvzTYoU35dSIWgly5gbdYTJl2fyK8rl8pXru8+8x+11jxzbfFZmxYE1eRpl/93sXMBu03G06xZdY2FaV8y+bEp/yUrC7nHd0nzWUe59vgyuR9Z2w3SeiT9WJ5cUZeJrn1mSZynk6ZTU+vcD7pFZ0s+PX1X756Uomm93fET0ggLWM0z4/cmkf+qyvL7i0QDx7BtPhBxHDXd6/NcPifNr5RElryxp2PhbWM6UD2vgPWSN6ay5Cvcdb3kN3o5+t2zgwMw/MXdvD8o5Z8KN7OlEzPFT1HgHV+NbXMOkkWXVdtZai77TbEzfm8wcR5aAet5k0op+rNLP4+s1FkLZyU1z5z96iTKrqiqr5G5/TEj/cfarvhhRp1QFptxexL5d801KbXNyr212LVgaSrj3x5/wN1rdCOD9Un6hStZUmyIrtIl8QZ6ZJXYeG7559x8XvrGFj+60LngUmkkBayNAfhrFX0ePXG3ecWu+EyxHTK8BXH73I/IbbGkxpTeDH5Q6IyPGdOb76AKWJtfjJjpSpXLV+WXLvwT/QFDm3TPebNblOJDqq0s6bRCZ3webT8MU46OpyT9+ra7z6yqH+b2kUJX/PMQLmX4BawX9Z/bzJJFGogWVesraLm2+ErJP1gljdAlO6/wuJ1eU19MTonm9jn7J575meQ7pfQn3FjonP/O1F31occ25Jq3ubOaDtYf5Pz/ekmLMw360dpL4rX0wCpeVx8xew+VMz+StG9qZudSV75zftum/zzMRUp7/H/ufmF1pNEK8uSTha4FP6FJB9zZWuO3yfRLyXMpbGN9ntUri4vip8askDCsAtYLBwv7u7s6LCp9n68QYXCLu3mLJB2R0stfG8n/o6dzwW/IZHiaWuPPuvmXJGWrZO5xf6GkfdUd94/3lVSugPVPRTddXDdgX1rTHT9aNePb4fGHlPgVVfJzNpjbp/JdcQejS8Dj3hHxbl7WsrQWsaLE9u9ZGv85XfOY+BTJz66NFmbrJS12lb9a7Fy4gh5XO3Y48sTJ60uNP3B5S0ra6upCacUO6u4uD+tciW0Oj5vcFVdJ/u7zpPRmilfhK3TFN7nKh7lpXfqu3huigeTw1F21/BUyP9k9ujfXFl/f2B5/XHEc0Rqx2UVwy6nbS9aSzqu3HjN7H8WrcOW74q/Jk3dJeqo6fpG/JpfRZ6t1ODDXZ0tZPZBriy/JzYx3T/0vamnJKKmWL27b45YkB1K8SsG4tzh+QIneJWllKke5yD+Vpuud1BpPk/z0GmhaK10+W9IrC53xLIpXtefJRef35ksr2iS7NCWjybbNmX1eLw3zYNT+cnKC5NtWwQ38D1aytxaXnnE3zTgdip0Lfye3wzY9MUjXTdzs6BT3FZP8neZ+ee5ev7+pfe5x0w6LJ9Ei8bxWkm34z5SeC5O3SO/Pd8S3ksWwFboW3hBly2+RdEd1dBrNbmqJt6nejHmd5J9UpDsb2+d9dWrLyc1p/SVN2X3aJO1ZBY1ueSnSm/JLF/6RESUl497S+D7JDpGUujNKXWrVocemZl6QiXSOUntcyaD6/yOSH1Mo2auKnQvOLHTGT9PDalh3d7mwh44xs1ScVVeW3igNo4CVO+rUbc2iE6ogZddNKOndfCY4fYqd8XXy5PCN72unyn6TWue8vgpSsKu7faXQ6Pfn2uNZ7MjCc6aqKfxaj/W6kg/nl8S3kL906Fl0xkOTsr1vc1kV7JbzZs/qxBoYG+o27siaeG+uNT5GFfgK9phqacls/JhM2tOgWyLbcND6JfFjjCTpUuiM74kS+6CktB2ovU3j1KkfTsOFNs6M95X74dXZgmy1zE8pNGjPQueCH4Tw6joCEcdJfqDnPyW7LfhWLB/mDqz+hi9I3pzqRLmuLJTyH1rVHRdptSm9kXct+IlkqdvKH1nmk1WUhmly/07uHt2Sa43fRqusbU0z5xygFB0GuUlipv8odi78HRlMlycXnd9bbNCHJf28Cn7OZye3nbZDbWTOd5D593Nt8c/StPMsl93rCElpfw1yWcOk9e/t6ThnDSNIOvUsjf9ssk+n7brNo1TMfS3yMzXMt5MC/lUFd48bJq57VaFjwRf5oiA2q/uC9WalNoVeIDfbX0PtpI1Hxi+T6f9SPXUydRSesI+p+4L1tNZ0Kzxup0talqrbiNSqlpZMdd0b/QCZ35Brm/dFzZpVR8usUZn0FWfNbGG+I/4FyUupS+INhdJdH5fsB+n+IT45svqTayt5fpiy+mvu8DlvD/5SZ8RZuc1OecB/WWiwQ5+++NwCA0e65TvjxZK+l7L+/r7cUacGffRMrm3OWyV9uLpai11V8oF9il0L5tP3sdWxpeOM+939nMAvc1/NmlU3pAJWVPZjJZ+c4o58RXGlfZJPBVeJZXEp0UCrUnWwpe/QmN3zHVWYjUjSSbnCjjc1z5z9ahpnjWlpybh7qg5vd9mv8rtrAclLuY3nN/yXZN9J9e9w/38bDw+uHS5/hZLMbxtb4/8OemE7TUfItFuK57435Ir2CXZeVI9Cgx3rpjR92S+rUt1Hwx6PMvOqqIk8ZfL2Qmf8ofVdZ/6dHoPBKk6IvijZ4wH31IbJvTvsOegC1g5HnjjZ3f5fimdKt0zKFtsoXlWX3s6znnR5yr7ilPlEFafkjUmU+VOube5htM7a0Zjd5yBJL0vNck72d5OOUBwnZK8KxHFS2EP/47LOFP+KCRnT8bWXPK8z8281ts4Nc/E4I87KleLdV3ZbtrT+sJVXxOsYKKrIJfEGl31KUorWNFGwc9/mmfEbTP6+amgaJv1Qdf175zsXdNJRMLyxJflG0CNJYrsMuoC1fmDSrPR+edCWR1HfB55cdH4vLbP6FDsXXC7ZVem5uXhLlR98PkWKfpJri/+L1lkbIte/p2rJrOR/+fJOlYnjpJhb+UmZXZ3eH+GfmXJ0PKUW02dmcWNrHFyhKPfy5DDJ07qr+D5J71/T/cUeBojq09sR/9Vl30jNBbsf0tx+ytQgLy3SKVXQJPrN7Nh85/yZhcvOXk0PwfDXqdF3JBsIdw4fvWJwi+hZs+rcouPSOR+0h8qZ/vdxaGWVL6CT0nFKz5dZXt5038bPgFYvz0jJRaG/GoIKaGnJuPnHUnRP+Fmhc8EVJK4KXXTRwKRMsUWyP6T0FzSV+zSrZifN5gsb2+Z+JqyLio5NaTjzruTjFOqrW32kuUrPMRr17vXvD+2immfOfrVLH0/1jNv0qHlyYL4j/jq9AiNV6IyfNtP1wc4V5IMrYDUWX/5RyXdO4XRofVnlT6xbfNbjNMfq1rP0jL+l4OC55/pALSxHzPwbja1zZ9JCq1dT/T4HSHp5StpkbyYaOI6sVa8nF53fq7q+D0p2b0qXIsfp0GMbajV/pujCXOucd4ZwLY2Hx3tLyYwUhrEUJdZS7Fy4ghGhuj2zJM6b/MTUjG6y4Oa+SZSZtfGha2rdqoH+N+a7Fv6BHoEKdtYrA766fxtUAcs8+n8pDf7/reta+BdaYW2YXLfufEmpeNro7ofWSFoiM7ukaeacA2ihVaqcqmLsGWs7znyEpFW3wmVnr/ak9DFJxRRe/rSmqVP/vXaz53WyqKupJd5m3G9eif+vZJa2CJr5iT1L418zEtSGfOeCLsmWp+Ry3x/Ul7gPPbZBsv9Mb43BfjOhZIcUu89eRU9AZe8j5RsCvrqt78DKHTF7j5Q+gfpeoSu+mCZYO55cdH6vu6dl++wbJ7edtkONpGaCR9EPtzk8bqKVVuFy01JTjH2qUOr5KhmrDcWlZ9y96ZDj9PUpjz5T4+mb5lm/YDwvYLtjTsq5dEQKlx2X5zsWMM7V3G1YaXkDYbtNu7aD0Dh1249Jvn0qCwzSD4slfWhVd1ykC6DSJhcyd0sK9UNHU7a+AyvJfiZ9T6Ds9kIp/1maX+2JytGFkhXScKlm9QfXUGp2GSjry7TQ6tLYcur2kt6QkvvCBeq+YD1Zqx3FzviHLkvhYt7f2Tgz3rfG03dUri1+x3j95f3rJv2npLQ9dHnMSrV7hloty5dXLJXs/jRca5IkhwQzK3BP58MCt5/lH7fD1R330/oxGlZeEa+TW6BvLPjELRewjo4nyP2T6Qq59UZJ6RMsVGr0Jt4dPyPp26m42MTfXlPJseSY3OFz3k4rrSJ1DYdISsMXNfOZhpSMC6ioYm7lFyS7IXUXHlGI0DjuKnFL28LWym52+KY5EGpNd3dZnpyXipZqURDzwI1vGPlBKcz2ssIEtWpZXKLhY3Q7q54K87JsywWsxr7kg5K2SVWsPZnTs/SMv9HqalepNPBVycrBr09M76itzJgpic6lhVaRtBRhXV9fe0m8loTVoIsuGihFapesJ13zRh017bB4Um1Pnv3t47ELa1LrnNdL2jtl7eWcYkd8PR2+dhV61lwm2eoU3I/fpjge/wdf6XzDaEVdZB/RJfEGWjxGv6sqH+h1TYq2fEO0dL3/7/bHfPnur9Hkatv67jP/4dI1KRgY9pvacnJzjaXnbY2t8QxaaXVISRG2lJTtQrJVw/eEJfFj7jolZVPH5nxOHyZ7PuZfDc1Ypi1lQbovv3b1QtpKjbv6wj4zdaVhbJt8d3n6uF5CKt8wUl6JPv7MkjhPY8dYMPdQj+R56QJWc/spUyVL05fSSmWVP6Pu7jJNDpHrsjRcZjk78a01NyCan0ALTb9tDo+bXDY9+At1/bK3O36CjNW24p66KG2vElrih5M5O2yMH/SY5C1pipDL/p+uvrCPtgIl5UWp6NVRZlx3b+c26L1K1RtG7nI/urA0vo9GjjFUH+p1vWQBK0nq/13yhtRMcWRfXNe18C+0NUhSvtzzk1S8MmJeg2dC2Qcbj4xfRitNt1IpebvkmdCv080WkS0ojhMl+i9J6Xn1wvR+xkpvKGcnHjZmC9u2+O2SdklRgC4rdsbX0cEhSfmuhX+QdA9z362OrR9P1zAYXVzoWvATWjjGtp9YLtAOMRBt4aJb09Ox9UC+QWfQ0vBP3Resl/zy4JuuWw0WsDxjA8lHaKQpF0UpaLvWUyz1XEGyIEmFpfF9bn5Wii45q4Gkpdbz5vL3jN092WemKDTPeNa+QM/GC1pxGt5AGL/jB2bNqpP8sPTk0/6RmaATadcYB7sE2if6NlvAamqJt5F0YHomN3YqB9rhRc078R8F33bN37zxZlpz2Xk/LTTti8pUnH/1Q75Ii+cqNj5xjqS7UjNSpulhYtoXuy0tGTNLUcHQzyouip+ieeB5kij4h7fmeuXUlviV4/F3N/dMO1hpen3Qkv/lIzQYa5s+IvNvgV5e/+Z3YGX1AUnZlKyibil2xZfT1PBC+aSwTLKgF6/mmtTcM216zSXH7J2SjFaaUi1xvZsfEPplRol+RLLwPBddNCB5mg50f9vklvjlNZ61XTeeyzq6Jmf2miH5DimJycpCqfBNOjReaNM5SQ+Gfp0DGb1pPP7exPwTacmly35T6FjwM1o1xlpPTm8L9ZgQkzZEm+8w+mhqOrclp2y8ZOAFui9Y71Lwn5VOoqT2Cljy7ae0xjvTSNOpOaP9zDUp7Ku09T1Jzw1kCy9a4HUuuEKy36XkcqMoow/UfNKSCa8e9UBblJoPF7n5GewuxRYWeL8Mf2DTvmP+l7a0ZGRpWeO6J14+mdaMcemf8vcF2zOkZ15cwDr02AZJ703JEH1zsXPh72hmeMkO6MmvUnCV+9RibgaUvJoWmtK15HhMPId+i/sdCzy85OwhUpp2YX241vNVjpJXjcFfk5K5rx4uDkTfpxfjJe9+bsHPfT3xMX9425jd8x2SUvJhjOhKPk6GcRHHkVwBH1/gq19UwGqeMvVAyXNpiK9ZMp9Whi02cYuuTsFVTq/F3ETSrrTQtHas8AtYZv5LEoWXkl8S32LSNam4WNN7N51HUbNM0ai+QjjpiNN2lJJ9UxEMt4XqjvvpxXgpE8q6TrK+wG/S4zD3jT6amjEvKS+kJWM8NN6XfELhnn8lk55+UQErkb07Hesn+0u+Y8GvaGbYkkJnfI+klYHfpmqygKUoRYdo4gXrp/CLrh4lFLCw5TbiNi8lVzqx2JieD+uMzmIumTyaf342qX+PZCk4l9FWFSaog96LLVnVHRcl/2Pgl7nrWBfmTXZISlL4i/zShX+kJWPMzYiz5tGcsG+DtmozZ2Clo3Obkq/SyjBItwa+ONlp05c/a2xBEk2maaY0d+HvwFpZWHzGvWQKW1Loim+SdFMartWld9dyrjyKJo7mn58EfN7H8+ft/h2+uo0qmftmenPlvcbqb8u1xdulZpdllJxF88V4aHp5cmzobwZ5ooefV8DauIj216fgFr6q0BAtpZlhkDO+4J9ieKZcc+dguWkSjTOFN7eNxdZpgXf6P5ApDG4csgtTcRuTH1LTefJkNHdHmXkqCoSlAbPv0GsxyLEt+Llv4jZmBSV3zUjHLkvdWViy8Pe0YIy1XNuct7pFZwc/tkV68HkFrCSbHCwpSsFM5rs8gcKgb5DBP4WS3DK19xqhpWCswYv7U7achrZ6K5nCYBRX6keSHgv+HiF/bWPLqduTscqb1DrndUrBwc5mdvn6JfFjZAyDkUnFfTAas/lEFGlGOqbGxgcaMPb3wSNO21HKdEveEP586AUFLCl6Z/ghdpfbpTQ1DFZdvf4kuQd9C5fX3g4sd6N1pnJaHHxbTTzh7AgMzrK4ZJaGBYOZMnXvImGVl40yb0/DdSaJvk22MFg9HfGDkp4OfCY4ZvOJjTuwgh/n+1xaTOvFWJp0xGk7Zsr1V0u+UxpWjxMnrPvb8wpY5v7mFHTumwtL4/tobhistZfEayW7P+juaPaq2suMUcBKoRQUW5P6ct+fyBQGPRJlSpeG/pBj05W+g2yNwv1XelMKLnNlcU9dT7YwxGlW4A9zxmbu23hk/DIp2TsFs+KfFjrjp2m4GCuNh8d7Z8r1N0v+2pSsQh54+uJzC/8qYB16bIPMwj//yth9hWE1nBWBz6B3IUdIxWIv/GLrfWu6v9hDpjBYPYvOeEiy3wV/F5O9mWyNyv33TeFfon6oOE5IFobYcO4K/ApfKWn0H2aWUnL+VTlhjYsxk2ud+zFL/PeS75yiQe126TnnXeWmTHlD+O89WtkH+n5Ck8Mw3BN2USBNg0elujOvEKZzQhx6Ww28WI1QG/ZlKRgzX6uWEyaSq8qZ2nJys+SvCf06o8j4cBGGMawlgX+N1ydObjtt1M+fi+QHpSBb+Xx+zXU0Woy2xiPjlzW1zVsqsx9LmpKqIU3+1419+tl5kTIpeLLnNxS7z15F08PQhX0TN9ekmjug13mFMJ0s6AKWBV6sRpgyDdFPJBsI/DLrc/WNbyBbldNfN/EABf7xIpP9Pb8k5suqGM5EK/j7YcYzu4z+otf2D35mJf1SV1/YR5vFaNnhyBMn59rmfsFKusul/0jn0jH6g55703bTG8Lv3P5jmh+G1Xai6N7QrzGTaaitXVgc4p46G4usPjnwGwVnJGLI1l4SrzV58K8RKsnwGmEFRa43Bn+rlHdLcrKFIbedcin4AlZimdGd+7a0ZNw8/K8nu/2MFovRkDvq1G1zbfFJ60qTH5TsXMm3TelP6W8u6CZJyv5rLal9Q19NmkVX0QwxrElqne4pB/5coyztIqlmDp+OInZgpS9n2V1SsIpiBxaGt5CS/cTk7w58lfN6MlVRwZ9/Zea/Jk0YjmL32atybfHqkBesptE9A7axfp89LPFJgffygWiCfkGLRcW0tGQas/scJPNPaUAfl3xCFfyqW1deEa+Tni1gtbRkTL5X4Bf94KZPwgJDtvaSeG2uLX5S8h3CnaQm7MBC2At8y+xsgW8EiOrZgYXhydrAVWXPfiPwhc50MlXRG1HoBcH+iZl1N+ZJFIbvPklvDXZEG+UDpKOyXhf+bNNvWHvJ/LU0VYxEY8up2yvTcJCZHybpA5JvV017d0365xlxWUnKZfd5TfCVOdc1NE2MsBH9XVKwBSx324UcIeibhyU7j8UHg0ZwhU+uvSRmEohhWdtx5iO5tvj+wA/13lOzZtXpoosGyNgIHR1PUJ+/MvBR9w9PLjq/l2Rh+Is+/7sHXMDyUd6B5ZG/PvRFvJsvo6ViKCa2nL5TVFe3VybR3ptekX2b5HtJ1bs5wCz5+bP/Obux4yTTQ/8gmJtdS3PFCD0mhXvehUnTaiobHOKevpQpCnwHlv+dLGGEi73fuBRwAcsbGgs77F6U+NrmCDX2lV8tRWEf4G7iq2QY4X3b/h7yEWou23FU+5DrdcFvQkmiG2qxbeaOOnVb68vuqiizbWJJzhRNllRPr31O/3Bl5cn2URRt765pct9Rpj0lTZH7C8pV1bysskd6Ohb++dn/9uwZWHuGftnl0sDvacYY6U086MW3WW19hTDiFcIULu53DPwSHyNLGNE6wuxac/+fsDtiZrooYFVgPMu8JvSz0T0p8/AWI2vnnvwj5OeFJh/Vua/LXh94P+9v6tWtxRpoi5NnznmtRfYhk71N0ls0oG082pQlN/Gtis31D0lmcvfn/A81uIY3/9lzG0hWkiyxXQMPyGPru8/8B80YIxoELPlH2DsrvaYKWM4OrDR6Wdg3OD1KijASSdR/c6ZcF/hFJnuQqYoE8jWBrwb6Cz1rbyVPGNmYpscs6LrA6D28ndh6+ivC/+Ka3fbswdTVqKkl3sbrkk/L7RhJu9MjMRyRbMnz//vGlf2rA7/uW0gdRnyLCH53Ro3twOIQ9zT2oqDbqLnxoAMjsm7xWY+HXgg1i15FpioyJX5N4Bd4j66+sI88YWT3RQ987usN2xweN43Gn1xvmT1TkKIbq7HdTTk6npJri89N6vzvcjtHFK8w/FFseb4jft7DnGff/d818Au/jeRhpJLwb+JT1dKSqZ3xiB1Y6RP2LkFTwhlYGLHI7Q+BX+KuZKki41nQBSyXLSdHGKlsKRP8g51yqTQqc4skBcV+t+rbpNHUHh9V7tMDkn/BXJPohRjZ3F4Xv2iepqPjCVIS9uHRke4kfRh5O8qsCv0KGyfss23tJIQdWKkSx5FkU0O+xMQidmChAoUD/SnwK3w1WaqIoHcEmHQHKcJIrZmsp4Ifc7PZ0Xk4loRf7I+i6unnze2nTM21xj9190vDf3UTKVFUSZe9qN/k1uuVUtg7ISLXXeQPI75BJv2rg7/IUnl7MoUQNa7o21byoHcImoc/UUf4zJPAD0j3HacdFvNUeyRmxFkF/lEKSxJ2YGHkLok3uCnoM5Y8SUZl7mvmoe/AKuZ304NVMUecOXuvxCf8QeYfodOhYmOD6eJ8d/zMC//3yE3TAr/wdT2762FSiJHqfbx+teSBf3IoUzsFLA5xT5cos13ol5iofw2JwoibuqLAC1hmhebSK8jU8E16uV4W+sPbgaTMDixUytNhzwejUZn7evhH5CxXHCdpb1zN7XP2tyhzfeivZSNtrJyRfXXz8zQlOwR96W73V0PnRgCWxSXJegK/yu1qJh/GK4SpkskGXlx131ikBkZmbVf8iGSFoFt72V5OpkZw+7Hg77V5vr6Nyg0YFva90ZJRet3Mwt6B5Z76XZZN7fGbEs/8tqbWLxgrl/V0xJvdoRhFFu0Y9rX7I+QPFbyZBX0TN0tyNbWEQHqylSSBn2cQ5TcWqYEKLCvM7w98QUoBawSyiUKP32NkCRW7O8rDnvt6VPG578YvG4Z9DpNF6f5QQ+6I2Xu4+1WS5+hlqLANJR+Y95JjmsuD3oHlMgpYqGSLqrmbeMhLRNpjipia6NuomebuejToBWnwDx8DHy0ivSzs4VYryRIqKOhXCBOrfAGkz8M/wL0s3ZPWBrXDkSdOVjnzY7HzCqNyk7avru868yW/LB5Jod/E+Sw6KuqZsG/iNbQDy9iBla50BV5cDf0VCaRs7hR2Actd7MAamaAXXU4BC5Ud0II+H9LcKj6/iJTsHHpaMiqldpPGulLjNyTtTefCKFhZl9FZW+7fsuagBzW2UaOyimG3d2skRQh0wRx023TTWrKEyi2o/NGwLzDsh4/Bj2eBv30gGedfoZL3x7DnvtEozC+S0MdI93x9NpWbNHLt8dGSf5KehdEZr/z4Z5bE+S39M5HJQy9gPU0qUcFZa9A38dCLBBWfUiFF6Qr7jANzL5AkVG50iv4ReH9sJksjSnDQH6UwJY+TJFRu6hv63HcU5heRtgk7K9ETuiTekLa2NLH19FfI9XV6FUbp7ndVsWNB91Z7jyvwc03MnyGZqJWbuJnxCiECXe8F3jbNKGChkveKp+mP1Xz7Cbsgn4ReQEW62nvgc19pNMYzC/1spofT2JbqLHu+5JPpVRgFT5cz/Z8ezD8Y/CuEylDAQiUnrYHfxN05xB1h9p3Qd2CF3reRruEpKYf9wQ+xA2tE+ZUmhN3+kh6yhMq196Q38P44Gq8QBl3AMnnqzr/KtcXvcHkLPQqjsSiU26fWLT5rULuPI4W+A6tcWktSUbmbpIe9jbqGnqq72IGVKoG3TU8oYKFy6qMk9IdnTWRpZCkO+eIii/pIESrWnjwKeofyqDwgM9s28Pl+ul4TbmnJSPq6mLtjVAaB6CuFrvjngx7TJG8I+ff0rOldR1ZRsZu4oqCfQlngT4UrPGPhJpgio/KEtJLXF4X9hBnpkp0wQAGrugV9r41cG0gRKnj/DvsBj9nEUfhTQ3+FMFVnPDfW7fVxyV9Lb0Llu79dW1ipk4a2npeyAQ+5rqsv7Ce1qJmbeOAF5cr+VJ7ipOoGI58Y8vWF/oQZ6fJ0dm3gBQRrIEsjEvQOrDIFLFRQouAf8IxCf/Swd2AlStUROZZEX6AnYRQW5g9oQP+hZXFpSHN+yeoCXpL0S3Kyi4oNwJ4Evi2fRQmCvckEveBzE7t1UTkXXTQgKQm4xdeRpBGNF2HvwKqjgIUKtqfgX0kdjYe3YX9pVCnagdXYFr9L5gfQk1BhK6O68nvz3fGQi7mh78DiDABUVCKFvqOvvlZyEYlXCNO14Au7uGpiwYeKt6qBgK+NAtZIoudhj2cD7MBCJdt7Uq7Fh7dhH3ugZE1q2o/pRHoRKuyZJEre37PojIeGt4ZUEnABK+Snn0jlTTwKfVJYQ68QGq8QpipdgbfNFBSnkTohP0RjB9bIwhf2eJbp7+MBLiqmHGUCb09JvaRKzgkt+DHSPRU7sCa2nL6TXO+lF6GC3XONmR3au2Th8uH+CVHYXxPgCSMq3KI84hXCcG7eFLBSla+wdwdakrDgQ8XvGAFfXLbCC75ay20m5KuL1FAmR6hYe8qUQp/7mmbNqtyGikOPDf5thmwmk4pzO7N1dZ+UPEMvQoX6+pNJVD4o3xHfOrJ7pCzkm2SWRKOSwt+lUcGnwlEU9PlxvvEVZqSER4EXsNiBhVqbg8QxBSwAW5UpZYN/wLP9mmkVm/9u37ht8Bsg+i0VcxaT62h6ECrUnO43K71zJDuv/rnElTzgMx4oYKHCXScK/RyAyhUJwi/W2URaZIr6TuBnxpQ5Aws1NQexsuKYYxYAbFV/Ch7wbJjYV7E5Rl8KzpPNROHnpKk9PkDy19CDUIE5y+9U1/fWfMcZ91fiT4vCPqTUM2ppYdsiKiYqh34OQOVem03BjpQmWmSahH1mTPhfWUIK23zAT/GDfvgIICCZ+vDPVEvWN1RsvC2noICVzaRgB5brw/QejLgZub5eKOm9hcvOXl2x/iOpFPKPnqpdG9dIPaQfFRqMk8BPDanYa3WWlPs8CvotPQpY6RL0jljzMgt6VE4cR7rXAx5AjfYOYHATy5InoW/X9Ib+is3O66X6UuC/d21vT/BFRRcFLIxI0c0+XeyMu0ZjsRx0BdjrslPIPyqlpHLgB6NW7mDz4L864xSw0sQt7DPLTBkOPUbFTHk49PGJHVgABrnYG/DgXzf2PqvYHKPcEP4OLOmxoNffU9pP31ny6fQeDNP1kdlrix2VL15JGwtYxZB//YDXNdMGULkWn/HQr7ByPzXwr84YBSxUcvYrzgNC5fQPhD734KMFAAYlkwu/gKX6uoo9wE0GSuF/xb67O+iclJO6Q+g5GMbirtdkJxT2sIN7OuIHR+tvybqUD/mNqsjLFLBQuW6VKAl8H0nFumOpz4vZoF/68hwtMkV9xy0jhVv/LWUoYKFyBsrRlLDfwLYCWQIwGJmB4N8g1IR+ResrtXbMqOShP65uievUHYf7IML8IHoOhras05WZaOD/1nac+cho/1WRSfmwV002hRaBCi5zA3/NKKnYkqlpQt/awJNRr6PjCbTJ1NyZwj49jh1YqOTUI1Loc488WQIwGE9uKIf/CmHdQMXmGJmBbPDnS20f/kHzB9JzMMgZ0+1RYu8rdM0/bCyKV9LG15WCngS5NI2GgcotSrKBP5Op3A6sJxed3xv6Qb+TSv1TaZWp6T1BF7AsoYCFSrb20B+eOTuwAAxOsRR+AStTuTOwBiZoQ+i/ty/gAtbEltN3krQLHQdb8aDJjizsoTf0LI1/PZZ/cfivEFq0I+0DFRP8K4Qb106q2Lta3iNpu1B/aDapf4Wkx2mYqRB2z8lSwEIFF1PStLC3HLIDC8Agrd+2rCmBP78tZys25NZtWN9Xyk4I/Of2B3tOV7Yu80Y53QYvOUF6QJGdV1ipi7UsHpcPfkZyXxN0jNx3oqWgcg2+FP6XylpaKlcocK0N+acmSnamVabmjsUOLNTOvSIJ/uEZBSwAgzMj/PujR5V7SLZm8sTgXyFM3ILdgWWKXk+nwQuUJPuJJf6Bwp62R6Ejvmi8ileSlJXsSYVdZuUVQlROJusK/WTHVfuY1F2pu9AzIf9Uc7Yop4fbxs2BofbtEs8LUcHW7kEXsDzwhxMAAhLHidrmhX2NSalyE4xL4j61zfWQjz7Iet3EgO8v+9FpsGky9JAifa8c9f9g3eKzgnljJmtKngx6USL9G60HlWIaKEvZsC9y+4q+qvVE2IsweyWtMjW9J+wdWMqWyREqKOyHZ+ZPkCIAQ5Ao4KMAKrkDS5JLUb/kDcEO4VltE3Bb2Y3uUtOeknRllNjSnr10jeI4uB2cWSkKfQfWrqromUCoZX2JkmzgB5uouLpyV+h6IuT6tJnxCmEaxHGke8Megm2AHVioaIvaKeRph7meIkcAhiDoAlYlz8DaNAHukxRsAUsebAHLRAGrFj3opitddkXvSi0bz9cDByNrKj/pYZ/N2zi5Jd6htzvmaSMqcINUEvoGLO2wbcVu4mZ6IuxVvVPASoMVK0zZvcO+xnrOwEJF7Rr01ZmYEwEYiqDvkV7JVwg3WiepKdxsJNuGeFkTD493UuIT6S5V7z7JbnbXLVFW1+QXxw+k6eKzkTJPlgPf3BRlyq+RmKyhAnP+Bk8U+ItGO5SLmScrdX80f8LCPnt7F1plCkydGqkQeN8uOwUsVMSkI07bUWXPBd3eLXqSTAEYypQw7MWeVXg3ha2S/OXh/t4wd2BlytpNRmepHu5S9KhL95n7H5Wxm5XolkJn/HSaf1V2bVkrc9nAt5Wa7SbpBhohRr7Ira1dGubR44G/fdvU3H7K1J6Oc9bQOgO2ZpopG/aDjj6+QohKTeBLmeAn8FHCK4QAhrCMNSUW8m08yVT6FcJVgSckyAJWJE3jPIbUrfZWbWrvT0l6zGX3y5N7PYrubS7YfSuviNdV2y/Oqjvut7b4Hy5/RcBTtdfQOFGRLl7y4F8hHEgaMxVc5DyaRGH/3rImTJd0Pa0zYJMVKfSPUpcpYKFSMq8Ju/Bv5bVNK/9BngAMetTwwF8hrOwh7jLpqaALMaaXBdpO7vHIT6HHhNBEol6X+iX1u5JeuRK3qEdJ4rJolWf6V617rH7Vls6r6q3S2GQlyaWHJQVcwNK+NGNUZDCYqEQDYV+j96+v3FOozIaHAv4IiyQp8uS1ooAVtt4eU7Yp7L6dqeOhISo1gw/6oZlJK3XRRQMkCsAQhP2QxypbwEpkqyzgBxHuCvIr3D1L4z9L+jPdBUGvHTd1o0cCv879SBUwjBvRxlfz1oZ8je7Ra8lU2KZtaA7+RARjBxYqNiiF/dBs00NHAMBLTgqSVYFfIB8xAoYpkiSz0CdDySub20+ZSrqA4Sx27KGw7+FOAQtAOEOSWdhjklHAAoCtTH5DPydwF5IEDE8kSZ4EvsCV2aZzcgAMtfe4h96/99GMOEumAIy3KUfHU1zJvwU9YiYUsABgywNlFPgOLJ+ca4u3I1HA0G18hTBTvjcFF8prhMCwbuL2t8Bv4hMbd9LuJArAeCv1az/Jgn5lllcIAWArU9+kvCr0a4ycXVjAsPqOJFl/5u7QL9QT3590AcNa7dwT/ECUJLxGCCCAsUivS8Fl3kOmAOClZZT5e+jXWFbyajIFDGOuJkn57vgZycKuVJveQrqAYXSdjO4K/Ro5yB1AEGOR6Q3BX2R9371kCgBe2to99ahkfUEvwi3ieBxgOH3nOdO2wHdh+R5NLfE2pAwYmkz/+uB3WJqxwxJAEHONtwY+Wj5ZuOzs1eQJALYgjhPJHwn6bsPxOMCwRM/pRYFvSTdTVm8iZcDQrOn+Yo+klSFfY2J6m1rierIFYLxsfEjmrwn8Mnl9EAAG54GQL875CjcwLP8sYJlsRegXm3jyZlIGDJ0p7NcIzTUply2zCwvA+KnTW0I/wN3M7yZRALB1rrA/YmSuVza3nzKVTAFDE/2rk5f/Ev4qPHorKQOGdRO/Pfz+bQeSKQDjKPxd3u53kSYAGMQi18PegSVJSVK3L5kChti3n/0PdZnM7ZKSoNe38rdr1qw60gYMse9YEn6BWtFBZArAuC0kgj//SnJFfyFTADCoUf1v4V9jhreLgKGuGJ/9D88sifMKfKulpMZc7w6cgwUM9RZeTv4c/EW63qEZcZZsARhzs2bVmdvbQx/KGyauu51kAcAgppUWhV/AMn8nmQKGJnpeH5IH/2TP3d5F2oChKe6VvVdSMfDenWt+uV5HtgCMtVxh2pslnxz4Suf+py8+t0C2AGDrCiU9KNlA4OP6OxXHEdkCBu95HcZlwRewzKODSRswRHGcSLoj9MtMLOE1QgBjzi0Jfm6RhoeMABCM7rjf5IF/pMynTr5XnIMFDMHzCliJJ39MwTTzrWo5YSKpA4bYc1wpeI3QZpApAGMtDQ/H0vCQEQDCmvvabaFfY8bER4yAIXheAWvipA23SlYO/JonNEfNvC8MDLWzR35L+KtIvYMPNQAYU0fHE5SKA9z1J5IFAEMYN6Mk+AKWuzgeBxjKmva5/+Xpi88tmHx58B3d9FFSBwyNZZKbUnCZUyYXp/EaIYAx09yXvFPShMBH8PLEkm4lWwAwlIVuFH4By/x90w6LJ5EtYLD9+sVuSkFH/xgH3gFD07PojIck+0fo15lx/xjZAjBmcwqPgh9z3Pz2Vd1xkWwBwODl63VH6Ae5m2tSYbLeTbaAwdlMEchuTsF1vzx3b/nNpA8YsuBfI3Tpo5KMVAEYdXEcpWJXd6KbSBYADNEl8QZJd4V/oTy8BQbrRQUsS0o3p+LKLfo46QOGLA2LoGlNh8cUqAGMutz95bdKvmP4kzW7mWwBwHB48K8RyuwwzYiz5AoYzJzoBXqWnvG3NLxmJNcRaonrSSEwlPujbkzHXMM/SbYAjLokHQ/DLAp/9ywAhDmltD+m4Cq3nTxNM8gWsHWbP0fKdF0Krv3ljZmE7ZbAEOQHVtwmaW34kw0dMbXl5GYyBmDUtMT1kh2egitd2dMRP0jCAGDozLQsDdeZcf8U2QK2bvMFLE9+m44BKfp/pBAYgu7usmQ3pOBKGwcyDUeQMACjpakuaZF8hxRc6jVkCwCGp9AZ3yPpsdCv06WPNx4Zv4yMAVu22QJWthRdm47L94Ma2+bsQxqBwTOlYoelzKL/FYe5AxitGUSSkodgZr8lWwAwImmY+9ZbSUeTKmDLNlvAWtMdPyrXA+mY12VOJo3A4JWjcloK1Hs1tceHkjEAlTa5Ld5P5m9Pw7VmB9Lx0AEAwl0vWlrmvp9RHEdkDHhpW+og6ZgwudobZ87ei1QCg9O7ZOGdkj2Ziu7tWiB2YQGosIz81JTMcR5Y0x0/SsYAYPgGBgZSUsDSrrl79CEyBry0ly5gmV2djp/gmSiTnUcqgSEsieS/Scml7p9riz9CygBUSuPMeF+X/iMll8vuKwAYofXdZ/5DsrtTcbGmM9iFBby0l+wck7LF30i2PhVLXPeWyYfPmU46gcH2GftZiq52PjdyABVbG0S+UFvegR7QxablYSIABL9eTMtrhNMb70s+QcaAzXvJCdyTi87vVXq+fBNFSfR18aoRMCgTy/qlpA0pudz9cvckfFoYwIg1zZxzgOQp2dVp6zc+TAQAjHhENf91aq7VLVZLS4asAS+25SeQlqRol4YOzLXNPYqUAlu3qjsupurLVmbn8GlhACMSx5FHma9Klo6HXa5fb3qYCAAYocLaNb+WrCcll7t3rm6fI8ka8GJbLGB5JrpCsnKKfs6Xcm3xdqQVGMTayFNVoN7GyjqfrAEYrsZ79d+SvzU1F5yuh4gAELarL+yT6efpmajrnOb2U6aSOOD5tljAKi6Kn5LrlhQtybeVWOQCg5F4dIXknp7unRwxuT1+N5kDMFST207bweRnpueKreylgSvJHABUcmjVD1O0rt3BkwlnkjTg+aKt9/M0dXRJ8k82tsetpBbYsnVd8UopujFFsw6L3C9tbDl1e7IHYGiTnfpvSJqSornMzcXus1eROQConEK/fi3ZmtTcCcw/k2uN30bmgOfO6bbWcer7lkjWl6YfZe7fzc2Mdye9wNY6uC5J2RVPs7qGS8UHGwAMUmNr/N+Sp+qLTi7rJHMAUGHdcb+kn6ZqrW6+aPuWuJHkAc92iq0oXHb2alOK3hfeNF9V5IvUEteTYuClTSjrh5KKqbpo90ObWuceT/YAbHUyMDPe10xfTtllb8jYBgpYADAK0vd2kXZdX+e8SghsEg2yp1+Swt/2plzGv0OKgZe2qjsuStadtut2i77IeVgAtmT7lrjRIu+WfGLKFlc/7ek4Zw0ZBIDKy+dWXivZ6lTdF1z/1zwzfi/ZAwZZwMrvrl+a7O+p+3Wmo3Ntc08lzcAWePkHKbzousj98saZ8b4kEMCLtLRkNmS0WNKeqZu6JPYDEggAo+SiiwbcPW27XKMk0uKJLafvRAJR6wa3AyuOE5cWp/Q3ntnYFv8HqQY2r9C18AZJ96Tw0pss8ismt522A1kE8FyN2X0ukPlHUnjpj/UkK64lgwAwejyTXJTCq94+m812aEacJYOoZdFg/8FSpG9KNpC+n2hm8kW5w+MPkW7gpXqJfzull75LpLorpxwdTyGLACSpqS0+3uTHpnIsdvuBurvLZBEARk/vkoXLJbs5hZd+YG6an00GUcsGXcBavyR+zNN36N2z6pXoR02tcz9IyoEXm5hZ9720nQfwHG8s9fu1ze2nTCWTQG3Ltc39T5d/KZ1XbwMDGvguWQSAsRhydVEqr9t1Yq41PoYEolZFQ+ovSfm89P5Ub3CLuie3zj2EtAPP9+Si83vl6f3ogbnekPiEq7Y5PG4im0BtyrXN/U/JvjfUuU1AFq/vOvPvZBIARl9hzepOSU+kc+Krbze2zz2YLKIWDWmS17t04e0u+016f65PjCy6qrF17kxSDzxfUrYLJW1Icf9+60BZ1zQeGb+MbAK1ZePT6DQXr9xd5S+RSQAYI1df2Ofm30zpPaPOPOpuPDzem0Si1gx5opdRcl66f7I3mKkz1zb3C6Qf+Jfe7vgJpfdjDRuZH2ADuiV3xOw9yGiNyfY7QahNubb4FFmS5p1XkqJfFDsXriCbADCGI+9A9A3JelO6pt3WEv9Nc3u8K5lETfXbof4LPZ0LfiPZben+2WaSnZtrn3eeWloyNANgk0z5fMnSfYCw+atUzt7QdHj8FhJaOyaV6nuJQo1pack0tc37huRnb7yvp5ebziWhADC28t3xM2a6JMU/YVri/ptJrfE0solaMaynlVGi06ri17tOzGX3vmZy22k70BQAqbD4jHslXVYFnXt7T7SsqX3ucWS1Friv2kfriEPtmNpycnMus/dPXfqf9P8au7nYEV9PVgFg7A2YzpGsL8U/YdeM6RqKWKgVwypg9SyNf23SNVUSgxmR6v7Ebg1go1JpYI5bNRQDvMHdvpJrm7do2mHxJDJb1beyZxTHCXGoDZNnznltKTvxjzJ9qBp+j3uVPBQEgBRavyR+zFwXp/xOslfG/PdNR8S7kVFU/ax/uP+iWXKK5NVy5si/eaJluba5n1ccRzQL1PSNvPvMf5jr61X0k44oNOqmxpnxvmS3SrkeJAi1IdceHx1FmZslf02V/KRfFLviZWQWAMbPgAbOVqo/ZCRJ2sXLWtY4c/ZeZBTVbNjFmp6Ohbe5oq4qWgE1SHZ+7l6/oXnm7FfTNFDLMg12tmSrq6h/v9Yi/2Oufe7JnHtXfTzy+4lCdcsddeq2Te1xl9x/IPnEKvlZSSI7lewCwPha33Xm3+X21SqYEe1kUeb6XFv8DrKKajWi3UYZ02xJ/VUWk7clUfa2XOvcT7MbC7Vq7SXxWin5YpX9rAlyOyeX3fsatlhX243MbyUK1aupfe77NNBwu7vPrK5fZot6O+M7yDAAjL+GSevOlOzJKvgp20l+ba41Poasojrn/SPQ0xE/KNf51RcWb5bZRbl7dWtza/xGmglqUWHtmq9Jdm8V/rQZXv7/7d15eFxlvQfw7+/MZGvmTLoAXUCBohTaIquILF6Q5VqwSsUhmQmFXoQAXhHqLVCWJG8mZalXKchVrr0spSUzUwYtS6VWUauCgIoi0ErZW7ApS0kzZ7I1M+d3/0hAwMx0yzLL9/M88zzQ8yZzzve8c+a8v5zzHn3OFzQNmHFpGfd0AZQBoI8xhcJTGbxmvB0yS1Xl54DuXWCb1+2R3kbuZSKi3PDuXd91RLCgQDanFKJ32iFzM+88oEKz21cYOenEAiheLsx49EhX9Ak7ZG6uCs0fw+5CRWXVbT2quLiA5rr7sHKBNtmjxz7rDzX8O3d2Xtvc3vvCM4yhgBhj+UPmXAula6E6uyDPLlRv2hq5fgN3NhFR7kj0rr0dkKcL6Mtmru2d+ouKwLV7c+9Sodj9W+Tii7oUcmGBDnIBwAvVua6Wv2KHGq7CHFPObkPFom9yYWtJAW/igaryc3+w8ZejauoP5x7Px3Mz3I94PM0kCkNVtTnNXo+/qOo9gI4rzK2Uvyfb227i3iYiyjHxeNp1098AkCqgrfqi1+t93lfTUM0dTIVgUOZ46hvkyrICHyaNgcpNdo+u9dc0zMaJxsvuQ0WhpOcKAG8X9KcbOMUj1p/toFlSFTKTudPzh0flbqaQ/6pC9Uf6g42/dC1dDeihBXy0UWj6Iqy6rYd7nYgo93Qsb/6boqCexg0Ao0Uk5g813j5pphnFvUz5bPAmKS/Z9h1A3imCzCaryFJ7or7kD0yediMAADtESURBVDVcxjl0qNA5S2/cIpD/Ko7joZ7nqr7kD5r77KA5iHs/561pX27+whjyV1Wo/ki7pvEnrsqfFDilCA4zdzix5t9zzxMR5a5Kb8d1AF4vtO1SxcWOT9f7gg1ncS9THg/YBm+Qq8C3iii7/VTlFnv0uPV20HxnTOCqKnYnKlSJqLkXkIeL5bio0ACA5/3Bxqg/ZI5mD8jREzFIM1PIT75g/b/5gubnrlp/huBrgEgRbPZmS7qv4t4nIsptby37XoeI/GeBbt4+Arnfrml8eEzAfJJ7m/JuoDaYvywZNfdB5c4iG0LtC+j3U96KN3yhxlvtanMguxUVqPMBbCqiz7ZHgRpVfcoONj7uCzUEUFdXwm6QK+ThZNT8mjnkkTmm3A6ZOb6g+YvAWiPQInqAgipULmqP3NTGjkBElPsSEfMIFD8t3NMofDnlxfN2qOEq3lZI+cQa7F84qiR5GYAXii9KtUXxbVi63g6aP/tDDZfZ5149jl2MCoUTNe8q3BAgxThh9rGicp/tTHrLrmn8cVW1OYI9YkTPuhzLm7qMOeQHX7B+mh1sXGj3YCNU7xZo0T0wQcT6kRMzD7E3EBHljzTkUkC2FPL4FSo3OT59xR8y30LAlHKvU64b9ALWW8u+1+Fa7tkAuos3Vj1SVW5Bb+mbfXPpNMzkpO9UCJLR5t8C+t9F/NkeA0Gda+nTdrBxrR1quMo32+zFnjHc1QB3bvuyBa8xiNxVGTAT/DUNc/uvtnoewJWA7lmkHfa5RCnmsVcQEeWXzpjZBHG/UQSbOkFVb7O9eNGuMeezkEW5zBqKX9rR0vyciM5nvCjvm0tHHrIn6mt2sHGhXVt/HAIBD6OhfOXYrQ2APMUkMBUqN0lK37CD5qe+oDmbc+ENSzHgbicSvpM55J5JM80of40J2SHziOXFmypyczFebfWx/tqlSAexxHSzhxAR5eF5byT8oKjcXhxbq/tC9E7bi412jbmpotbswx5AuWbIrgpKRMI/8Acbj1XgbMYMANgHwJVwrStt79R3EWx8REVXloq1+r0Wk2A8lDcWL+711JiatMgfi/eKio8oBXSWALNS3opef8j8DoqV8GBl4l7zMuMZVL9ztm65hDHkjqqQmZx23RkicroDnARoBZS5fDAUUHwnGWteyySIiPJXIt3+X7bXfwKA6UXy7TUegqu8Lub6giZuWfifRIt5kj2BcsFQ3tamvqT8h+PDAYAeyag/Yg8A54rKub2q2/zBxt9B9RGx9HftvS88g3g8zYgol22NmdftmvqzINajAHiZ8T8PeyWqOBnAyUhjkR00fwew0hX8wudJPvHWsu91MKNdJU+VWJiJVbf1MIsRNOPSsqrRY77gijUDitNd1SnywQMEWbn6mKXJmPlfxkBElOfii7o0WF8j8PwJ0Ioi2vJSgdaqi1o7aDao6IOiEnei5jF2ChopQzov06aHTeeoc66Z6UmX/BF9VyDRAAcGBU6ByCmqAts7rUOCU5+AyONp4LGOUjzGWw8oFzmx5t/bwYY6QJYwjUz0YAAHW4orOlO+tB1sXA/FY2rpo6LWb5yoeZcZ7Qj5jTfVNeu9+EJerTrMxtYaf4/iaA9wPFSPU8hxLrQCymLVdvrsE87WLXXMgYioMCSjzWt9QTNPgB8W6TntvqL4NqDftoNmrYq73HV1ZedBnr/BGJc9hIbLkE8s3nnvDa3+kDlLFWuKrGK9qweHSgVOgeopFgC7B92oaXxGLDyjkL8K8Eyit/05xBd1MSsaaU40fI8dModCdS7T2O5n2wNgKgRTRaUOcNUONq6F4s9i6TOu6jMlqW3PtMUXtjOrj7jL2brlm7zyauiNnmNGp3swXcU9RNT6LIBje12dYuHD11axcLXdT7pgo+q2WeyzRESFJRk1t9tB80VAzyryb7ppohL2iITt9diCoFmj6v4G6v46uXzB39lTaCgNy5PxEhHzR3+w4RsKtAAf3GtAO6YcgmNUcQygUAC2tyqNYON6EXkO0Jfg6ouAvoi056VE3LzHyGg4Ob1rr7BLph0E1RlMY2eIAJgOwXRVgUCQ8pbDDja+CsUzIvJ3CF6E4EX19LzkLL1xS5EFlBCVSxIxE2FfGVyVwWvGW/BMFngOUOg0QA4BMD3do/sCgKiAhapd/lx3KPDVjugNbzELIqKCo6O8yfO6UpUHKHAY4wAAHQfgLBE5C+KBHWzcDJG/wsWzAjzrKp5NVm1aj8WLe5kVDQbvcL1RIhqO+oNmvEIXMfbdPlB4AExV1an/HAcL4FXYQbNFoG8o5A1RvOkCm8TCm1B3C6DvwvVs0VJsrehG5ztxk2SWtNvi8XR5YNrZ3R78EoJjGMhumwzBZIX21RAUgFsKO2i2APoKFG+q9H2+BdjkApvUk96ikn63s6d0C+JmW/4f4uRP4kWIk+DvnNFzzGhNp8ag1ztO4Y5XwV6q1t6AjhfBPgAm9798wPt/EgFYrBo0LtSd3RENP8MoiIgK01vLvtcxJmC+mvLij4COZyL/YgJUZ0AwQ/uHqbYzcZsEG9cpsFFU/uFabmvfeazV6rp4E6V425Pu7m3vLe8oiPNYGlLe4XyzRNTc4gsav0CbGP2QjfzGKTAO0MNUAPlgbNJf5LIUkgK6vYAdbIRjt5ayIk676524SVaF5p/uavlvAD2UiQzNZxvAOAiOFiggfR9tASCuBcCC7VUg2Lit/yqQR5JRc05+baO8o4qGZHrt/yHGh1lsLyw72PgqIFUALECr0j0KwAPI+z0DEGFxapg+n6rAN5Ox8ApmQURU2NriZqMdrJ8FeH4DaBkT2a7S/ivWDlPR/iu9+/6QJhaAFOCi7P3zWADSAWAbgE5AeTs+fYR3uN8wGTVhO9hYCeBKxp8LR+BJvKWTBkV75KY2X+DqU8Vb9tv+yctphE4SAC0FZK/8WWXpVdHbvaVo3LrEbOUu3AHGCNbrfrx6KldY85NR82PmQERUHJxo8xP+moYLVWQp0xhsWgmgEsAYZkEf6xtqjcwHvmm+CPhoaaICk4zf+E7KwmlQeY1p0PaJo4IfeFP4VDLSdBmLV5SXvVil2Yma7zIJIqLikoiFl0FlIZMgGj7WCL2vJg6U/wTkbu6CEZbcwiuwaFB1tZg3xYvTBPIG0xjJg7vm8mf7VUCu8qa6PpGMNF3WFjcbuccoH6ngB4mYaWASRETFyTkI1wgQYxJEw0HEO2LvbYzrAN+wQ41boJjHnUFUOBL3mpfHBMzxKa/8AtApTGT4uci1yY+kDcB9AO51ouZx8N43yvdTKJXbnai5nEkQERUxY9xEIHCO7Z3qBfB1BkI0lEboFsIPr4ETaboCovO5M4gKS1vcbJQUjgXkKaZRtEP8lxS4xRU51UlhghM1FztR8xhYvKK8P3/CDYmY+Sb7MhERIR5POymphcgqhkE0tLy5sBJOJLzQF2pIiMr/YORuaySiQZaIm/f2DJhTekrkAVU9mYkUNBfAiwAeA/QxS6zft0fMq4yFCosqYM1zYuZmZkFERB+Im232TPN1x4dVAL7AQIiGhjdXViQZCd/urzHtKriLjyMdRuPHcQ4sGlLvxE0SgbkzbY//Pgi+zETyXjcgrwF4VUVfgcp6sdJ/Kyvrefbdu77rMJ5hsnatwDuVOQwrSQN6oRM1nL+TiIj+xaaHTefYWjOz19VfATiKiRANPm8urUwiZiJ2sP41wPopgAncPUQFIr6oywkEzrQ9066H6FUMJM9OyI5Ed+VL7mdU0u923nvDZgxw2xQrV1TIVNAprnuOEwuvYBpERJTJey0mYZ979ZfQW/YrQA9lIkSDSSTnbtdzos1PpFKpowD8mTuIqIDE42knZuYLNARIFwMZ6uO7Dt7cPMa4HS3Nz3Xee0MrOOdPbnhnGq+eHb4P0z+stHsii1dERLRD49mlN27xlOFEAL9jGkSDSdWbi6vVFb/+H5hjTrB79P8AnMMdNYQ62jkIomGViIaj/lrzmrpYAV5pSTth0kwzqn1U+tNiyadE8Cm41qfV0k+Iyj+cqDmfCdHgnyfhSTeNWR3x5s0Mg4iIdtTWJWYrZlx6mj167L3g0wmJBo03Z9dsiel2gHN9oYYXRa1GQD3cXUMwIOyukk2MgYZZosU8WVFrPut18QCgRzKRoRh4S34XpwMBT1XJQYepek5wgaMEOMKBTrFgWf2FBUAUogCgf+AOp0H/CEGiyXT7NxBfxCtGiYho5626rccJBGps77TbAb2QgRDtPm+Or58mI+FmX435vQiWAdiHu2xwbSpv5+1ANCK6WsybqKv7vD856VpVrQefQDq4BvMWwmEyOnTtvi5KZqriS4Ce4Cr8gIKXidIwf3h6AcxPRvmkQSIi2k3xeNpB/CJ/yGxS1UYGQrR78mLAmIyZNd5U93QB7uMuG1yTuqs4NqSRs3hxbyJijCvy74C0MpDiU1V93QH+YGOTHWz8W1q9r6vqbYCeAcDPdGj4yQZY6ZMcFq+IiGjwaCJijEDm9j3Rloh28TxN8uaKh7b4wvZEtKlaRM5TQSd3HlHh6IiYR9WLwwA8wjQK3/jZ8yrtkJljBxt/61rWSwo0APgMk9kJB27iHx8G3/2WdB/utDQ/ziiIiGiwJaLmFkX6ZABvMw2iXaGad7fsJCJmqYp7jEL+yh24+9KjkxwEUU5ILjNvO9GmL0PlCgDdTKTw2EGzhz9kTGfKtwGqdwP4AiA8BtEIEwciFznRpkB75KY25kFEREN2vhtt/m1KU0dB5U9Mg2jn5eWcMx0tzc8lW3G0iF4OSAd3I+2o8q6yHqaQ09SJme9Zbnq6AI8yjsJQGbxmvK+m8TYV3dA3/4OOYyqUG0cceVwkdaQTMYsZBhEVMP5hMId0xa5/wynHFwC5m2kQ7Zz8nTR5jUklIuFbLcFnONClHfXONHQCyonrc1z78gWvJKJNp4nIeYBsYSK7NDAf+X5eV1fiDzVcZqF0vQi+JYpR3DGUGx8PdEJ0vpNe+2+JyIKXmAgRFfhBj3/wzzVLTLcTNedD5KL+h4cQ0Q7I+6d+tUfMq4lo02kQvQAQXvq/k9xuX3HdvmOMC1hJ7vn8ON1KRMxSN4XpEFnGOPJLZU3DybYz8VlVuQXQKiYyyNom8dbLXfdISa8c7ETCCxGPczJdIir8EypLOUbKUU7ELBYLXwCEf0wh2q48msR9e8dlJxK+U704CJAf8+kOtB2vM4L80RE3m52IOVdUvwzgBSayo8d3HZkCx4nG6w8ZY4n8AsBB3BGUQ94WkfOcaNMZbXGzkXEQUdGcErg8981liRbzpJNqPxQqCwG4TIQokzycxD2bvkmgzcUApkOxkjuYBu73eJUh5OGXeyz8M6dVDum71JpPb9l+Px/+Wwgras0+9kT8um+eK1jcCZQjQ7deKBYDMi0RMUuZBxEV32EQLzOEHBdf1OXEzHwL+iUAbzIQooEV5ADDiZoXnFjTTFfkVECe426mj3yHW3iGKeSpNSblRMxiT5lM6fsrlXBS/hzhrzXHeF39K6AnMA3KGYqV4sFUJ9Z0kRM17zIQIirOQ6E8zRTyQ3s0/Etvqnt63x9eiOjjCvov5B0R86jTiiMUerEKeLvAQF9odmfRzaMi6j7OPZ/fti4xW52YmS8eTBcgBl5uPaKqqs1p6uJRAHswDcqRI/3TCvdEJ9Y0M3Gv4ZUHRFTUXMVjTCF/tMUXtjuxposgeiZUXmMiRP9U+Ld4rDGpZDT842SvfLr/1qPXuds/9IXWM6roClilKesJQLq49/Nf4l7zciLaFLREPt3/l6oUUxledrD+866FnwJayTRo5Ml6ET3HmYKjk9Hm3zIPIiKgM2Y2AbKWSeQXJxJ+0Em3T4PofAB8CBURimmOkrjZ5kTMYsduPVBEzuOTHvo7QFmnFts2vxM3Saiu4t4vHO0R86oTa7rIEpnCQtbwsYPmIMCzisWrEZDcwqcQftSrELnIacX0RCTc0vfEWSIiep8C9zGFfBzDLupyIuGFKUsO5lO5iYpxkt3Fi3sTEbPUsTdNg8h/AHi2mDtAMV6BBQAqGuHHv/C8X8gSSU+Fyp0AupnK0BgTuKoKwAOAVjENGkHrROQ8J7XuQCdiFmONYfGaiGigQZ8HEXDKhbzV1WLedCLmXAt6GiB/ZyJUtMeyot3yxYt7nYhZ4kSbDgXkBIHEwas2ikYy9fcHAD6NsFAlIgtecmLmAk+ZTBTRy4txDjyBDunVlSlv+Q8AncLeRiPkD6oScKbIIYmIWYp4PM1IiIiynBvda16GysNMIr+1R8O/dKZguoqeDch6JkLFho85B+BEzWOJqDnb8qYPBOT7ALYWy7brtq7ivA0lHk+Lyq3s/YVt6xKzNREJ35rsXTcZ0K8I8ChT2X3+moYzAJzLJEbQ+HHFeOzeJpA4VI5zok3HJWPmft4qSES0EyS9EEP8By4aBsa4yUg47kzB1L5CFl5kKFQsWMD6kPZlC15zombeKG/HPhC9AMBjPMgXrkQa/wsFn05VDOLxtBMNP5yINp0qrnt03zxZ0s5gdkFdXYmK3MwgaBi9DZWFKUsOSETN2U7M/IGREBHtPCfa/ET/XSdUCD4oZMnBLGRRsWABawBvLftehxMJ3+lEm04QcaeIYIFA3ijEbdXKiuKdCDhutsEjc9nji0tiefOfnFjTRc7WLeNV9GwoVoK3D+8wnzPpQgAHMgkaWpIG8HMVCTpb3/ukEzPzu1rMm8yFiGj3eFJyBYAEkygg7xeyWmWaQENQeZyhUKFiAWt7g93IgpcSkab6xBTs54qcqpAW8DGmBcNpMSsBuZtJFKFVt/UkI+G4E2uamdLUZIVeB/7lansnSJYA32EQNHRkvYg0eRSfcqJNM5IRE8Oq23qYCxHR4GiLm42AXs4kCtAak0pEw1EnZo5Pq3tE/x0HHQyGComXEezwwM3t6Js/51EE5lbYHvtLasnXRfFlAH4GlL/KKjov6+mq+ByAqUyjOHXFrn8DwPUArvcF66dZ4gmo4mxAD2Y6/+R/wZ2hIgcwCRpk70FxPyD38PZAIqKh50TDd9vBxmMBXMA0ClNnrPmvAC4aE7jqynRJ2Rx1rcsguj+ToXzHAtauiC/qcoAVAFZgjim3e9xTAWsmoGcAmMSA8su7d33Xqaq+7iuu5X0K0HFMpLglo81rAawFYHzVZjosfE0UX4bokSjyq1ZdsWoFnBYwJ3S0C7z5/LcT2QLBI1A37qSs1YibbdypRETDx9n63rfsqnEHQ/Q4plG42uIL2wHcCmNu870gXxBBDYCvc8xD+YoFrN21xHQ7wMPoe0lVtTk87XHPEFdOh+CoXM9Yt3ULdyLQvnzBK/7q+hlqWY+CV9RRv+Ry8zyA5wGEK4PXjLfgPR2wzgBwCqBVRRXGjEvLBPgyewXthucBWaWClcnetY8jHk8zEiKiEbLqth5v4KozUt7yRwEcxUAKnDFuElgDYA0Cgf+0vdM+D9XZ6CtocexDeYMFrMGl7cvNXwD8BUDzHudfaW/rKD9exfo3QP8tHwpaxSyxvPlPdo2ZAcFKQMcwEfqwjugNbwG4G8DdCAQ8Pu9BB4l4jhPFKQp8Mef+kiUyqJdK2VWjjwbUZk+gnfAegN9BZJW3Fz/vm3eFiIhyRVt8Ybt97tVfwrbSlRAcw0SKRDyedhB/DMBjCMy93Oe1TxdYMwGcBuhEBkS5jMWUIfTuXd91AKzqf2HPgPH1lLjHqfYXtCCfBbSESeUOJ2b+4Ks1x4uLnwHYj4lQpi/+ZN9thmsBLAaAqpCZ7AKn9Be0TgR0z4LaZvEcB94+SNk7yRYoHhPL/U0a1m87DsSzMMZlLkREOXzuu/TGLZNmmpOdSl0GwdeYSLGd0y7qSgI/Qd/rg/NZuDoTglMAlDMkyiUsYA2jd+ImCWB1/wvjZ8+r7HQrDhP1HK6KIwR6uEKmDWdRS3vLeQvhxyRbzLqq0PwjXC2/E9BZTIR2RHvEvIq+YtZiAOKrNQdb6h6uah0ugsNUcUQ+X9kn0ENZvqIP6QbwvIg8Bdd9Cpb7ZCKy4CXGQkSUfzY9bDoBnOUPmXNd6O2iGMVUeD47aaYZlfThCwo9CcDRAI4AbzekEcYC1gh6a9n3OgA83v/qEzClVSXuIa4rRwisw1X0UECmcKK94T5439QG4Gu+oPmmQL8P/vWBdo4mW8w6AOsAtLz/j6ND1+6b1pL+gpYejr6C9b75cCxWYDJ3a+6Y1F0ljm9YSoopABuhWAfIWrGwTpBe29629Xmsuq2He4KIqHAkImapL1j/NGDFAExnIsWtv7D58/4XgL4rtBQ43oUeKa4cCcERgFYwLRouLGDlmrjZ1g48jb7XB/wBMxalOFBddwpUDoTgQEA+Dej+YCV8yCSj5ke+YP1vBdYPAHyRidDu2Bq5fgOADQAe+OAf6+pK7PZJ+4u4nwZwIGB92hV8ShSfgujeAEpzZPX34x4s3EMdIBsAvC6KjWq5GxTWBgVe6Gjb8ncWqoiIiunct3ntpJnmc0kbV7rQK3g1Fn1Y/xVarwJY+v55bFVy0idSwGQLmAwXkwGdBsFUQPYF1MPUaDCxgJUnEnHzHoAn+18fscf5V9rdPaM+4UlhH9dy91ZYn7AUE1SwV/+VW3sAMq7/vz8yGNaKHt5CuANf5ABOtoPmTKj+NwSfYio0aBYv7nWAF9H3+tnHF1cGrxkPKZ1oCfaBYpIAk+BiL1gY6yrGQnScKMYCUtV3TB+yidZZKB/AmMBVVW6JWB//95JyN9U/D+KQ2FTerjaq2gb6uoBqL0TaAWwTaAeA96CyBcC7sNwtUGsLXHdLSnSzN+3Z0P/9QkRE1Pcd03fljakIXPt/Xo+3AYILAFhMhgY6j23vK2i9+i/L5phyX69MhpveEyoTLMFeUGvP/jHqeKjsCcEefdPnSBmAUX39rMie9E07hQWsAtA/SHr/dqXtqgrNH5P2lJd40vC1d728lQnuGCdqHkDAPOIvQZ2qzgVvqaJh0P/0w7cAPLPDP3Si8e65J8oHrXoSCHjA22gHlPJWrIfq+I//e0+XPAHg2CF74/iiLgcYyz1AgyHZaz1YVdKds/2pvbS8a1BPftNdhw9UeM6Z7Y3fxHMzygld8ev/AeCiqmrzY/XgSlU9i+NH2mFLTHdyB8enAxlba/xp7eYVXPQRvPqGaFcYY9nr3TMA62pAPz+oJ9ap7tFt8YXtDJlyRmBuhe31d+bwGv7BiTYdNxJvbAfNZuBfC1iAPOFEzbHsPEREVCiqZl+3fzrtuVxU/mMwr/h2RQ7viJhnmDARbQ8vBSXaFca4TjT8sBM1xyrc6VBZCGAzgyEiIiKiQtS+bMFryUjTZU4Z9lLRs6FYCUgvkyGi4cJLQIl2U/8cWfNxornOPwmnqatfhcgZgO7NdIiIiIiooPTdGhYHEK8MmAlWiXwFLk6H4BRAKxkQEQ0VFrCIBssak0oAj6DvhcqQOcxSfAnA8YAeB2A0QyIiIiKiQtERN5sBLAawGHNMeVWPnqBqnaCiJ6jgaD7FkIgGEwtYREP1hd53L/8zAABjrMqX0tMs9RypisMEOAzQKQAmMCkiIiIiyntLTHc78Ev0vYC6upJRifHTPSKHqchhAA4SF5Mhsm/fk+eIiHYOC1hEw8EYtwN4Dn2vD0yaaUYlRmGyCCYLsB+APdoqK3oYGBERERHltcWLezuBv6Lv9U+BgGe0Z9onUpLeFyoTrJJtbzAsItoRLGARjaBND5tOAM/3v4iIiIiICls8nt6K+OsAXmcYRLQz+BRCIiIiIiIiIiLKaSxgERERERERERFRTmMBi4iIiIiIiIiIchoLWERERERERERElNNYwCIiIiIiIiIiopzGpxASERERzTHldrfWD7RIRf+SjIZ/wpCIiIiIRg4LWERERFT0qrZ1V7hSds1AywTWPQBYwCIiIiIaQbyFkIiIiIiIiIiIchoLWERERERERERElNNYwCIiIiIiIiIiopzGAhYREREREREREeU0FrCIiIiIiIiIiCinsYBFREREREREREQ5jQUsIiIiIiIiIiLKaSxgERERERERERFRTvMyAiIiIip27aXlXb5tbsNAy8SVvzEhIiIiopHFAhYRERHREtOdBJoZBBEREVFu4i2ERERERERERESU01jAIiIiIiIiIiKinMZbCImIiIhmXFrmrxp30UCL0hbWdUTMo8UYy6SZZlSn3bvnNtca6wF8YnlsF26luJYNK/N5pAIJUXS76jpeS7cqNIFe75ZE3LxXjDn6Qg0nCaxPD7TM6cUSxM02fggHn13TcCEsSz7+7wJ3QyISXj24+9jUCODPtFyA7sSBuBfGuIWbt/kKLExA5gOD62zdsgyrbuth7ySiXcECFhERERW9qjGVo1zVWwdaZqncA6AgC1h7BoyvpwRT4bpTXGCyiEwGMBmKCRCZ6EAroV54+ksAqgqBAKKAZv6971cMLBG42v9/XoUdbNwG4G2otEJ0A4BXFfqqKl6WdO+zyfiN7xRizqIyB9BzB1o2tlRi7wEsYA1J8PK/UP2XO04U8hCAQS1gWXDbVGVZpvGVArBfxCEOcEUhRu0LmRqoG4GKZP4c6HdYvCKi3cECFhEREVExCMytsD2+oyCezwM4BsBnuuFOhopABB8Zdcr7Q+5BVwpgH4juA+CzfW8lEAHgLYUdbNyskOcs0acAeQK9eLJYr9qi/JKIhFfbQXMJoP+XsZFini9oXktGzY8KadvtmvoToFgCZC5eAbgjEQsvYk8hot3BAhYRERFRYZKqUP0RLjz/DtVTARwLoPSjhSnJtXWeINAJqjgVUMCr6guaZwS6WkV/kdxk/R5rTIq7lnKREzV32MHGgwF8J+OHEviBXWs2Oi1mZSFsc1XITHYVPwG0LFMbhaxOtuIS9hAi2l0sYBEREREVEH91/WfV8lQD+Lqruu8QXUk1TEQEejiAw0Vlvj1R30Ww8QFXNdYRC/8a+b1xVICcKXKFvR77Azpr4BbqgSuRyqA5viNqns3nbbXPvXqc26urAOyZpdm6klRXNdYsZOGZiHYbC1hEREREeW70HDPa7cEchX5DgekFXNfZA8AFlsgFdtCsF8WPPOmue9riC9vZCygnGOM6gbm1trfqN4B+buBGaluQRypqzTFdLebNvNzOgClFL+KAHpi5kbR6U5jBzycRDRaLERARERHlp4pas48dMjene7BRoYsATC+erdcpKnprylv+pr/G/MiuNgeyR1BOiC/qclM4UwUbs/TfvT2qD46fPa8yD7dQ7BLcAehJWZp0iaZntcXNRnYIIhosvAKLiIiIKM+Mnz2vsqvXd5Wr+l9QjBrksWkawNsANkG1FSKtItikcLtE0ali9UDdHhV0AlZagQQAeFy3zLUwylJ4VSxb1RURjFaFFyJ7icreUEwAMAmiEwGUD9IK+1T0Eohc4Aua/5WSniZn6Y1b2EtoJHXEzWZfrZkB1ccBjB7wk6Y4ojPlW45A4KuIx9P5sm3+kGlU1dlZmrhQtzYRa36KPYGIBhMLWERERET5whjLfgFzOlPaDNFJsnt3CiYAPA/Ic6rucxB93vWkX+z8VOlbMMYd8kFwwIyVkvT+LjyHQPUQAT6jkEMAHb9rv1FLBLgUvWXn+IMmnLA3/RCLF/ey09BISbaYdf5QQ42qrMw87tIzbO+0hQ7i8/Jhm3w1DdWqbkO2B0CI6rxELLyCPYCIBhsLWERERER5YEzAfDK1XlsgOH4Xf8XbCvmVwP2lJdZv2yPm1ZHcnkTcvAfgPQBPf/jfK4PXjBctPUEEpwB6KoDJO/ebdYwCi/zOxPP0nOtqnHsXrGfvoRHr55HwajtoLgH0/7L02f/y1TS8loyFf5jL22IHzfEA7gE02+NL70jEwou454loKLCARURERJTj7KA5MwW9E8DYnfzRZwFpcd306o7lzc8iD2Z374je8BaA+/tfqKq+7oC0xzpN1AoC7vGAyI78HgUOQ9rzZ39NwzcTsfAy9iIaKU7U3GEHGw8G8J1MbUSsW+1as8FpMStzcRuqQmayq/gpoGWZP3OyOtmKS7jHiWiosIBFRERElKuMsXzrcTOgl+34D8k7CkRcTd/TGWv+a75H0L58wSsAbgdwu/8c8ym4ep4LnCuKT+7Aj/tUZKkdbDzRsVsv5i2FNFKcKXKFvR77Azpr4BbqgSuRyur6EzqWN/8tl9bdHzBjXdVVAPbM0mxdSaqrGmsWpri3iWio8CmERERERLkoEPDY63GX7GDxSgUbRfRypwyfTEbN5YVQvPq4xL3m5USkqT55oOwP6FcA2dGB/vm2M2kF5phydiwaEca4Tqq9FpAsE5urbVmen1XUmn1yZr3r6krUq3EAWZ7yKa3elMxoiy9s544moqHEAhYRERFRrplxaZntnfpTQM/bgdZvKvTiZK98OhEJ34olprsoigHR8MPOFBwhoucA8tL2f0jP8G3TByfNNKPYwWhExBd1uSmcCciGLP10b4/qg+Nnz6vMgTUW25l4B4AvZmnSJZqe1RY3G7mDiWiosYBFRERElFvErhobAfCV7M1UBfhRWUXX1GQ0/GPEzbaiS8oYNxEJtzhl+AyA7wLIevuSKE5zfBpHIOBhN6OR0BE3m9XC6QC2ZumnR3SmfMtHup/6ahoaAJybpYkLdWsTseanuGeJaDiwgEVERESUQ/yhxjAEX8vaSOU1FevERLTpP9+967tO0Ye2xHQ70aarxHWPBfDCdlqfbnun3cieRiMl2WLWiWgNshZc9QzbO/W7I7WOvqA5WwSN2dqI6jwnFl7BPUpEw4UFLCIiIqIc4Quas1X12u00ewyCo5MR8zsm9lGJ5c1/8pTJ5wV4NHtLvcIfbAgyMRqxvhoJr4boxdtp9h1fTcN/Dve62UFzvABLt/PEzzsSsfAi7kkiGk4sYBERERHlgMrgNeMFenu2QaMKIs7W905xouZdJjawrUvM1oTdejqAu7K1U1g/rAyYCUyMRooTCd8J4OZsbUSsW+1gw8zhWqeqkJkM6E8ALcv82ZHVTqtcwj1IRMONBSwiIiKiHOCR0lsBjM3S5IHkJjkPq27rYVrbsXhxrxNtugCKJZkb6RhPCW5hWDSSnClyBSBZbsNTD2C1VFbXHzrU6+IPmLGu4hEAe2Vptq4k1VWNNSbFvUdEw40FLCIiIqIR5guaL6pqdablIvIrJyUcNO4cdfytdQpZnbGBarUvaL7IqGjEGOM6qfZaQLJMhK62ZVmPVNSafYZsPerqStSrcUCnZG4krd6UzGiLL2znjiOikcACFhEREdEIE2i2yZLfTvfinKJ8yuDuWry4V4BzAGnNkn09g6IRFV/U5aZwJiAbsrSa5FF9cPzseZVDcQiynYl3AMhSzJUu0fSstrjZyB1GRCOFBSwiIiKiEWTX1J8A4AsZh42Q8zriZjOT2jVO1Lwr4v5HliYn2rX1xzEpGkkdcbNZLZwOYGvGY4HiiM6UbzkCAc9gvrcvaOoBnJuliQt1axOx5qe4p4hoJLGARURERDSSxKrLsvSBRNT8nCHtnkQkvBrAQ5mH554LmRKNtGSLWSeiNQCy3CqsZ9gl0/57sN7TFzRnC1yT9RClOs+JhVdwDxHRSGMBi4iIiGiE7BkwPkBmZVjsAnI1UxocCvcaQDXD0rOG6NYsop2SiIRXQ/Ti7J1Z5/pD5lu7+152bf1xAr0n25NPAdyRiIUXcc8QUS5gAYuIiIhohHSV4DRAMxVOfuFEzQtMaXAko81rFdajGRb7Ont9JzMlygVOJHwnIN/P1kYVt9jBhpm7+h5Vs6/bH671UwDlGd8DstpplUu4R4goV7CARURERDRSJ2KqGYsmKnoXExpk6t6ZcZGlLGBRznCm4EpAsty2px7Aaqmsrj90Z3+3P2DGuinvKgB7ZWm2riTVxSefElFunTcxAiIiIqKR4QqOybBoW3l5N+e+GmTecms1IL0DLRPNuC+Ihp8xrpNqrwUky8TpaluW9UhFrdlnh39vXV0JSnAfoFMyN5JWb0pmtMUXtnNHEFEuYQGLiIiIaGQGqJaoHDzwuFT+9u5d33UY0uDausRsVeD5DIP2aQCEKVHOiC/qclM4E5ANWVpN8qg+2Def3vbZiYn/o5rtakPpEk3PaoubjdwBRJRrWMAiIiIiGgH2qz1jAK0YeAypf2dCQ2bdwP+slaPnmCrGQ7mkI242q4XTAWzN1EYUR3R7dTkCAU+23+WrMddBkO2ppy7UrU3Emp9i8kSUi1jAIiIiIhoBkvKMzbL0HSY0VDRjttqVGsd8KNckW8w6Ea0BkG0+qtN93qnfy7TQF2oIiLjhrMck1XlOLLyCiRNRrmIBi4iIiGgEuGlvWcaBJNDNhIaGQLoyLUt7M+8TopGUiIRXQ/Ti7H0bl/tD5lsf/3d/df1nAVkCSLZbZO9IxMKLmDQR5TIWsIiIiIiIiHKcEwnfCcj3s7VRxS12jfnK+/9fNfu6/dWyVopiVMafgax2WuUSJkxEuc7LCIiIiIiIiHKfMwVX2utlMqCzBm6hHojcWxkyXygTvNqb0ocA7JXlV64rSXVVY83CFNMlolzHK7CIiIiIiIjygTGuncQ5AP6cuZHalurDvS5WApieuZ20elMyoy2+sJ3BElE+YAGLiIiIiIgoT2x62HS6KZkJyIYszfYB9ITMi6VLND2rLW42MlEiyhcsYBEREREREeWRjrjZrBZOB7B1F37chbq1iVjzU0ySiPIJC1hERERERER5Jtli1oloDYCdmr9KVOc5sfAKJkhE+YYFLCIiIiIiojyUiIRXQ/TinfiROxKx8CImR0T5iAUsIiIiIiKiPOVEwneKyu070PQxp1UuYWJElK9YwCIiIiIiIspTY2uNXyXbhO0fOKxyUranEhIR5TYWsIiIiIiIiPJRXV1JSvFTYIcKUz5L9WcVNdd+gsERUT5iAYuIiIiIiCgP2c6k21T15J34kUkeKXlwz4DxMT0iyjcsYBEREREREeUZX7DhWkAv2tmfE+jh3SW4DycaL1MkonzCAhYREREREVEe8dU0VAvQvJ1mbsYlqjN8E3EzkySifMICFhERERERUZ7wV9d/FpbcBYhkaXYHIFmvzhLopf5gw6VMlIjyBQtYREREREREeaBq9nX7q+V5WBSjMrVRyGqnVS5xouYOIPtVVgq5xQ41fJXJElE+YAGLiIiIiIgox42tNX435XkI0PGZW8naklRXNdaYFAA4U+QKQFZkGw8qJOKvrv8sEyaiXMcCFhER0S7T3gH/FShnNkT0oYNCxrmI0trtYUBDwBgL0Ey32Ll5tz11dSUpV38CYHrmRtLqTeH0tvjC9g/l4Dqp9lpAnsr4U4pRalkPVNRc+wl2HCLKZSxgERER7brkgIMB6BhGQ0T/POOWtozL0t6xDGjw+db2jMsyR9R7+bY9tjPpNgVOydxCukTTs9riZuO/LIov6nJTOBOQDVneYpJXvI+MCVxVxd5DRDn7dcoIiIiIdpGKk2EgMY7hENGHvJtpQdry7st4hmCQY3n3y3LsfieftsUOmWsAzTYhuwt1axOx5oxXWXXEzWa1cDqArVl+z/RUSUUUJxovexAR5eSxnREQERHtItEMf81WuyJw7d4MiIgAQNVdn/EwAhzNhIaAx/O5LCOgF/JlM3w15utQbc7+VaTznFh4xfZ+V7LFrBPRGgCpLJ11hj1Bf8gORES5iAUsIiKiXSSQjINSr7eEE+ISEQDA43X/knmpzmBCg081c66upJ/Oh22oqjFHwdJ7tjNmuyMRCy/a0d+ZiIRXQ/Ti7Xy51flrzLfZi4go17CARUREtMvctRnP/yXbXCVEVEzaly14DcDrGRYfPzp0LW8jHES+wNV7AnJyhsVvd7Q0P5/r2zC6xuznClaKYlSmNgpZ7bTKJTv7u51I+E4AN2dro6KL7FDDV9mbiCiXsIBFRES0i1Ke1JqMJ/+qsxAI8OliRAQAEJVVmc7HXS25kAkNIk/ZRYCWDbwjZDUAzeXVH1tr/GnBQ4COz9JsXUmqqxprTGpX3sOZIlcAku22Q0shEX/I8BZXIsoZLGARERHtos57b2gF5O8ZFk/yWwefxpSICABUEMm4DPh2ZfCa8Uxp91WF5o8RweUZBz/qLsvpDairK0m5+hNAD8ncSFq9KZnRFl/YvsvvY4zrpNprAck48bsoRqnigYqaaz/BnkVEuYAFLCIiot0aleKhjIss6woGREQA4ETN44C8lOFoYXuktJ4p7T4X5fWADvgkWBVsbE/9/de5vP7+5MQfKLLdgi5doulZbXGzcbffLL6oy03hTEA2ZPmSm+iVklVjAldVsXcR0UhjAYuIiGh3CJZkOfE/yRes/zeGREQAFILvZVyoekllTcPJjGnX2TX1J0Dx7cwDH/lvxOPpnF3/oJmvimwTrLtQtzYRa35qsN6zI242q4XTAWzN0nWnpUoqojjReNnLiGgksYBFRES0G5yoeQEqj2daLvD8EDMuLWNSROT0YolA3sh0Xm6JdY9vttmLSe08X+DqPSFWBNAMcw9Ka6IUd+Ts+teYrwN6ffZWcoUTC68Y7PdOtph1IloDIPN8Wqoz7In4EXsaEY0kFrCIiIh2k1i4IfNSneYfPY63BhEREDfbAFyT5XixN9K6amyt8TOsHTe21vjFW7YKwD6ZW7nXYonpzsX1r6oxR8HSe7YzNrvDiZqbh2odEpHwaohenL2VXugPNVzGHkdEI4UFLCIiot0+8TePAPJExlN+uNf4ahqqmRQRJaLmXhX8ItNyURzR6+KB8bPnVTKt7dszYHy9Lh4A9MiMmYr8yomGl+Ti+o+uMfu5gpWiGJX5O0RWO61yyVCvixMJ3wnI97O1UZWb7aA5kz2PiEYCC1hERESD40oAbqbhEyy5y19T/znGREQeT/piQJwsZYKTOlK+31cErt2baWVWUXPtJ3q8+ntAT8rSLAkLFwPQXFv/sbXGnxY8BGi2J1CuK0l1VWONSQ3HOjlTcCUgK7Yzfoz4Q+Zo9kAiGm4sYBEREQ3GSX/UPKaQ2zItF8UoFc+vqqrNaUyLqLi1L1vwGhTnIGPRGxDo4V5vyVP+WnMME/tXdtAc7xXvHxU4LEszF5DZiXvNyzm3AXV1Jdtc3A/oIVlabfamZEZbfGH7sK2XMa6Taq+F4snMjbRCFQ+MCZhPsicS0XBiAYuIiGiQ+JO4BsCLWU76K11LH/SHGmqZFlFxc2LmIYU2ZG+le6urj9s1jT/mLYX9AnMr7BpzE4A1ACZkTU+l0YmaB3Lz+2LiDwR6auYW0iXqntkWNxuHfeXii7rctMwCZEOWdCemvHhkTOCqKnZKIhouLGARERENkk0Pm05AvgpIW5Zm5apyrz9o7hs9x4xmakTFKxkN3wDIj7d7vi6o60z5nvaHGv69iOMSO9TwVdtTtRaiV2V+2uAHzX+cjJnrc3FD7FDDVarINmG6C3VrE7Hmp0ZqHTviZrNaOB3A1sytdFrKWx7DicbLTzMRDQcWsIiIiAaREzUvuOoGAOnN1k6hgXQ3/tL36HQIkyMqSupEzSXbmzi7v+kUVfm5XdP4hB1smFlMIVWGzCl2sPGPUHkAovtvNynIbX255t68V75gw1lQuSF7K7nCiYVXjPS6JlvMOhGtAZBt/q0v2RPxI36UiWg4sIBFREQ0yDpi4V+pIgRgW/Yxiu4vonE7aB63a+pPYHJERUmdqJknQHiHWguOAeQhO2j+YAcbzivUWwurQvPH+EINl9hB84yl+ksAR+1AlKrQ65JR823kYPGqqsYcJbDu2c4Y7A4nam7OlXVORMKrIXrxdnK/0B80l/OjTERDjQUsIiKiIZCMmfsVMgNAcgcGXZ+HWL/zhRqftkOmjnPdEBWfRLSpEapf284tyB89bkCWdKZ8rXbQ3GXX1J8AY/L73L6ursRf3TDDHzIxV8s2icqPAD10B3/6XVHMTEbDOXnb4Ogas58rWAloxuO7QlY7rXJJrq27Ewnfub2rBBX6fTtozuQnmYiGEgtYREREQyQZNb8WS04VyBs70l4UR0D1x50p3xt2jbnDrmmYtWfA+JgkUXFwYuEVKe09FCqP7/hPqQ3of0Cs39nrtd0fbPylP9RwWdXs6/bPh22uCpnJdsjU+YPmPtuZ9I5a8oiqVgMo34lfsyaVSh2WiIV/lovbOLbW+NOChwAdn6XZOm8ZarDGpHKyb07BlYCs2M64MuIPmaP5SSaiocIJ94iIiIZQosU8aZ979eHYVroEgi/v4IB0DATfAOQb3V70+ILmdyJYI2n3r2kr9ZeO6A1vMVmiwtQVu/4N1NWdZDsT5gHW1X0Fqh3mU+AUqJyiKc8tdtC8ItCnXeizotZzVknqufZlC17HSNxed6Lx+vbGgUi7hwjkMxBMB3C0qzoBu7xC0iZAOJFaexvi8XRO7tATjXebi/sFekiWVpu9KZnRFjVbc7ZjGuM6gbm1tsf/677bWAf87qpQlQfGBMwxI/L0RCIqeCxgERERDTFn6Y1bAHzFV9PwTRFZAGD0jv+0lglwKhSnqiWwUAI7aP4B6N9U8aqIbhLFm66FN0WtVk31bPGUaKq995VEzg7oiCi7xYt7HeDGyoC52/KiGcD52KU7J/QABQ4QyNkQhZvywA42JgC8AGCTKt6EpW8LrDcEeDuteNMrSKY9SHrS3b3tbR2dWHVbT6bfvsf5V9q93ZZ3W69nVGlJSZm66T0VnvEq2MeCjldgEhQTIPgkoAfBRSlkMJ5ZIb0K/MhKIZyIm/dyeVf6J+AHCj01y7Z0iabPbIs3537BJ76oyw2YWZYXTwK6b4Y+NzHllUfGBK46ri2+sJ0fZiIaTCxgERERDQ9NxsI/9M02cUnpjQDmYJdv5de9AezdNw4UqACiAKAQbylcBWzvVCDYCABb319aINY4UfM1dicqBh1xsxnAhZXV9f9jWdYNgM7A7leA/ACOBvp/kwoAhfYfkFwFJAW4KIM9uuz940g3IF0fOgZVAbB6+v/F6wVcVUCsvuMQPnRF1aA+Y1XSIrgfSNU7kQUv5fr+s4PmSoVmm9PKhbq1iVjzU/nUJ3215nRx8Tgy/jFGp6W85TGcaGbm6i2RRJSfWMAiIiIaRsll5m0A3xhVU/8/XrHmK+QsQD1D+Jajc/BhXLtMIZwTjIpOx/LmvwE4w1dtpouF76hotShGDeMqlANaPoIRbFXBUg9wa3vEvJoP+8wXMl+D6o3ZW8kVTqxpRd59j7WYdf5QQ42qrMwynvySPVFvd4AL+QkmosHCSdyJiIhGQGes+a+JaFO15aamiMrtgDhMhYiySS43zztRc35Jb/ckFf0mgD8AqgW6uSmF/FIgs51UYlIy0nRZvhSvqkL1R4pi6XbGWnc4UXNzvu6cRCS8GqIXb6fZBf6ahrn85BLRYOEVWERERCOoffmCVwB8E3PMd+wePVVgzVboVwGUMh0iGkj/3EK3A7i9otbsU6LuWS7kdFE5AdCK/N0yaYfqrwD5GUp7Hkz2zR+YV0aHrt03rdZKQCsztVHI6mQrLsn3fuhEwnfaQXMwoP+VcVtFvmfXNLzuxMIr+Mklot3FAhYREVEuWGK6HeBhAA9XheaPSaP0FMu1TlLBFwGdwoCIaCBdLebNLuBWALciMLeiyqo6QQXHQ/TzCvncTj7FcJjJW1A8Cct9Aq71e2cz/og1TXk7Z9Ie519p93R5HwIwIUuzdd4y1BTK3FDOFFxpr5fJgM7K0MSCWC3+mvqT8mmuLyLKTSxgERFRdpVVih7N5ds2NhVa5O2Rm9oAxPtfGFVjJlnAsZaF6aqYDughgBwwxHNnEVG+iS/qagd+gb4XEAh4bGvaASr4jAV8RkUPVsFkUUzGTj0NdXdJK6CvQeQVwF0raTzbK+nnu2LXv1Ew2QcCnp7OiggEn8nSarM3JTPaomZrwWy3Ma4TmFtre/y/huCYgRtphYpnxZiAOaYtbjbyg0pEu4oFLCIiyq7vyqADGMTI6YyZTQDu73/1mXFpmT2uaj91veMtdfcGrPEqujdc+EXgB8SjAp+oligwCpCyQsjCgg7Jk8dKyt1UTyeeHHDoBbw8FO/pQarLhffpgZa5BViYzRUi2KQqA+busVJdBbWx8XjaQfxFAC9+5PgBwB8wY10LkzyWO1FhjVdgL6iOUxFbVG0IfPKhIpdCSgCtFGDrB/8m0iuKpKq2QcQRQRLqbnEFm8XVzfDq205Px0bEF3UVer/ylRxcB5WJAJ4euIWqpXJJQRZw4ou63ICZZXkRA5DxQRspjzYhELgA8XiaRyIi2hX/D+6klyLXJ1nOAAAAJXRFWHRkYXRlOmNyZWF0ZQAyMDI0LTA2LTE5VDA5OjI1OjE4KzAwOjAwUakN6AAAACV0RVh0ZGF0ZTptb2RpZnkAMjAyNC0wNi0xOVQwOToyNToxOCswMDowMCD0tVQAAAAASUVORK5CYII=;" vertex="1" parent="1">
          <mxGeometry x="332" y="781.75" width="15.2" height="16.75" as="geometry" />
        </mxCell>
        <mxCell id="W7hZznwjPLtyRQ2mr3Gq-123" value="" style="endArrow=none;html=1;rounded=1;curved=0;" edge="1" parent="1">
          <mxGeometry width="50" height="50" relative="1" as="geometry">
            <mxPoint x="207" y="710" as="sourcePoint" />
            <mxPoint x="207" y="620" as="targetPoint" />
          </mxGeometry>
        </mxCell>
        <mxCell id="W7hZznwjPLtyRQ2mr3Gq-124" value="" style="endArrow=none;html=1;rounded=0;" edge="1" parent="1">
          <mxGeometry width="50" height="50" relative="1" as="geometry">
            <mxPoint x="207" y="690" as="sourcePoint" />
            <mxPoint x="300" y="690" as="targetPoint" />
          </mxGeometry>
        </mxCell>
        <mxCell id="W7hZznwjPLtyRQ2mr3Gq-125" value="" style="endArrow=none;html=1;rounded=0;" edge="1" parent="1">
          <mxGeometry width="50" height="50" relative="1" as="geometry">
            <mxPoint x="120" y="690" as="sourcePoint" />
            <mxPoint x="207" y="690" as="targetPoint" />
          </mxGeometry>
        </mxCell>
        <mxCell id="W7hZznwjPLtyRQ2mr3Gq-126" value="" style="endArrow=none;html=1;rounded=0;" edge="1" parent="1">
          <mxGeometry width="50" height="50" relative="1" as="geometry">
            <mxPoint x="300" y="710" as="sourcePoint" />
            <mxPoint x="300" y="690" as="targetPoint" />
          </mxGeometry>
        </mxCell>
        <mxCell id="W7hZznwjPLtyRQ2mr3Gq-127" value="" style="endArrow=none;html=1;rounded=0;" edge="1" parent="1">
          <mxGeometry width="50" height="50" relative="1" as="geometry">
            <mxPoint x="120" y="710" as="sourcePoint" />
            <mxPoint x="120" y="690" as="targetPoint" />
          </mxGeometry>
        </mxCell>
        <mxCell id="W7hZznwjPLtyRQ2mr3Gq-153" value="&lt;font style=&quot;font-size: 11px;&quot; face=&quot;Comic Sans MS&quot;&gt;File Servers&lt;/font&gt;" style="text;html=1;align=center;verticalAlign=middle;whiteSpace=wrap;rounded=0;" vertex="1" parent="1">
          <mxGeometry x="208" y="674" width="88" height="14.5" as="geometry" />
        </mxCell>
        <mxCell id="W7hZznwjPLtyRQ2mr3Gq-130" value="" style="fontColor=#0066CC;verticalAlign=top;verticalLabelPosition=bottom;labelPosition=center;align=center;html=1;outlineConnect=0;fillColor=#CCCCCC;strokeColor=#6881B3;gradientColor=none;gradientDirection=north;strokeWidth=2;shape=mxgraph.networks.server;" vertex="1" parent="1">
          <mxGeometry x="161" y="476" width="60" height="60" as="geometry" />
        </mxCell>
        <mxCell id="W7hZznwjPLtyRQ2mr3Gq-12" value="" style="fontColor=#0066CC;verticalAlign=top;verticalLabelPosition=bottom;labelPosition=center;align=center;html=1;outlineConnect=0;fillColor=#CCCCCC;strokeColor=#6881B3;gradientColor=none;gradientDirection=north;strokeWidth=2;shape=mxgraph.networks.mail_server;" vertex="1" parent="1">
          <mxGeometry x="821" y="703" width="70" height="65" as="geometry" />
        </mxCell>
        <mxCell id="W7hZznwjPLtyRQ2mr3Gq-154" value="" style="endArrow=none;html=1;rounded=0;" edge="1" parent="1">
          <mxGeometry width="50" height="50" relative="1" as="geometry">
            <mxPoint x="380" y="430" as="sourcePoint" />
            <mxPoint x="540" y="430" as="targetPoint" />
          </mxGeometry>
        </mxCell>
        <mxCell id="W7hZznwjPLtyRQ2mr3Gq-156" value="&lt;font face=&quot;Comic Sans MS&quot; style=&quot;font-size: 10px;&quot;&gt;Ravioli&lt;/font&gt;" style="text;html=1;align=center;verticalAlign=middle;whiteSpace=wrap;rounded=0;" vertex="1" parent="1">
          <mxGeometry x="162" y="536" width="50" height="14.5" as="geometry" />
        </mxCell>
        <mxCell id="W7hZznwjPLtyRQ2mr3Gq-157" value="&lt;font face=&quot;Comic Sans MS&quot; style=&quot;font-size: 10px;&quot;&gt;10.100.136.45&lt;/font&gt;" style="text;html=1;align=center;verticalAlign=middle;whiteSpace=wrap;rounded=0;" vertex="1" parent="1">
          <mxGeometry x="121" y="550" width="55" height="14.5" as="geometry" />
        </mxCell>
        <mxCell id="W7hZznwjPLtyRQ2mr3Gq-158" value="&lt;font face=&quot;Comic Sans MS&quot; style=&quot;font-size: 10px;&quot;&gt;10.100.136.43&lt;/font&gt;" style="text;html=1;align=center;verticalAlign=middle;whiteSpace=wrap;rounded=0;" vertex="1" parent="1">
          <mxGeometry x="203" y="550" width="55" height="14.5" as="geometry" />
        </mxCell>
        <mxCell id="W7hZznwjPLtyRQ2mr3Gq-160" value="&lt;font face=&quot;Comic Sans MS&quot; style=&quot;font-size: 10px;&quot;&gt;&lt;b&gt;OR&lt;/b&gt;&lt;/font&gt;" style="text;html=1;align=center;verticalAlign=middle;whiteSpace=wrap;rounded=0;" vertex="1" parent="1">
          <mxGeometry x="162" y="550" width="55" height="14.5" as="geometry" />
        </mxCell>
        <mxCell id="W7hZznwjPLtyRQ2mr3Gq-161" value="" style="endArrow=none;html=1;rounded=0;" edge="1" parent="1">
          <mxGeometry width="50" height="50" relative="1" as="geometry">
            <mxPoint x="190" y="430" as="sourcePoint" />
            <mxPoint x="380" y="430" as="targetPoint" />
          </mxGeometry>
        </mxCell>
        <mxCell id="W7hZznwjPLtyRQ2mr3Gq-162" value="" style="endArrow=none;html=1;rounded=0;" edge="1" parent="1">
          <mxGeometry width="50" height="50" relative="1" as="geometry">
            <mxPoint x="190.8" y="476" as="sourcePoint" />
            <mxPoint x="190.8" y="430" as="targetPoint" />
          </mxGeometry>
        </mxCell>
        <mxCell id="W7hZznwjPLtyRQ2mr3Gq-181" value="&lt;font style=&quot;font-size: 11px;&quot; face=&quot;Comic Sans MS&quot;&gt;Container Orchestration&lt;/font&gt;" style="text;html=1;align=center;verticalAlign=middle;whiteSpace=wrap;rounded=0;" vertex="1" parent="1">
          <mxGeometry x="193" y="409" width="88" height="14.5" as="geometry" />
        </mxCell>
        <mxCell id="W7hZznwjPLtyRQ2mr3Gq-184" value="&lt;font face=&quot;Comic Sans MS&quot; style=&quot;font-size: 10px;&quot;&gt;Conchigllie&lt;/font&gt;" style="text;html=1;align=center;verticalAlign=middle;whiteSpace=wrap;rounded=0;" vertex="1" parent="1">
          <mxGeometry x="542" y="280.5" width="50" height="14.5" as="geometry" />
        </mxCell>
        <mxCell id="W7hZznwjPLtyRQ2mr3Gq-185" value="&lt;font face=&quot;Comic Sans MS&quot; style=&quot;font-size: 10px;&quot;&gt;10.100.136.2&lt;/font&gt;" style="text;html=1;align=center;verticalAlign=middle;whiteSpace=wrap;rounded=0;" vertex="1" parent="1">
          <mxGeometry x="542" y="295" width="55" height="14.5" as="geometry" />
        </mxCell>
        <mxCell id="W7hZznwjPLtyRQ2mr3Gq-186" value="" style="endArrow=none;html=1;rounded=0;exitX=0.5;exitY=0;exitDx=0;exitDy=0;exitPerimeter=0;entryX=0.5;entryY=1;entryDx=0;entryDy=0;entryPerimeter=0;" edge="1" parent="1" source="W7hZznwjPLtyRQ2mr3Gq-4" target="W7hZznwjPLtyRQ2mr3Gq-1">
          <mxGeometry width="50" height="50" relative="1" as="geometry">
            <mxPoint x="515" y="209" as="sourcePoint" />
            <mxPoint x="565" y="159" as="targetPoint" />
          </mxGeometry>
        </mxCell>
        <mxCell id="W7hZznwjPLtyRQ2mr3Gq-187" value="&lt;font face=&quot;Comic Sans MS&quot; style=&quot;font-size: 10px;&quot;&gt;Internet&lt;/font&gt;" style="text;html=1;align=center;verticalAlign=middle;whiteSpace=wrap;rounded=0;" vertex="1" parent="1">
          <mxGeometry x="515" y="115" width="50" height="14.5" as="geometry" />
        </mxCell>
        <mxCell id="W7hZznwjPLtyRQ2mr3Gq-189" value="&lt;font face=&quot;Comic Sans MS&quot; style=&quot;font-size: 10px;&quot;&gt;Router&lt;/font&gt;" style="text;html=1;align=center;verticalAlign=middle;whiteSpace=wrap;rounded=0;" vertex="1" parent="1">
          <mxGeometry x="542" y="233" width="50" height="14.5" as="geometry" />
        </mxCell>
        <mxCell id="W7hZznwjPLtyRQ2mr3Gq-190" value="" style="shape=image;verticalLabelPosition=bottom;labelBackgroundColor=default;verticalAlign=top;aspect=fixed;imageAspect=0;image=data:image/png,iVBORw0KGgoAAAANSUhEUgAAAlgAAAJYCAYAAAC+ZpjcAAAABGdBTUEAALGPC/xhBQAAAAFzUkdCAK7OHOkAAAAgY0hSTQAAeiYAAICEAAD6AAAAgOgAAHUwAADqYAAAOpgAABdwnLpRPAAAAAZiS0dEAP8A/wD/oL2nkwAAAAlwSFlzAAAASAAAAEgARslrPgAAMfhJREFUeNrt3VlwHOeZ5vvnzazCQhJcwFUUKVELtZGybIu2LEuWRUu22rLVbtst9sRMTM/0TMQoYiLmYmIi5uLcHE2cczMT5+7cTE/HRMc53dML1W63rMWiJIuUrc0WKYmUqZUiIS4gwX0DSACV3zsXpEgABMBaEvgqUf9fBINEVWbWk1nFqgeZWV9KAAAAAAAAAAAAAAAAAAAAAAAAAAAAAAAAAAAAAAAAAAAAAAAAAAAAAAAAAAAAAAAAAAAAAAAAAAAAAAAAAAAAAAAAAAAAAAAAAAAAAAAAAAAAAAAAAAAAAAAAAAAAAAAAAAAAAAAAAAAAAAAAAAAAAAAAAAAAAAAAAAAAAAAAAAAAAAAAAAAAAAAAAAAAAAAAAAAAAAAAAAAAAAAAAAAAAAAAAAAAAAAAAAAAAAAAAAAAAAAAAAAAAAAAAAAAAAAAAAAAAAAAAAAAAAAAAAAAAAAAAAAAAAAAAAAAAAAAAAAAAAAAAAAAAAAAAAAAAAAAAAAAAAAAAAAAAAAAAAAAAAAAAAAAAAAAAAAAAAAAAAAAAAAAAAAAAAAAAAAAAAAAAAAAAAAAAAAAAAAAAAAAAAAAAAAAAAAAAAAAAAAAAAAAAAAAAAAAAAAAAAAAAAAAAAAAAAAAAAAAAAAAAAAAAAAAAAAAAAAAAAAAAAAAAAAAAAAAAAAAAAAAAAAAAACgWCx2AEyvjRuV3rtixbLYOYqiM3aAapyLHWAaDMQOML6OMFSZ86PDfbFzSJJvVun0kRVzhztHv2xnjTPtwAS3j9IMr6sJM1w1fX4aeu1dfiqeXbj90IYNyqYvOGIrxQ6A6bV++aJZwfw/xs4xUpii5SY5BMjkV1lOtb+j+NSsfNBV/hfb6GkvZkkmmiYvYcT299rmG1e5sTg22bLHbJtJjbk7pKUjkv5rY+ny0X96yUK1Z98tyb488jmtjLPeJUmVK9b9gkvPWzpy81y8NST1/b+acLMmlycOY28bnWG0bOyUurTOYcziNN57weVbkpBcChvGm6Zt7FYYs7SJXldBkoYv/fj4mVv/i/TxmWo3H4qPgtVivG3ObGXD/yl2jpEa/nj3mu+4MsAkk/rkdzYaso5ljdhmVsN8Izb0FetU7aaqIeOlSU2SWxUTTnJHlS+SK/JVk9dHL9/GzOSTxHDXJ2qSguXlZKEy+4HJ/9nV1vvK59Eu3e6TbGyzEa8cH71F7NJtI264+LPbiMcc9dh+aeLL233sBh+Tx0dM4+PcL8nNJl4LHzWh3L54AfgE2S6HubD2PuHjXrrNr7y3/3zp/5FEwWohVf8yAgAAgOpQsAAAAHJGwQIAAMgZBQsAACBnFCwAAICcUbAAAAByRsECAADIGQULAAAgZxQsAACAnFGwAAAAckbBAgAAyBkFCwAAIGcULAAAgJxRsAAAAHJGwQIAAMgZBQsAACBnFCwAAICcUbAAAAByRsECAADIGQULAAAgZxQsAACAnFGwAAAAckbBAgAAyBkFCwAAIGcULAAAgJxRsAAAAHJGwQIAAMgZBQsAACBnFCwAAICcUbAAAAByRsECAADIGQULAAAgZxQsAACAnFGwAAAAckbBAgAAyBkFCwAAIGel2AGAiwbk9oHMz9Q8p090symZ6M6a2PQswySF6UlT71LcpKSKjFfMVPW0uazc6NX0C4u1qrfv5bxhnMWNjuv7c05ct8qgBpKS7zTZ5qttx1HrMXZav+oc497kksyvXI5XsSiFcW72yWaY4K7gXZLdIWlW/VsSyAcFC03BpWOJ+f8Mpo9rnjkd/+YLL+586siEKg3OPzZeWtdSas5a1YfeOEr1ZLzaNhr52OlEdzTwWDZina+SfewbYlq5vMjSOJE82LnaQ06NwVl+pDyon7clyeuTrmemSbb5pS01yqXSeZXn0tOJpxm/Z194rNKo+cY+vk3648hlBfmt5vZ/iIKFJkDBQlMwqT9Lkq3L79m3NXYWoIiWPdLXL2nnxT8taej/v/FMZur3vPeEAnXgHCwAAICcUbAAAAByRsECAADIGQULAAAgZxQsAACAnFGwAAAAckbBAgAAyBkFCwAAIGcULAAAgJxRsAAAAHJGwQIAAMgZBQsAACBnFCwAAICcUbAAAAByRsECAADIGQULAAAgZxQsAACAnFGwAAAAckbBAgAAyBkFCwAAIGcULAAAgJxRsAAAAHJGwQIAAMgZBQsAACBnFCwAAICcUbAAAAByRsECAADIGQULAAAgZxQsAACAnFGwAAAAckbBAgAAyBkFCwAAIGel2AGAZnXwrevuKCn7aebquHRjGD1NMvaGkfwqDxBUlWTstGGS6cZhbocWPNT7/079FkM1zvzTtU/Iwwr5eE/ZxZvGfe002e/Dbn/T9cd7d8aOATQrChYwgTZlc4ddD5h016XPOxs9jY+4wXzkp+KYCUd+Yk5QvGyC212S2Yj5zCaecByZvOf4qyu2dH97//sxtiMuG/jZtSsy+b+S7CaZxnkiXXLTePfIJ2ns404/VWthkuz9NA1PT/kGAwqMggVMYLDivWlqOyQ9fOnGkUUnRzbJPSav6jEnnsTch7PvSKJgRVYp6SFz3ShpyfhTTPRKmPgVMqEpeq1eXPYnQ4N2bIqWDswITbbPGWge1yxYcMiDvy3Z6dhZGmKaa4mtjx0DUiL/A5O6Yudo0ClTeG3gVHYwdhCgmVGwgAnYmp1DaaJPXP7b2FkaWg+p3aXbj7287I7YWVpZ/9Mrl7vrLteIc/qKyH1nJdjHy5/oHYgdBWhmFCxgEpXhsE/Sltg5GmSSut2Sh2IHaWVZFr5qUreK/r5rerFULu2LHQNodsX+jw5MsQOzDp102buSemJnaYRLs012f+wcrczMH3FpduwcDToagn43e+71nH8FXAUFC5jEunUaLpXCbpm9GTtLI8zVLtmavpeXLI2dpRWd+Pn8+TI9IKkzdpZGuOs1s9IeW7+lEjsL0OwoWMBVJNn5g0Ha4tJQ7Cx1MyUuX1JKyt+OHaUVldL2r0paLimNnaURJnuxEhJObgeqQMECrmLhN46fTlzbTfosdpZGmDTbXD+MnaMlZckfmhV775WkXWkp277g8d1nYgcBioCCBVShnIZeyV+KnaMhrg7J153evHxR7Cit5Njz3XNdesi96N8e1CuDmR8wq/YaBEBro2ABVeheMOuwJelmSf2xs9TNlMi1dKiSPBA7SitJzrd9RbIVKvDhQXP1W2pb5s8JR2NnAYqCggVUwVbvGvSKdrn0buwsja2IOhP5j2LHaCWJ7EcmtcfO0RDTh57ZDnukr7i/YADTjIIFVCm0Z4fM7bnYORrianfTN/a9sKI7dpRW4BvXtJnse5LaYmdpaD1kLwwMpey9AmpAwQKqdI16T0n+tqS+2FnqZkpMWtqRBMbEmgYnSqdvkek6L/DhQXc7rcR/te9M9/HYWYAioWABVbJ1GlZa2u3Sr2NnaVBHIvtJ7BCtoGTZo3KVY+dohElvlUOyd90T24ZjZwGKhIIF1KA/TY+79CvJizzQYtkSu//4SzfOix1kJvM/v7ss1w9kxS5YSvTz9s42Dg8CNaJgATW4ad3uU4knr8tU5GuxJS5f5uH812MHmcnOLDt4o6Svq8CHByUdysze1vd3nY0dBCgaChZQo9R13Nw2xc7RiEQqKU1+EDvHTOUuk+sxyYtcrmTSc+VgvYx9BdSOggXUaNHS9mMh2DOSBmNnqZe7ymb+0J7Nq4o9+GWz2nZ3SWY/lKywBcsuvL5fOdN//nTsLEARUbCAGtnqXYOVRJ+Y9GHsLPWvhBK5bp6fDN0eO8pM4y47faDvernfLyvue6y7dlWy9M1lf8rYV0A9CvufH4ipK0uOubQxdo4GpcqSP3KXxQ4yozylJPHsURV8u7rsl0mpwt4roE4ULKAOuzr3nk0S/42kwl741qQ0BP1xz5ZVxR5lvNnceHciswdlxS1YJp13S3/WtWD1qdhZgKKiYAF1WLdOw1ZJd0v6Vews9XIpMfmti9PKLezFyodLdubgwXnB/WGpuNs0uN4pDWV7bf2WIg9HAkRFwQLqdu6MEr2kYn/DyoaHwh9pS6GHEmgef66SKvZDk3XFjtIIS+yv+lNObgcaQcEC6rT4/qNn2jJ/zt2LOwijyYKSPznYtbzQ18prGgtWlGSh0MNfmDTgId2y+IMjA7GzAEVGwQIakLZbv0kvxM5RN5eZ/I6Ok8nN7rwfNMIlO9MZZkv6XuwsDa7JP4SO0GdPFnrPLBAdb6hAA7o6F5xOzf5KKviHkflj+mBNKXaMItv1/M1tGg4/kGxu7CwNCFmwF+fNTs7FDgIUHQULaICt2Tnkw+WdCvo8dpYG/cnRXX18m7AB84dPtlma/EHsHI0w1+c2HDbZ+p7zsbMARUfBajUXhgwMzfLHv/i3WdBw7I1Tn2NJ/1lL/X/GztEQ153p/HTVxo2c7F6v9qSt3V3fj52jEZ7Y84Ozhwp7hQKgmXBIoOX0n5Xa/6/YKb5gutS0jrXpXG/sPPU4OHz03MLyNZs86P+OnaURSaV03+NfufkTaVcWO0vR+MY1bWeGT9ynRPNiZ2mEqfQXiwaPcnI7kAMKVotZsv7IWXc1TcG65ClJjxfzPKb161X5/Dflz2alw78s8h6MIH3/+KfH/0YFvsZiNHMGO3zYHjH32Enq53p/KLOeORtEwQZywCHCFmSmrOn+bFBmpsJ+OiVpOO8eivttQklyPVppm7PoySd5X6jV2fNnOsy90OdfSfofx+YknHsF5IQ3UiAHK765/7yf87+XvMiDM5bKyr77f35vBSe712DnxjVtUmmtXNfHztKISlp69ubv7xqKnQOYKShYQA5Mcl9sZyV7MXaWRrjskVNZ0hE7R5FcO+vMbCX+R7Iiv5/6U2eHK31F3osMNJsCvyEAzWXp8b5Bl/4ido5GmPwPhgezxc5hwqpVBsIsdxX38KDJg/TMisX7C/o9XqA58SYK5MTWq9I2q/13JjsQO0sDOlPZg333Lu2MHaQIfOOato6y3ybTDbGz1LsK5n4gJOVnbL24sDOQIwoWkKPeT2cPuPz/i52jERb8u7PaUgpWFc6UTnZ5oh+quN/IDkG2af5wz5nYQYCZhoIF5OiOx3dWLNU/SsU9l8XNv2cV5zBhFYYTn+XSfbFz1MukzGV/XtQhUoBmxhsokCMzhUUl+9DMXpUV9kNr7pB0/5FvL54VO0gz880qlaWVcl8bO0udQnB9erizfQcntwP5o2ABebu797xcz8gLW7Akt4dnZTY7doxmdvLkqjky3SepkIdTTRpWor9a/eguBpYFpgAFC8iZmYKy0t+66bQKumfApIf7h9rnxM7RzDraBufJ9cPYOeoVXBWv6GexcwAzFQULmAKLH/j8oKRN8oJedsTUXWrL1vU+s5zDhOPwzSoNB1sp6auxs9Rp2Mx/NXfxzT2xgwAzFQULmCKJ7H9JKuzYQiZfP7ez0hU7RzM61X9dlzJ9Q1Ih9/K5a8hlv7D1WxiaAZgiFCxgipwdKr9u0m6poOdiBXtoILTNjR2jOQ0ukBX2wt7BTL2p0udjBwFmMgoWMEVuWN9zUtLzkop5fTfz61Pzr3CYcLStf65yOmQr3bUudpa6uIZc/vrsn35+MHYUYCajYAFTKejvJBX0W1pWNoX18+aV58VO0kxWL1jRlSX6mknF3LtnGgiW/k3sGMBMR8ECptCihQt+b+bvWWHPxbIHs2yYgjWCdwzPSyz5euwcdcpM1jNUOfdm7CDATEfBAqaQrdk5lLn+yaXzsbPUlV+6MQS7k8OEF7grseHSUknfjJ2lLmb97vbskg1HzsaOAsx0FCxgqmXhaUknVcDL57jUFtwfbJuVLIidpRmceOrGLk91l6RrY2eph7n3V5LsH2PnAFoBBQuYYsu+3bdH5m+poOdiefBvJ5VhCpakzo7+7sR0f+wcdRoM0rtHOzo/ih0EaAUULGA6ePoPLvXHjlEPk632pHRHqx8m9CeVDIf0Grl/K3aWupjOmPuzXBoHmB4ULGAa+PnhV03aV8iR3U1tZv5Ae5sWxo4S1ddvnmOJ3SnT9bGj1MqkTK5DQfZy7CxAq6BgAdNg6cOH++R6VaaB2Fnq4a57Kmlrn4d1anBwsQfdFztHPVw6Z/Kt8/54/6exswCtgoIFTJegfzTpdOwY9TDplrLp2p0b17TFzhJtG6RhsVsxC5akU0H2i9ghgFZCwQKmyeLQ/jtJn5oVcmT3uR7CPdd3H2nJvVj+xopOebjZ5DfGzlKHikv7sqS0OXYQoJVQsIBpYut7zluwX7oXcy+WpO8MqW1p7BAxnOyrLJXbvbFz1MOlMwr69YIf95yMnQVoJRQsYBpVsux5ScdUwDGxTPYlua/0rXeXY2eZbu0lLZGpkAXLpGOe+M9j5wBaDQULmEbL1vf93l2/L+bI7j7P5ev6T+7rjp1kWtd686qOYbebE9PtsbPUYdBdn57ObHvsIECroWAB0838FyYdjx2jruiyBweGSstj55hOp86cu0bB7nNXR+wsdThmqZ5fuWH/udhBgFZDwQKmWamcvmLSAal4Y2KZ+12lVCt8s0qxs0yXxErLJN0TO0fNXEHyQ2Z6NXYUoBVRsIBptvAbB/a7+W8lnYmdpVYuLTDTV/qzJS0x6Kg/f3N7EsKNZloTO0vNTP0mbZ/zR/vfjx0FaEUULCACD/acZEdj56gru9uD57J0Rewc0+HUuTPXuuxeqXiHB911VIzcDkRDwQIiyGbZb9y1V1Ildpaamd9VSmzF5hY4TJik6TKX7o6dow6ZmfYG802xgwCtioIFRLB8Xe+Amf9KUhH3YnUr2J23Dy2d0d8m3PykSkG23Ey3xM5SK3edMrOtc39y4FjsLECrmvG/gWI036zS4c4Vd0w4wVDNd0hqq2qyyQZPypIwuKgj2WvfbJ1vO1UyvZim2mDSUkkWO08t3PxriUrPSjocO8tU+dpXlix09zvdVbgiaaYDnohL4wARUbBazJHZqxYpG94+cpRL88s/WSpJLvnIz3uXlF74a8SM9sVdCqMmG3X/pUXYxVn98r1+eRmp20enztq/lLQ19jaaLsvXH9za9+tln7rsViveOT5fLZmu9Se1w5784gUws2RWvsGk+ws4JmzFXfu6kqxl/i8BzYhDhEBEliQvmHQwdo46rHAPt564b0FX7CBTwV1JIl0n9y/HzlJ7ePWaaZM91jsQOwrQyihYQEQhy15xqVdWvL1AJvuaQtvK2DmmwtmfL12k4GtkhTs86JboYHB7M3YQoNVRsICIln27b4+5v6siXgDadV8W0hvdi3X+WDXScummIN0XO0cd+s21Y95P970dOwjQ6ihYQGSm5CVJvbFz1GFlKbXVx3/ZPaMOE7rLsuDXm+nLsbPU4WCWsPcKaAYULCCyRfOzX5m0T1a8s6k9+N1tafm62DnydPapZYuC63ZJxRqt3uRm2m2h7bnYUQBQsIDo7K6+/uB6Te6HYmepPbzuG1R6c+wYua5Se+kaJbo1do46nAxuH3T95LMZO3QGUCQULKAJuOwVk+2LnaMO1yXS6iNPL5oxhwkrXrlFrntj56iVuXYFM/ZeAU2CggU0gSWbe99y02eSD8fOUocvd3Sk18cOkYcjTy/qSsxWm1S4b0e61DucdP4udg4AF1CwgCZgTyoo06vuyd7YWepw72BICnc5mfF0quMGk31JRRtZX94j6ZVFP/r4bOwsAC6gYAHNopRsNtPnsWPUzHV9ktgtM+EwYcX8NpfuiZ2jVibt9yRstQIOOw/MVBQsoEksuv/AZzLfIfdTsbPUxJQk0p1pKV0VO0ojjjy9qMs83CKpUN+KNKlfrh1dK65h7CugiVCwgCZhpixIrymxnthZapVJt3iaXBs7RyM61XGDzNZq1BU1m5+b9nti79i6bUU8fw+YsShYQBPpzOxVSXti56iVSXcmaXKb71zTFjtLvTwZvl2udbFz1Jzb7eMslF+OnQPAaBQsoIl0vdp73F1bJS/aBaDb5b729IFThfw2oW9c0+aerjJ5oQ4PSjop+Yfvvb/nQOwgAEajYAFNxJ5UsOCvu2x37Cy1Cm53VpLsptg56nFm9slVkm6TqRw7Sy3c9bEHvbr+SVViZwEwGgULaDJZt7+dyD8u2phYJl+bhOQO31i8w4ReyVa7fE3sHLWyRLsTr2yNnQPAlShYQJNZdldfv8t+JxVuyIZZcl9zZH6xDhP6xjVtZslaM90RO0stTP65pLfmPH7oWOwsAK5EwQKaUKr0Dck+jZ2jVkG+puQq1LUJT3eeut7d75BrduwstbGPErc3zRRiJwFwJQoW0IT6+7RL7r83qVBjYpnsjiQJa3YW6DCh+fCtZrotdo4aDch856z+oQ9iBwEwPgoW0IRWbth/zqW3vXhDNnRlmdZcu/B0Ia7lt3PjmjZZulbS7bGz1Gh3ltk79qd9/bGDABgfBQtoUqklb8n1UewctTLTbZb5rbFzVGNF++Hr5H6HpGJd5sfsA5m4sDPQxChYQJPqfqC310zvuasvdpYa3e4hrPWtdzf/kAdp6SaXbowdo0bHJO04PKujiBcGB1oGBQtoUmbKZLZVpo9jZ6kpt2uepNXHjx1cFjtLFWlvkYp1Ur6kj4P5O6sf3TUYOwiAiVGwgCZ2fkjvmWun5IUaSNLlN6ey1bFzTKb/6ZXLPfhaSYtiZ6mWScOSvT88rB2xswCYHAULaGIrHj5wzBK967J9sbPUwqVbg3tTnzjuaXaHEt2mQl3c2XvlYfvCxfuLdtgYaDkULKDJBdk2M38/do5aJLLFkq89/Nzipj1MmLmvMamp97KNFdw+SE3v2noujQM0OwoW0OxODH2qYO9LOhs7SrVcKpl0W1uprSlHRz/73OJlJq0x1+LYWapl0rkk0fbBpFy4b5YCrYiCBTS5xT86esbk77nrs9hZamK22rPmvL5fxctrXbrNpVLsLNVyeY/Lti/4cc/J2FkAXB0FCyiASii/a6btsXPUxLXUUl9zaNPSJbGjjGXytZLfFDtHTRJ7V0qK9RoAWhgFCyiAfbuW7HX3HeZWpAv7lly6rUOltbGDjHTy2esWeNDtkjVd8ZsstgdtP1nJemIHAVAdChZQAOue2DZsafqey38fO0tN3G4yhaYqWFmlcrvMb1KBDg9K/mFi2rFyw/5zsZMAqA4FCyiIkA3tlJL3TEX6Bpkvy9zWnn752oWxk3whTf1LJrshdo5qXXi+7Z20HLiwM1AgFCygIJasP3LIzLe7dDB2lupZyaRbs4q+FDuJJPmmpbPN/A5Jy2NnqUFf4npvZ+81BXreAVCwgAIJ7u9L2hY7R41ukEJTFKxTw8ltcrtFUkfsLFVzbc/Md657Yttw7CgAqkfBAgokrXR+aqZ3JRXmXBwzX+bSbb3PLJ8VO0vq+prMinTtwSFPtE3SJ7GDAKgNBQsokO7v7j7l8vclL8yYWO5WTiy5vrPdbomZo/eZ5bOC2Z3mXqTDg58raMfcnxwo0rdHAYiCBRROW5rslNvbsXPUwt1Xm9vXY2boTOwWD77apc7Y26NaJv1Wnn4YOweA2lGwgILp6ly2R6Z3JJ2JnaUGy93Dnb55VbRznywLXzfTqtgbouq8pn6ZbZ3TXtkTOwuA2lGwgIKxdduGFewDk96LnaUGs1xa3V+pRLm4sm9VOUl0m6SlsTdE9aG1s+LhA3usdyB2FAC1o2ABhWQfB+l3coXYSapOLN1UCbo3xmOf6l26wmW3SJobeztUxRVc/pZb+DR2FAD1oWABBbToof0HlPg7SnQ0dpYaLA+efdk3rmmb7gdOU/uau66LvQGqZjpusm3zV157IHYUAPWhYAFFFfSJXG/GjlGDWSa7+XjHsWk9TOibVQrBvmny62NvgGqZbGsS7GNbx9hXQFFRsICCGiiVP5P7b82sSB/CN6Ttpfum8wFPnF2+XKZbVZTDg1Jm5m9kobI7dhAA9aNgAQV1/bf2nkiU7PDgxfmWmWt5CP5V3zx9F1pOLNzjrhWxV70GvVnm73VtOHQkdhAA9aNgAQVWavNdlui12DmqZppl8puPnV0+LaOpuyuxoG+Z+crYq14tk/3aVGLvFVBwFCygwPb1LtgTXG/KVYmdpQbXl8rJt6bjgc49u+IaN7tdbvNir3Q1zLziqb/WPzDYEzsLgMZQsIACW7Nh55AH/0TS1thZarDY5WvcZVP9QIOW3SNpWewVrpa7dirLPlz2p339sbMAaAwFCyi4NEl2K9GvY+eowTxzv/3opkVTXnyS4GtNWhR7havmerVi+jx2DACNo2ABBbdw/YH9yvwtSWdjZ6mWS9eUQts9U/oYm9fMkdl9Ks4erLNK9AZjXwEzAwULmAHSkvWY2ZbYOapmWumm70zlQ/SfPnGvFejSOCb9NnHfxdhXwMxAwQJmAEtKPR781dg5qs4rzUukO/qeXjJlBSizcK8XqGC52+bQ7ntj5wCQDwoWMAPMu3/vSU/0nqSe2Fmq4S5z+bK2ttKUHCb0TUtny+xbKk7BOmyp/27O9w8V6dJHACZBwQJmADO5Z7ZXri2xs1Sd2e1aKTw8FcvuH9I3zGypNPXfVMxlW5g2h0T7zOSxswDIBwULmCEWpeW9ieyV2DmqZppnlqw9tGnpkrwXnbnd5+6LY69itYL08mAY4uR2YAahYAEzxfqewRD0qUnbYkepkin4srYszf8wodk3JRWkYPkHpWA7F/3h0cJ8CxTA1VGwgBnCJFdJ+10q0l6sZal5rocJT/1i2ddMdo2kNPbqVSPIXrGyH+DwIDCzULCAGaRbBw6Z2a8lDcTOUhXXPJfuOvj8stz2NgXZ/UG+MPaqVWkgUbKlY07b4dhBAOSLggXMILZeFSnpkQpyAWhTImlZe9DX81pkmuj+xFSMguW+1RJ9qgd7BmNHAZAvChYww5SycFCul2LnqJprflrSV/NY1Mlnln9V7je7qz32alXFkpe8XDnI4UFg5qFgATNM1/EDJ0MIWyXtj52lKom6PSTf6n1m+axGF2XmD0jJIhVjeIZjJdlrczoPnYgdBED+KFjADGMblJU7fK+rICO7u8oyrezIYS+WSQ+4vDv2KlUZ9teDsn0XDusCmGkoWMAMdH5AfQp6IXaOqrkWJG4PNLKIE89ce5e7bpEV4/CgZ3o+6+8/EjsHgKlBwQJmoKXf6xtIy7bTZL+PnaUaZlog+YP7Nq7orHcZSRK+LdNCeQEOD5p2hcTf7f4Xxxn7CpihKFjADGQmb7PyIVd4MXaWarjUJmnVrC7/cgML+YakrtjrUmXYl8tJ6aCZQuwkAKYGBQuYoXrPlo+b+8sunY+dpRpmmpeG8GA98x55euVyuW6Tq+49YNO2ntI5l16cNeic3A7MYBQsYIZa/eiuwUpW2mWut2NnqYa75pvZet+8qqPWedtKlQdlvvTiuFpNznfI7AM9vr8QxRdAfQrwZgSgXoNBxyzVM7FzVKnNZTcdO1v5Uh3zPuKyebFXoBru9ktldpSxr4CZjYIFzGAr2vef9kyvu9QXO0t1fG6pFL5TyxyHn1u8zIN92QpweFCyk+76VdeRZadjJwEwtShYwAxm61VRYnvl/pvYWarimqugh/b8ZfWHCdus/O3EfEkRDg+a6c1SJdljT2wbjp0FwNRq+jckAI0ZHqqckKdPx85RFVObTKvnXnP+pqpncX/UrRjfHgwKP+/U4KnYOQBMPQoWMMMt/V7fQFsatpr0Wews1TBpVprZt6qZ9szzyxab9FWF5j88aNI+M39Djx8ZiJ0FwNSjYAEz3MWTqY9K/nzsLNVwaY5MD1czbSb7ikuLi3B4MEgveyU9xNhXQGsoxQ4AYOr1nZt1prvc/5yZPaELg3o2sw6Z3XXil8tWLfj+oZ5Jpwz+XZk1fJHoqWbSoLt+0XWq3B87y0xWqVifSvaXJi0ee9+lBm6S3C7/W5fvsPG+12nj/OAT3e+X/jIbfefsjgrPfYuhYAEtYPWjuwaPvLjy/TTJ3pfr7th5rsLk6jaz70n6HxNNdOTpRV2W2HfM1dns4x246+PM/V39655B/VnsNDPXrH/z2T5J/y12DkDiECHQMpJK/1m5/Sx2jirNkuu7k03QXm77klzXeQF+UfTEnplfGj7O2FdA66BgAS2iu/P4QBLCSzIV4RIt7TLdfez5a1dMOEUIj7ma/+R2l/ot6DnNPXoudhYA04eCBbQIW69KkiR75HojdpZq4rpbd9n8kfHuPLRp6Ww3e8Skmi+rM/0rom2ZlT+09arEzgJg+lCwgBZy6rgNmPRU7BzVMKkjuP/BePd1VrRW0ipJaeycV+OJ/n7+/GJccBtAfihYQAtZ8fj+8+6+uSCXzmmT2T2Hn1u8bOwd5skfuqs9dsAqHHOvbNKrPUOxgwCYXhQsoIWYybOBoRNm9ovYWaqJK9eCDpW/P/JG3/xgSaYfmDX9cBNy00vzSqWD9iRjXwGthoIFtJhF115/3kP2M8mb/pwgk9qCaVTBOn161yqXblTTHx70SgjJU9t6e7nuINCCKFhAi7F124a7O4ffMNnu2FmqUE4U7vNNS2dfuqWU/UBSOXawq7PP03L49d3/jpPbgVZEwQJaUM/wnGGZ/03sHFUwd5t3KivdI0m+UalLP7DmH/vKZfqnrmuuOcXYV0BromABLWjVgz1DGrZ/cqnpx2ayC3ux/kSSTs6+ZkUifavZBxc106B78pSe3ZbFzgIgDgoW0ILMFObf1PmRmX5XgD0sJQ962N9Y0Vkyf8zlTX3ulUlB0gdzh/Zv5eR2oHVRsIBWtX9Xlsj+2pu8XrmUmOnaUyf93uD2mNyaumC5FIL7X+uDpi+uAKYQBQtoVeuVnRnWP0p2JnaUq3GpJA//XtJ3ZU3/vtVfyZKn2HsFtLZmf6MCMEVM8hWP7D8Z3P+XpGY/Vyg16acXYje1iru2LPzpgf2xgwCIi4IFtDYvJ9kzLjFWUw5cGnLT38bOASA+ChbQwszk8x469EuTfSZxSKsRF05u98NhqOOF2FkAxEfBAiB5eEbOgJgNMQ0lZs92b9h9KnYUAPFRsADIEv/vSjQYO0eRedCgZ6W/j50DQHOgYAHQgocOfi5ph4m9WHXKzLS768d7X48dBEBzoGABkCSZ6y9cOh87R0ENuPlTBRi0FcA0oWABkCSlqT8naSh2joI6F0K2MXYIAM2DggVAktT1YO8xmf9M1vzXJ2wyg5LeenH4cE/sIACaBwULgKQLQzZY8BfEYcJanZXbzzdsaPrBWgFMIwoWgEvOnbcXJO1R84/s3iyCpMPJcJmxrwCMQsECcMnyx3oHXLbZxWHCarhrwMy3zH6853DsLACaCwULwChJRX8l96a/AHQzSEynzUtPmzEKPoDRKFgARuk9Pf/DJLGPjG8UXk1FUs/szqHXYgcB0HwoWABGWbNh55BL/+DS6dhZmprrtEwv2iN9/bGjAGg+FCwAV+g0f84kDhNOwuUnK8Gejp0DQHOiYAG4Qkdy8ICkLZLOxs7SpM6Zafv89s4PYwcB0JwoWACuYOtVcdOL4jDhuEw6EaRN9uguLpANYFwULADjGsqyV2TqEReAHs0VZDqoUvml2FEANC8KFoBxLXuk77DL3pJxLtYopjPB/e1dBxbvix0FQPMqxQ4AoHmZ+89N+kOXFsTO0jzsmJleWPfEtuHYSTDa2f9+x0Ml6UdmNj92lrHa1PEf7Iltp2LnwPShYAGY0ILzeudEhz6T6zqZ2mLnic1kw5L3uOn12FlwpVKi1e76qeTLY2cZq79y/j9LomC1EA4RApiQPdY74G4vyvxY7CzNwOUnZf763Md6j8bOAqC5UbAATMot/FJKKBSS5N43FIwLOwO4KgoWgEktPNH9mZu/w8nuOmdmH3Z3ZttjBwHQ/ChYACZlG3YOmfxluVp6L5ZLR5ToVS6NA6AaFCwAV9Vp+o1kn6tVx8RyBZP2DXlpS+woAIqBggXgqjofOvi5mbaZtei3oEynXb6j+3zXp7GjACgGChaAqgQPL7nrUOwckRxKlGy2DTuHYgcBUAwULADVGR58U9JnklqtZFQk25Mm9kbsIACKg4IFoCoLHz1+WtIbko7EzjLNjpvCtlmP7T8QOwiA4qBgAaiayTZJvj92junkpn1S8krsHACKhYIFoGony+WPXPaRpJYYqsBM5xPXJ8ODA+/EzgKgWChYAKp2w/qe84mFV1xqicNlwXUouL/VveFEa357EkDdKFgAapKmyW8lfS4pi51ligWT9gSz38QOAqB4KFgAajL3O70fy/WeNNPHxPKzJu08ebztw9hJABQPBQtAzRLTa5L2xc4xtWyfmd644c96zsdOAqB4KFgAamZDpd+Y9Ilm7qVzMkm70qztzdhBABQTBQtAzeb/cO+JzP09SYdjZ5kiJ1y+o/PHPT2xgwAoJgoWgDqlL5vZTL023y6/cBgUAOpCwQJQl3Nz9X6Q75bPsEvnuA/L9ZGS8tuxowAoLgoWgLqs/Ob+c57ZqzJ9FjtLrsx6ZP7G/B/uPRE7CoDiomABqFtSsnck6zEpxM6SE3fXniC9GzsIgGKjYAGoW/d3978v17sunY6dJQ/uOmem9+b/6ODW2FkAFBsFC0BDXPaOTHti58hDIvvM3bfHzgGg+ChYABpSHvAtJv+9JI+dpUEu+Y5ymr4aOwiA4qNgAWjI3J8cOOauD106EjtLY+yUUv941mP7W+JC1gCmFgULQMM8JFvk2hE7R0NM71aGxYWdAeSCggWgYd2LfbuZ7Y6doyHun6Wevh87BoCZgYIFoGG2rnfALLwm0wexs9TD3XfJ7c2uHx84HjsLgJmhFDsAgJlh/snuvz8+5+DTSZiT5rXMus6at9qnn5eczXT2mvNmvUU/UR9Ak6BgAciFbdg5JGlIKupOoKLmBtCMOEQIAACQMwoWAABAzihYAAAAOaNgAQAA5IyCBQAAkDMKFgAAQM4oWAAAADmjYAEAAOSMggUAAJAzChYAAEDOKFgAAAA5o2ABAADkjIIFAACQMwoWAABAzihYAAAAOaNgAQAA5IyCBQAAkDMKFgAAQM4oWAAAADmjYAEAAOSMggUAAJAzChYAAEDOKFgAAAA5o2ABAADkjIIFAACQMwoWAABAzihYAAAAOaNgAQAA5IyCBQAAkDMKFgAAQM4oWAAAADmjYAEAAOSsFDsAIEnmSpWGuadeWNEdO8ukTl/8e+6Yn3MwqMGhxTpyzjYoi72akrTnL1d1rFqljtODlSt/EctxvafXvBmwDphQ5rPlSmSxgwAULDSPhUH2bz21w5duCVf8YzSfYBfsBJN/cXuicGHGMP5DjFqmj3mE9ot/D474edTjJWMWOGL+MbnGZm8Pbe/2+6oXpZ5DuW/dOsxbPPi1k2f1vcQ1Z9ztMGa9kyvW0S5vhSuek4m3iyTJr7xp1GfmRM/xpMtOpDB4+ce2kffX8Il8RbYJDgSEiUJWd+AgmXBFkyq2Qa2u8nw0tCbTye5MTHO88QUBDaNgoSm41C33f24jP73s0n0yH+8t03TFp92Vs19x+xez+chpEo37oT7qRr/8t41YuI/95HfJLi19xKeVTb74JNXflZOwVVJTFKxU9mXJ/51kS8x89KZwSWYXn5eL6+lXrqBdXGm3i6t/aRmXF2YjnsZRz8mY7WNjljzxtvRxpzP3ET/ahcmSy/P4iPwjn19N+mk9Jseoh66ytE2wfLtya4yYwSZefqPtYrLYXt1kU/Pg1aFcoVk03y8gAAAABUfBAgAAyBkFCwAAIGcULAAAgJxRsAAAAHJGwQIAAMgZBQsAACBnFCwAAICcUbAAAAByRsECAADIGQULAAAgZxQsAACAnFGwAAAAckbBAgAAyBkFCwAAIGcULAAAgJxRsAAAAHJGwQIAAMgZBQsAACBnFCwAAICcUbAAAAByRsECAADIGQULAAAgZxQsAACAnFGwAAAAckbBAgAAyBkFCwAAIGcULAAAgJxRsAAAAHJGwQIAAMgZBQsAACBnFCwAAICcUbAAAAByRsECAADIGQULAAAgZ6XYATC9wvC5YFY6OepGHzuVjfOzqxajluA22b35+iKqX/hrvEdyN5mNWZ/xVm9k7glWv7atcuW8I/N5sIHBUAlTt3Fqk8gHg+yUpLYJt6Xs0u2jpzF5jc+zV32jatjwl1P5qIRj1miil0NVj9NwyBqXbZPcV68qn6sRbwX5/y+ewveFJjA7SZvm/zamBwWrxZTT4fOZp3898q153Le18UrXmJ7l48083puvuZIwycK/mHiCtx+bKKRP8gFj4+QYtdImG7sRfJxlhPGX7WOnG/kg/sX9k5e4sbuPE9O2cyqfUrMI/rGZ/sHduq6Ib2PXVUrGFGmTX9p8l9bVRy3g8r/s8ua2kdPZmIe8tJzJysXYmS5O62O2+GS/WNTbXUY15hpKS613hklmqiu75bAMTOb48MD52BkAAAAAAAAAAAAAAAAAAAAAAAAAAAAAAAAAAAAAAAAAAAAAAAAAAAAAAAAAAAAAAAAAAAAAAAAAAAAAAAAAAAAAAAAAAAAAAAAAAAAAAAAAAAAAAAAAAAAAAAAAAAAAAAAAAAAAAAAAAAAAAAAAAAAAAAAAAAAAAAAAAAAAAAAAAAAAAAAAAAAAAAAAAAAAAAAAAAAAAAAAAAAAAAAAAAAAAAAAAAAAAAAAAAAAAAAAAAAAAAAAAAAAAAAAAAAAAAAAAAAAAAAAAAAAAAAAAAAAAAAAAAAAAAAAAAAAAAAAAAAAAAAAAAAAAAAAAAAAAAAAAAAAAAAAAAAAAAAAAAAAAAAAAAAAAAAAAAAAAAAAAAAAAAAAAAAAAAAAAAAAAAAAAAAAAAAAAAAAAAAAAAAAAAAAAAAAAAAAAAAAAAAAAAAAAAAAAAAAAAAAAAAAAAAAAAAAAAAAAAAAAAAAAAAAAAAAAAAAAAAAAAAAAAAAAAAAAAAAAAAAAAAAAAAAAAAAAAAAAAAAAAAAAAAAAAAAAAAAAAAAAAAAAAAAAAAAAAAAAAAAAAAAAAAAAAAAAAAAAAAAAAAAAAAAAAAAAAAAAAAAAAAAAAAAAAAAAAAAAAAAAAAAAAAAAAAAAAAAAAAAAEXzvwHhhAJIQOWy7wAAACV0RVh0ZGF0ZTpjcmVhdGUAMjAxOC0xMC0xMFQyMToxMzowMyswMDowMAZS6rwAAAAldEVYdGRhdGU6bW9kaWZ5ADIwMTgtMTAtMTBUMjE6MTM6MDMrMDA6MDB3D1IAAAAAAElFTkSuQmCC;" vertex="1" parent="1">
          <mxGeometry x="597" y="292.5" width="19.5" height="19.5" as="geometry" />
        </mxCell>
      </root>
    </mxGraphModel>
  </diagram>
</mxfile>
